<svg width="44" height="40" viewBox="0 0 44 40" fill="none" xmlns="http://www.w3.org/2000/svg">
<path d="M0 20C0 8.95431 8.95431 0 20 0H44V40H20C8.9543 40 0 31.0457 0 20Z" fill="black"/>
<path d="M23.9911 14.0928C23.9911 13.2221 25.0267 12.7673 25.6678 13.3564L31.0077 18.2637C31.4388 18.6599 31.4388 19.3401 31.0077 19.7363L25.6678 24.6445C25.0268 25.2336 23.9915 24.7786 23.9911 23.9082V22.0049C21.7125 22.0409 20.4404 22.267 19.6493 22.627C18.8516 22.9899 18.4934 23.5097 18.0448 24.3848C17.6728 25.1104 16.6515 24.7733 16.6591 24.041C16.6875 21.2872 17.1254 19.2099 18.4452 17.8496C19.6653 16.5922 21.5047 16.0835 23.9911 16.0098V14.0928Z" fill="white"/>
</svg>
