<svg width="80" height="80" viewBox="0 0 80 80" fill="none" xmlns="http://www.w3.org/2000/svg">
<path d="M0 40C0 17.9086 17.9086 0 40 0C62.0914 0 80 17.9086 80 40C80 62.0914 62.0914 80 40 80C17.9086 80 0 62.0914 0 40Z" fill="#6A381A" fill-opacity="0.08"/>
<path d="M48 20C49.1046 20 50 20.8954 50 22V24H54C56.2092 24 58 25.7909 58 28V54C58 56.2092 56.2092 58 54 58H26C23.7909 58 22 56.2092 22 54V28C22 25.7909 23.7909 24 26 24H30V22C30 20.8954 30.8954 20 32 20C33.1046 20 34 20.8954 34 22V24H46V22C46 20.8954 46.8954 20 48 20ZM46.4141 36.0859C45.6331 35.3049 44.3669 35.3049 43.5859 36.0859L38 41.6719L36.4141 40.0859C35.633 39.3049 34.367 39.3049 33.5859 40.0859C32.8049 40.8669 32.8049 42.1331 33.5859 42.9141L36.5859 45.9141C36.9609 46.2891 37.4696 46.5 38 46.5C38.5304 46.5 39.0391 46.2891 39.4141 45.9141L46.4141 38.9141C47.1951 38.1331 47.1951 36.8669 46.4141 36.0859Z" fill="#6A381A"/>
</svg>
