<svg width="794" height="6" viewBox="0 0 794 6" fill="none" xmlns="http://www.w3.org/2000/svg">
<g opacity="0.2">
<path d="M21 0.594593C20.8603 1.24324 20.5287 1.89189 20.005 2.54054C19.4813 3.15315 18.8354 3.72973 18.0673 4.27027C17.2993 4.77477 16.4264 5.18919 15.4489 5.51351C14.5062 5.83784 13.5461 6 12.5686 6C11.6958 6 10.8753 5.89189 10.1072 5.67567C9.37407 5.45946 8.65835 5.24324 7.9601 5.02703C7.26185 4.77477 6.56359 4.54054 5.86534 4.32432C5.20199 4.10811 4.50374 4 3.77057 4C2.44389 4 1.29177 4.46847 0.314215 5.4054L0 5.2973C0.837905 3.56757 2.00748 2.25225 3.50873 1.35135C5.00998 0.45045 6.75561 0 8.74564 0C9.68828 0 10.5262 0.09009 11.2594 0.27027C11.9925 0.45045 12.6908 0.666666 13.3541 0.918917C14.0175 1.13513 14.6633 1.33333 15.2918 1.51351C15.9202 1.69369 16.6185 1.78378 17.3865 1.78378C18.0499 1.78378 18.6608 1.67567 19.2195 1.45946C19.813 1.24324 20.3017 0.936936 20.6858 0.54054L21 0.594593Z" fill="#6A6C6E"/>
<path d="M55 0.594593C54.8537 1.24324 54.5062 1.89189 53.9576 2.54054C53.409 3.15315 52.7323 3.72973 51.9277 4.27027C51.123 4.77477 50.2086 5.18919 49.1845 5.51351C48.197 5.83784 47.1912 6 46.1671 6C45.2527 6 44.3932 5.89189 43.5885 5.67567C42.8204 5.45946 42.0707 5.24324 41.3392 5.02703C40.6076 4.77477 39.8761 4.54054 39.1446 4.32432C38.4497 4.10811 37.7182 4 36.9501 4C35.5603 4 34.3533 4.46847 33.3292 5.4054L33 5.2973C33.8778 3.56757 35.1031 2.25225 36.6758 1.35135C38.2485 0.45045 40.0773 0 42.1621 0C43.1496 0 44.0274 0.09009 44.7955 0.27027C45.5636 0.45045 46.2951 0.666666 46.99 0.918917C47.685 1.13513 48.3616 1.33333 49.02 1.51351C49.6783 1.69369 50.4098 1.78378 51.2145 1.78378C51.9094 1.78378 52.5495 1.67567 53.1347 1.45946C53.7564 1.24324 54.2685 0.936936 54.6708 0.54054L55 0.594593Z" fill="#6A6C6E"/>
<path d="M89 0.594593C88.8537 1.24324 88.5062 1.89189 87.9576 2.54054C87.409 3.15315 86.7323 3.72973 85.9277 4.27027C85.123 4.77477 84.2086 5.18919 83.1845 5.51351C82.197 5.83784 81.1912 6 80.1671 6C79.2527 6 78.3932 5.89189 77.5885 5.67567C76.8204 5.45946 76.0707 5.24324 75.3392 5.02703C74.6076 4.77477 73.8761 4.54054 73.1446 4.32432C72.4497 4.10811 71.7182 4 70.9501 4C69.5603 4 68.3533 4.46847 67.3292 5.4054L67 5.2973C67.8778 3.56757 69.1031 2.25225 70.6758 1.35135C72.2485 0.45045 74.0773 0 76.1621 0C77.1496 0 78.0274 0.09009 78.7955 0.27027C79.5636 0.45045 80.2951 0.666666 80.99 0.918917C81.685 1.13513 82.3616 1.33333 83.02 1.51351C83.6783 1.69369 84.4098 1.78378 85.2145 1.78378C85.9094 1.78378 86.5495 1.67567 87.1347 1.45946C87.7564 1.24324 88.2685 0.936936 88.6708 0.54054L89 0.594593Z" fill="#6A6C6E"/>
<path d="M123 0.594593C122.854 1.24324 122.506 1.89189 121.958 2.54054C121.409 3.15315 120.732 3.72973 119.928 4.27027C119.123 4.77477 118.209 5.18919 117.185 5.51351C116.197 5.83784 115.191 6 114.167 6C113.253 6 112.393 5.89189 111.589 5.67567C110.82 5.45946 110.071 5.24324 109.339 5.02703C108.608 4.77477 107.876 4.54054 107.145 4.32432C106.45 4.10811 105.718 4 104.95 4C103.56 4 102.353 4.46847 101.329 5.4054L101 5.2973C101.878 3.56757 103.103 2.25225 104.676 1.35135C106.249 0.45045 108.077 0 110.162 0C111.15 0 112.027 0.09009 112.796 0.27027C113.564 0.45045 114.295 0.666666 114.99 0.918917C115.685 1.13513 116.362 1.33333 117.02 1.51351C117.678 1.69369 118.41 1.78378 119.214 1.78378C119.909 1.78378 120.549 1.67567 121.135 1.45946C121.756 1.24324 122.268 0.936936 122.671 0.54054L123 0.594593Z" fill="#6A6C6E"/>
<path d="M157 0.594593C156.854 1.24324 156.506 1.89189 155.958 2.54054C155.409 3.15315 154.732 3.72973 153.928 4.27027C153.123 4.77477 152.209 5.18919 151.185 5.51351C150.197 5.83784 149.191 6 148.167 6C147.253 6 146.393 5.89189 145.589 5.67567C144.82 5.45946 144.071 5.24324 143.339 5.02703C142.608 4.77477 141.876 4.54054 141.145 4.32432C140.45 4.10811 139.718 4 138.95 4C137.56 4 136.353 4.46847 135.329 5.4054L135 5.2973C135.878 3.56757 137.103 2.25225 138.676 1.35135C140.249 0.45045 142.077 0 144.162 0C145.15 0 146.027 0.09009 146.796 0.27027C147.564 0.45045 148.295 0.666666 148.99 0.918917C149.685 1.13513 150.362 1.33333 151.02 1.51351C151.678 1.69369 152.41 1.78378 153.214 1.78378C153.909 1.78378 154.549 1.67567 155.135 1.45946C155.756 1.24324 156.268 0.936936 156.671 0.54054L157 0.594593Z" fill="#6A6C6E"/>
<path d="M190 0.594593C189.86 1.24324 189.529 1.89189 189.005 2.54054C188.481 3.15315 187.835 3.72973 187.067 4.27027C186.299 4.77477 185.426 5.18919 184.449 5.51351C183.506 5.83784 182.546 6 181.569 6C180.696 6 179.875 5.89189 179.107 5.67567C178.374 5.45946 177.658 5.24324 176.96 5.02703C176.262 4.77477 175.564 4.54054 174.865 4.32432C174.202 4.10811 173.504 4 172.771 4C171.444 4 170.292 4.46847 169.314 5.4054L169 5.2973C169.838 3.56757 171.007 2.25225 172.509 1.35135C174.01 0.45045 175.756 0 177.746 0C178.688 0 179.526 0.09009 180.259 0.27027C180.993 0.45045 181.691 0.666666 182.354 0.918917C183.017 1.13513 183.663 1.33333 184.292 1.51351C184.92 1.69369 185.618 1.78378 186.387 1.78378C187.05 1.78378 187.661 1.67567 188.219 1.45946C188.813 1.24324 189.302 0.936936 189.686 0.54054L190 0.594593Z" fill="#6A6C6E"/>
<path d="M223 0.594593C222.86 1.24324 222.529 1.89189 222.005 2.54054C221.481 3.15315 220.835 3.72973 220.067 4.27027C219.299 4.77477 218.426 5.18919 217.449 5.51351C216.506 5.83784 215.546 6 214.569 6C213.696 6 212.875 5.89189 212.107 5.67567C211.374 5.45946 210.658 5.24324 209.96 5.02703C209.262 4.77477 208.564 4.54054 207.865 4.32432C207.202 4.10811 206.504 4 205.771 4C204.444 4 203.292 4.46847 202.314 5.4054L202 5.2973C202.838 3.56757 204.007 2.25225 205.509 1.35135C207.01 0.45045 208.756 0 210.746 0C211.688 0 212.526 0.09009 213.259 0.27027C213.993 0.45045 214.691 0.666666 215.354 0.918917C216.017 1.13513 216.663 1.33333 217.292 1.51351C217.92 1.69369 218.618 1.78378 219.387 1.78378C220.05 1.78378 220.661 1.67567 221.219 1.45946C221.813 1.24324 222.302 0.936936 222.686 0.54054L223 0.594593Z" fill="#6A6C6E"/>
<path d="M257 0.594593C256.854 1.24324 256.506 1.89189 255.958 2.54054C255.409 3.15315 254.732 3.72973 253.928 4.27027C253.123 4.77477 252.209 5.18919 251.185 5.51351C250.197 5.83784 249.191 6 248.167 6C247.253 6 246.393 5.89189 245.589 5.67567C244.82 5.45946 244.071 5.24324 243.339 5.02703C242.608 4.77477 241.876 4.54054 241.145 4.32432C240.45 4.10811 239.718 4 238.95 4C237.56 4 236.353 4.46847 235.329 5.4054L235 5.2973C235.878 3.56757 237.103 2.25225 238.676 1.35135C240.249 0.45045 242.077 0 244.162 0C245.15 0 246.027 0.09009 246.796 0.27027C247.564 0.45045 248.295 0.666666 248.99 0.918917C249.685 1.13513 250.362 1.33333 251.02 1.51351C251.678 1.69369 252.41 1.78378 253.214 1.78378C253.909 1.78378 254.549 1.67567 255.135 1.45946C255.756 1.24324 256.268 0.936936 256.671 0.54054L257 0.594593Z" fill="#6A6C6E"/>
<path d="M291 0.594593C290.854 1.24324 290.506 1.89189 289.958 2.54054C289.409 3.15315 288.732 3.72973 287.928 4.27027C287.123 4.77477 286.209 5.18919 285.185 5.51351C284.197 5.83784 283.191 6 282.167 6C281.253 6 280.393 5.89189 279.589 5.67567C278.82 5.45946 278.071 5.24324 277.339 5.02703C276.608 4.77477 275.876 4.54054 275.145 4.32432C274.45 4.10811 273.718 4 272.95 4C271.56 4 270.353 4.46847 269.329 5.4054L269 5.2973C269.878 3.56757 271.103 2.25225 272.676 1.35135C274.249 0.45045 276.077 0 278.162 0C279.15 0 280.027 0.09009 280.796 0.27027C281.564 0.45045 282.295 0.666666 282.99 0.918917C283.685 1.13513 284.362 1.33333 285.02 1.51351C285.678 1.69369 286.41 1.78378 287.214 1.78378C287.909 1.78378 288.549 1.67567 289.135 1.45946C289.756 1.24324 290.268 0.936936 290.671 0.54054L291 0.594593Z" fill="#6A6C6E"/>
<path d="M325 0.594593C324.854 1.24324 324.506 1.89189 323.958 2.54054C323.409 3.15315 322.732 3.72973 321.928 4.27027C321.123 4.77477 320.209 5.18919 319.185 5.51351C318.197 5.83784 317.191 6 316.167 6C315.253 6 314.393 5.89189 313.589 5.67567C312.82 5.45946 312.071 5.24324 311.339 5.02703C310.608 4.77477 309.876 4.54054 309.145 4.32432C308.45 4.10811 307.718 4 306.95 4C305.56 4 304.353 4.46847 303.329 5.4054L303 5.2973C303.878 3.56757 305.103 2.25225 306.676 1.35135C308.249 0.45045 310.077 0 312.162 0C313.15 0 314.027 0.09009 314.796 0.27027C315.564 0.45045 316.295 0.666666 316.99 0.918917C317.685 1.13513 318.362 1.33333 319.02 1.51351C319.678 1.69369 320.41 1.78378 321.214 1.78378C321.909 1.78378 322.549 1.67567 323.135 1.45946C323.756 1.24324 324.268 0.936936 324.671 0.54054L325 0.594593Z" fill="#6A6C6E"/>
<path d="M359 0.594593C358.854 1.24324 358.506 1.89189 357.958 2.54054C357.409 3.15315 356.732 3.72973 355.928 4.27027C355.123 4.77477 354.209 5.18919 353.185 5.51351C352.197 5.83784 351.191 6 350.167 6C349.253 6 348.393 5.89189 347.589 5.67567C346.82 5.45946 346.071 5.24324 345.339 5.02703C344.608 4.77477 343.876 4.54054 343.145 4.32432C342.45 4.10811 341.718 4 340.95 4C339.56 4 338.353 4.46847 337.329 5.4054L337 5.2973C337.878 3.56757 339.103 2.25225 340.676 1.35135C342.249 0.45045 344.077 0 346.162 0C347.15 0 348.027 0.09009 348.796 0.27027C349.564 0.45045 350.295 0.666666 350.99 0.918917C351.685 1.13513 352.362 1.33333 353.02 1.51351C353.678 1.69369 354.41 1.78378 355.214 1.78378C355.909 1.78378 356.549 1.67567 357.135 1.45946C357.756 1.24324 358.268 0.936936 358.671 0.54054L359 0.594593Z" fill="#6A6C6E"/>
<path d="M392 0.594593C391.86 1.24324 391.529 1.89189 391.005 2.54054C390.481 3.15315 389.835 3.72973 389.067 4.27027C388.299 4.77477 387.426 5.18919 386.449 5.51351C385.506 5.83784 384.546 6 383.569 6C382.696 6 381.875 5.89189 381.107 5.67567C380.374 5.45946 379.658 5.24324 378.96 5.02703C378.262 4.77477 377.564 4.54054 376.865 4.32432C376.202 4.10811 375.504 4 374.771 4C373.444 4 372.292 4.46847 371.314 5.4054L371 5.2973C371.838 3.56757 373.007 2.25225 374.509 1.35135C376.01 0.45045 377.756 0 379.746 0C380.688 0 381.526 0.09009 382.259 0.27027C382.993 0.45045 383.691 0.666666 384.354 0.918917C385.017 1.13513 385.663 1.33333 386.292 1.51351C386.92 1.69369 387.618 1.78378 388.387 1.78378C389.05 1.78378 389.661 1.67567 390.219 1.45946C390.813 1.24324 391.302 0.936936 391.686 0.54054L392 0.594593Z" fill="#6A6C6E"/>
<path d="M426 0.594593C425.854 1.24324 425.506 1.89189 424.958 2.54054C424.409 3.15315 423.732 3.72973 422.928 4.27027C422.123 4.77477 421.209 5.18919 420.185 5.51351C419.197 5.83784 418.191 6 417.167 6C416.253 6 415.393 5.89189 414.589 5.67567C413.82 5.45946 413.071 5.24324 412.339 5.02703C411.608 4.77477 410.876 4.54054 410.145 4.32432C409.45 4.10811 408.718 4 407.95 4C406.56 4 405.353 4.46847 404.329 5.4054L404 5.2973C404.878 3.56757 406.103 2.25225 407.676 1.35135C409.249 0.45045 411.077 0 413.162 0C414.15 0 415.027 0.09009 415.796 0.27027C416.564 0.45045 417.295 0.666666 417.99 0.918917C418.685 1.13513 419.362 1.33333 420.02 1.51351C420.678 1.69369 421.41 1.78378 422.214 1.78378C422.909 1.78378 423.549 1.67567 424.135 1.45946C424.756 1.24324 425.268 0.936936 425.671 0.54054L426 0.594593Z" fill="#6A6C6E"/>
<path d="M460 0.594593C459.854 1.24324 459.506 1.89189 458.958 2.54054C458.409 3.15315 457.732 3.72973 456.928 4.27027C456.123 4.77477 455.209 5.18919 454.185 5.51351C453.197 5.83784 452.191 6 451.167 6C450.253 6 449.393 5.89189 448.589 5.67567C447.82 5.45946 447.071 5.24324 446.339 5.02703C445.608 4.77477 444.876 4.54054 444.145 4.32432C443.45 4.10811 442.718 4 441.95 4C440.56 4 439.353 4.46847 438.329 5.4054L438 5.2973C438.878 3.56757 440.103 2.25225 441.676 1.35135C443.249 0.45045 445.077 0 447.162 0C448.15 0 449.027 0.09009 449.796 0.27027C450.564 0.45045 451.295 0.666666 451.99 0.918917C452.685 1.13513 453.362 1.33333 454.02 1.51351C454.678 1.69369 455.41 1.78378 456.214 1.78378C456.909 1.78378 457.549 1.67567 458.135 1.45946C458.756 1.24324 459.268 0.936936 459.671 0.54054L460 0.594593Z" fill="#6A6C6E"/>
<path d="M493 0.594593C492.86 1.24324 492.529 1.89189 492.005 2.54054C491.481 3.15315 490.835 3.72973 490.067 4.27027C489.299 4.77477 488.426 5.18919 487.449 5.51351C486.506 5.83784 485.546 6 484.569 6C483.696 6 482.875 5.89189 482.107 5.67567C481.374 5.45946 480.658 5.24324 479.96 5.02703C479.262 4.77477 478.564 4.54054 477.865 4.32432C477.202 4.10811 476.504 4 475.771 4C474.444 4 473.292 4.46847 472.314 5.4054L472 5.2973C472.838 3.56757 474.007 2.25225 475.509 1.35135C477.01 0.45045 478.756 0 480.746 0C481.688 0 482.526 0.09009 483.259 0.27027C483.993 0.45045 484.691 0.666666 485.354 0.918917C486.017 1.13513 486.663 1.33333 487.292 1.51351C487.92 1.69369 488.618 1.78378 489.387 1.78378C490.05 1.78378 490.661 1.67567 491.219 1.45946C491.813 1.24324 492.302 0.936936 492.686 0.54054L493 0.594593Z" fill="#6A6C6E"/>
<path d="M527 0.594593C526.854 1.24324 526.506 1.89189 525.958 2.54054C525.409 3.15315 524.732 3.72973 523.928 4.27027C523.123 4.77477 522.209 5.18919 521.185 5.51351C520.197 5.83784 519.191 6 518.167 6C517.253 6 516.393 5.89189 515.589 5.67567C514.82 5.45946 514.071 5.24324 513.339 5.02703C512.608 4.77477 511.876 4.54054 511.145 4.32432C510.45 4.10811 509.718 4 508.95 4C507.56 4 506.353 4.46847 505.329 5.4054L505 5.2973C505.878 3.56757 507.103 2.25225 508.676 1.35135C510.249 0.45045 512.077 0 514.162 0C515.15 0 516.027 0.09009 516.796 0.27027C517.564 0.45045 518.295 0.666666 518.99 0.918917C519.685 1.13513 520.362 1.33333 521.02 1.51351C521.678 1.69369 522.41 1.78378 523.214 1.78378C523.909 1.78378 524.549 1.67567 525.135 1.45946C525.756 1.24324 526.268 0.936936 526.671 0.54054L527 0.594593Z" fill="#6A6C6E"/>
<path d="M561 0.594593C560.854 1.24324 560.506 1.89189 559.958 2.54054C559.409 3.15315 558.732 3.72973 557.928 4.27027C557.123 4.77477 556.209 5.18919 555.185 5.51351C554.197 5.83784 553.191 6 552.167 6C551.253 6 550.393 5.89189 549.589 5.67567C548.82 5.45946 548.071 5.24324 547.339 5.02703C546.608 4.77477 545.876 4.54054 545.145 4.32432C544.45 4.10811 543.718 4 542.95 4C541.56 4 540.353 4.46847 539.329 5.4054L539 5.2973C539.878 3.56757 541.103 2.25225 542.676 1.35135C544.249 0.45045 546.077 0 548.162 0C549.15 0 550.027 0.09009 550.796 0.27027C551.564 0.45045 552.295 0.666666 552.99 0.918917C553.685 1.13513 554.362 1.33333 555.02 1.51351C555.678 1.69369 556.41 1.78378 557.214 1.78378C557.909 1.78378 558.549 1.67567 559.135 1.45946C559.756 1.24324 560.268 0.936936 560.671 0.54054L561 0.594593Z" fill="#6A6C6E"/>
<path d="M594 0.594593C593.86 1.24324 593.529 1.89189 593.005 2.54054C592.481 3.15315 591.835 3.72973 591.067 4.27027C590.299 4.77477 589.426 5.18919 588.449 5.51351C587.506 5.83784 586.546 6 585.569 6C584.696 6 583.875 5.89189 583.107 5.67567C582.374 5.45946 581.658 5.24324 580.96 5.02703C580.262 4.77477 579.564 4.54054 578.865 4.32432C578.202 4.10811 577.504 4 576.771 4C575.444 4 574.292 4.46847 573.314 5.4054L573 5.2973C573.838 3.56757 575.007 2.25225 576.509 1.35135C578.01 0.45045 579.756 0 581.746 0C582.688 0 583.526 0.09009 584.259 0.27027C584.993 0.45045 585.691 0.666666 586.354 0.918917C587.017 1.13513 587.663 1.33333 588.292 1.51351C588.92 1.69369 589.618 1.78378 590.387 1.78378C591.05 1.78378 591.661 1.67567 592.219 1.45946C592.813 1.24324 593.302 0.936936 593.686 0.54054L594 0.594593Z" fill="#6A6C6E"/>
<path d="M628 0.594593C627.854 1.24324 627.506 1.89189 626.958 2.54054C626.409 3.15315 625.732 3.72973 624.928 4.27027C624.123 4.77477 623.209 5.18919 622.185 5.51351C621.197 5.83784 620.191 6 619.167 6C618.253 6 617.393 5.89189 616.589 5.67567C615.82 5.45946 615.071 5.24324 614.339 5.02703C613.608 4.77477 612.876 4.54054 612.145 4.32432C611.45 4.10811 610.718 4 609.95 4C608.56 4 607.353 4.46847 606.329 5.4054L606 5.2973C606.878 3.56757 608.103 2.25225 609.676 1.35135C611.249 0.45045 613.077 0 615.162 0C616.15 0 617.027 0.09009 617.796 0.27027C618.564 0.45045 619.295 0.666666 619.99 0.918917C620.685 1.13513 621.362 1.33333 622.02 1.51351C622.678 1.69369 623.41 1.78378 624.214 1.78378C624.909 1.78378 625.549 1.67567 626.135 1.45946C626.756 1.24324 627.268 0.936936 627.671 0.54054L628 0.594593Z" fill="#6A6C6E"/>
<path d="M661 0.594593C660.86 1.24324 660.529 1.89189 660.005 2.54054C659.481 3.15315 658.835 3.72973 658.067 4.27027C657.299 4.77477 656.426 5.18919 655.449 5.51351C654.506 5.83784 653.546 6 652.569 6C651.696 6 650.875 5.89189 650.107 5.67567C649.374 5.45946 648.658 5.24324 647.96 5.02703C647.262 4.77477 646.564 4.54054 645.865 4.32432C645.202 4.10811 644.504 4 643.771 4C642.444 4 641.292 4.46847 640.314 5.4054L640 5.2973C640.838 3.56757 642.007 2.25225 643.509 1.35135C645.01 0.45045 646.756 0 648.746 0C649.688 0 650.526 0.09009 651.259 0.27027C651.993 0.45045 652.691 0.666666 653.354 0.918917C654.017 1.13513 654.663 1.33333 655.292 1.51351C655.92 1.69369 656.618 1.78378 657.387 1.78378C658.05 1.78378 658.661 1.67567 659.219 1.45946C659.813 1.24324 660.302 0.936936 660.686 0.54054L661 0.594593Z" fill="#6A6C6E"/>
<path d="M695 0.594593C694.854 1.24324 694.506 1.89189 693.958 2.54054C693.409 3.15315 692.732 3.72973 691.928 4.27027C691.123 4.77477 690.209 5.18919 689.185 5.51351C688.197 5.83784 687.191 6 686.167 6C685.253 6 684.393 5.89189 683.589 5.67567C682.82 5.45946 682.071 5.24324 681.339 5.02703C680.608 4.77477 679.876 4.54054 679.145 4.32432C678.45 4.10811 677.718 4 676.95 4C675.56 4 674.353 4.46847 673.329 5.4054L673 5.2973C673.878 3.56757 675.103 2.25225 676.676 1.35135C678.249 0.45045 680.077 0 682.162 0C683.15 0 684.027 0.09009 684.796 0.27027C685.564 0.45045 686.295 0.666666 686.99 0.918917C687.685 1.13513 688.362 1.33333 689.02 1.51351C689.678 1.69369 690.41 1.78378 691.214 1.78378C691.909 1.78378 692.549 1.67567 693.135 1.45946C693.756 1.24324 694.268 0.936936 694.671 0.54054L695 0.594593Z" fill="#6A6C6E"/>
<path d="M728 0.594593C727.86 1.24324 727.529 1.89189 727.005 2.54054C726.481 3.15315 725.835 3.72973 725.067 4.27027C724.299 4.77477 723.426 5.18919 722.449 5.51351C721.506 5.83784 720.546 6 719.569 6C718.696 6 717.875 5.89189 717.107 5.67567C716.374 5.45946 715.658 5.24324 714.96 5.02703C714.262 4.77477 713.564 4.54054 712.865 4.32432C712.202 4.10811 711.504 4 710.771 4C709.444 4 708.292 4.46847 707.314 5.4054L707 5.2973C707.838 3.56757 709.007 2.25225 710.509 1.35135C712.01 0.45045 713.756 0 715.746 0C716.688 0 717.526 0.09009 718.259 0.27027C718.993 0.45045 719.691 0.666666 720.354 0.918917C721.017 1.13513 721.663 1.33333 722.292 1.51351C722.92 1.69369 723.618 1.78378 724.387 1.78378C725.05 1.78378 725.661 1.67567 726.219 1.45946C726.813 1.24324 727.302 0.936936 727.686 0.54054L728 0.594593Z" fill="#6A6C6E"/>
<path d="M761 0.594593C760.86 1.24324 760.529 1.89189 760.005 2.54054C759.481 3.15315 758.835 3.72973 758.067 4.27027C757.299 4.77477 756.426 5.18919 755.449 5.51351C754.506 5.83784 753.546 6 752.569 6C751.696 6 750.875 5.89189 750.107 5.67567C749.374 5.45946 748.658 5.24324 747.96 5.02703C747.262 4.77477 746.564 4.54054 745.865 4.32432C745.202 4.10811 744.504 4 743.771 4C742.444 4 741.292 4.46847 740.314 5.4054L740 5.2973C740.838 3.56757 742.007 2.25225 743.509 1.35135C745.01 0.45045 746.756 0 748.746 0C749.688 0 750.526 0.09009 751.259 0.27027C751.993 0.45045 752.691 0.666666 753.354 0.918917C754.017 1.13513 754.663 1.33333 755.292 1.51351C755.92 1.69369 756.618 1.78378 757.387 1.78378C758.05 1.78378 758.661 1.67567 759.219 1.45946C759.813 1.24324 760.302 0.936936 760.686 0.54054L761 0.594593Z" fill="#6A6C6E"/>
<path d="M794 0.594593C793.86 1.24324 793.529 1.89189 793.005 2.54054C792.481 3.15315 791.835 3.72973 791.067 4.27027C790.299 4.77477 789.426 5.18919 788.449 5.51351C787.506 5.83784 786.546 6 785.569 6C784.696 6 783.875 5.89189 783.107 5.67567C782.374 5.45946 781.658 5.24324 780.96 5.02703C780.262 4.77477 779.564 4.54054 778.865 4.32432C778.202 4.10811 777.504 4 776.771 4C775.444 4 774.292 4.46847 773.314 5.4054L773 5.2973C773.838 3.56757 775.007 2.25225 776.509 1.35135C778.01 0.45045 779.756 0 781.746 0C782.688 0 783.526 0.09009 784.259 0.27027C784.993 0.45045 785.691 0.666666 786.354 0.918917C787.017 1.13513 787.663 1.33333 788.292 1.51351C788.92 1.69369 789.618 1.78378 790.387 1.78378C791.05 1.78378 791.661 1.67567 792.219 1.45946C792.813 1.24324 793.302 0.936936 793.686 0.54054L794 0.594593Z" fill="#6A6C6E"/>
</g>
</svg>
