<svg width="427" height="385" viewBox="0 0 427 385" fill="none" xmlns="http://www.w3.org/2000/svg">
<path d="M448.644 253.019C461.141 265.516 461.141 285.778 448.644 298.272L426.015 320.901C413.52 333.398 393.258 333.398 380.761 320.901L238.056 178.196L305.939 110.313L448.644 253.019ZM300.495 -85.083C311.81 -85.083 322.662 -80.5885 330.665 -72.5869L351.996 -51.2539C368.659 -34.5915 368.659 -7.57646 351.996 9.08594L158.167 202.917C141.504 219.578 114.489 219.578 97.8267 202.917L37.3306 142.42C20.6682 125.756 20.6682 98.7421 37.3306 82.0801L191.997 -72.5869C199.998 -80.5884 210.851 -85.083 222.166 -85.083H300.495Z" fill="black"/>
</svg>
