<svg preserveAspectRatio="none" width="100%" height="100%" overflow="visible" style="display: block;" viewBox="0 0 14 14" fill="none" xmlns="http://www.w3.org/2000/svg">
<path id="Icon" d="M6.66504 0C8.4647 6.90281e-05 9.96752 0.660759 11.125 1.73926L9.21582 3.64844C8.51902 2.9942 7.64654 2.65534 6.66504 2.65527C4.93277 2.65527 3.46074 3.82319 2.93262 5.39746V5.40039C2.79932 5.80034 2.72071 6.22459 2.7207 6.66699C2.7207 7.10932 2.79932 7.53365 2.93262 7.93359L2.9248 7.93945H2.93164C3.45891 9.51519 4.93169 10.6855 6.66504 10.6855C7.56174 10.6855 8.31925 10.4428 8.91309 10.043L8.91504 10.0439V10.043C9.62395 9.57033 10.0962 8.86721 10.2539 8.03711H6.66602V5.45508H12.9453C13.0241 5.89129 13.0664 6.34577 13.0664 6.81836C13.0664 8.84863 12.3387 10.558 11.0781 11.7217H11.0771L10.8652 11.9072C9.78401 12.8114 8.35243 13.3339 6.66504 13.334C4.05898 13.334 1.80987 11.8369 0.712891 9.66113V9.65039C0.259705 8.75454 0 7.74405 0 6.66699C3.0166e-06 5.58854 0.259585 4.57644 0.713867 3.67969L0.712891 3.67871C1.80989 1.497 4.05904 0 6.66504 0Z" fill="var(--fill-0, white)"/>
</svg>
