<svg width="385" height="332" viewBox="0 0 385 332" fill="none" xmlns="http://www.w3.org/2000/svg">
<path d="M383.999 -64C407.564 -64 426.668 -44.8972 426.668 -21.333V235.429C426.668 258.993 407.563 278.095 384.001 278.097H285.307L226.854 326.523C218.922 333.094 207.429 333.062 199.538 326.444L141.858 278.097H42.667C19.1029 278.097 0.000127144 258.993 0 235.431V-21.333C5.5664e-05 -44.8969 19.1029 -63.9998 42.667 -64H383.999ZM160.451 42.667C136.615 42.6671 117.292 62.0854 117.292 86.0391C117.292 109.994 136.615 129.412 160.451 129.412C166.406 129.412 172.081 128.201 177.241 126.01C176.213 127.898 175.095 129.681 173.9 131.377C166.365 142.084 155.221 150.248 140.745 159.946C136.344 162.897 135.149 168.888 138.077 173.304C141.006 177.718 146.983 178.935 151.385 175.987C165.682 166.409 179.713 156.499 189.561 142.509C199.683 128.128 204.854 110.294 203.608 85.7754C203.468 61.9431 184.2 42.667 160.451 42.667ZM265.951 42.667C242.116 42.667 222.792 62.0854 222.792 86.0391C222.792 109.994 242.115 129.412 265.951 129.412C271.907 129.412 277.58 128.201 282.74 126.01C281.712 127.898 280.595 129.681 279.402 131.377C271.865 142.084 260.721 150.248 246.246 159.946C241.843 162.897 240.65 168.888 243.577 173.304C246.506 177.717 252.484 178.936 256.885 175.987C271.182 166.409 285.213 156.499 295.061 142.509C305.183 128.128 310.354 110.294 309.11 85.7754C308.967 61.9431 289.699 42.667 265.951 42.667Z" fill="white"/>
</svg>
