<svg preserveAspectRatio="none" width="100%" height="100%" overflow="visible" style="display: block;" viewBox="0 0 18 21" fill="none" xmlns="http://www.w3.org/2000/svg">
<path id="Icon" d="M8.34961 0.108623C8.77101 -0.0362075 9.22899 -0.0362075 9.65039 0.108623L16.6504 2.51487C17.4579 2.79248 17.9999 3.55259 18 4.40647V9.85569C17.9999 12.6623 16.851 14.6851 15.1875 16.26C13.6151 17.7486 11.5551 18.8596 9.63184 19.8967L9.47461 19.9807C9.17831 20.1406 8.82169 20.1406 8.52539 19.9807L8.36816 19.8967C6.44494 18.8596 4.38492 17.7486 2.8125 16.26C1.14898 14.6851 9.86425e-05 12.6623 0 9.85569V4.40647C9.58434e-05 3.5526 0.542119 2.79249 1.34961 2.51487L8.34961 0.108623ZM12.207 6.98558C11.8166 6.5952 11.1834 6.5952 10.793 6.98558L8 9.77854L7.20703 8.98558C6.81654 8.59523 6.18347 8.59523 5.79297 8.98558C5.40248 9.37604 5.40256 10.0091 5.79297 10.3996L7.29297 11.8996C7.48047 12.0871 7.7348 12.1926 8 12.1926C8.2652 12.1926 8.51953 12.0871 8.70703 11.8996L12.207 8.39964C12.5974 8.00913 12.5975 7.37607 12.207 6.98558Z" fill="var(--fill-0, black)"/>
</svg>
