<svg width="48" height="48" viewBox="0 0 48 48" fill="none" xmlns="http://www.w3.org/2000/svg">
<path d="M22.6992 4.33252C23.542 4.04286 24.458 4.04286 25.3008 4.33252L39.3008 9.14502C40.9158 9.70034 42 11.2203 42 12.9282V23.8247C42 29.4383 39.7022 33.4843 36.375 36.6343C33.2302 39.6114 29.1102 41.8326 25.2637 43.9067L24.9492 44.0767C24.3568 44.3962 23.6432 44.3962 23.0508 44.0767L22.7363 43.9067C18.8899 41.8326 14.7698 39.6114 11.625 36.6343C8.29782 33.4843 6 29.4383 6 23.8247V12.9282C6 11.2204 7.08422 9.70036 8.69922 9.14502L22.6992 4.33252ZM30.4141 18.0864C29.6331 17.3054 28.3669 17.3054 27.5859 18.0864L22 23.6714L20.4141 22.0864C19.633 21.3054 18.367 21.3054 17.5859 22.0864C16.805 22.8674 16.8049 24.1336 17.5859 24.9146L20.5859 27.9146C20.9609 28.2895 21.4697 28.5005 22 28.5005C22.5303 28.5005 23.0391 28.2895 23.4141 27.9146L30.4141 20.9146C31.195 20.1336 31.1949 18.8675 30.4141 18.0864Z" fill="black"/>
</svg>
