<svg width="24" height="24" viewBox="0 0 24 24" fill="none" xmlns="http://www.w3.org/2000/svg">
<path d="M11.9824 2C14.6822 2.0001 16.9365 2.99128 18.6729 4.60938L15.8096 7.47266C14.7643 6.49093 13.4549 5.98154 11.9824 5.98145C9.38573 5.98145 7.17829 7.73179 6.38477 10.0908V10.0996C6.18477 10.6996 6.06641 11.3363 6.06641 12C6.06641 12.6636 6.18477 13.3004 6.38477 13.9004L6.37305 13.9092H6.38184C7.17277 16.2727 9.38242 18.0273 11.9824 18.0273C13.3276 18.0273 14.4637 17.6634 15.3545 17.0635L15.3574 17.0654V17.0635C16.4208 16.3544 17.1298 15.3 17.3662 14.0547H11.9844V10.1816H21.4023C21.5205 10.8361 21.584 11.5184 21.584 12.2275C21.5839 15.2728 20.4934 17.8366 18.6025 19.582H18.6006L18.2832 19.8604C16.6613 21.2168 14.5137 21.9999 11.9824 22C8.07341 22 4.70019 19.7548 3.05469 16.4912V16.4766C2.37448 15.1324 1.98438 13.6161 1.98438 12C1.98438 10.3825 2.37436 8.86457 3.05566 7.51953L3.05469 7.51855C4.70014 4.24582 8.0733 2 11.9824 2Z" fill="white"/>
</svg>
