<svg width="24" height="24" viewBox="0 0 24 24" fill="none" xmlns="http://www.w3.org/2000/svg">
<path d="M12 3.5C12 3.5 18.5668 3.5001 20.2041 4.00781C21.1081 4.28764 21.8184 5.10904 22.0605 6.1543C22.4978 8.04741 22.5 12 22.5 12C22.5 12 22.4996 15.9526 22.0605 17.8457C21.8184 18.891 21.1081 19.7124 20.2041 19.9922C18.5668 20.4999 12 20.5 12 20.5C12 20.5 5.43329 20.4999 3.7959 19.9922C2.89194 19.7124 2.18158 18.891 1.93945 17.8457C1.50037 15.9526 1.5 12 1.5 12C1.5 12 1.50037 8.04741 1.93945 6.1543C2.18159 5.10904 2.89196 4.28764 3.7959 4.00781C5.43327 3.50011 12 3.5 12 3.5ZM9.79785 15.2998L15.5137 12L9.79785 8.7002V15.2998Z" fill="white"/>
</svg>
