<svg width="16" height="16" viewBox="0 0 16 16" fill="none" xmlns="http://www.w3.org/2000/svg">
<g opacity="0.2">
<path d="M8 1.33301C10.9455 1.33301 13.333 3.72147 13.333 6.66699C13.3329 8.48933 12.4426 10.1599 11.4746 11.4482C10.4984 12.7477 9.38274 13.7382 8.80469 14.2139C8.33394 14.6009 7.66606 14.6009 7.19531 14.2139C6.61726 13.7382 5.50164 12.7477 4.52539 11.4482C3.55743 10.1599 2.6671 8.48933 2.66699 6.66699C2.66699 3.72147 5.05448 1.33301 8 1.33301ZM7.99805 5C7.0778 5.00026 6.33203 5.74668 6.33203 6.66699C6.33221 7.58715 7.07791 8.33275 7.99805 8.33301C8.91841 8.33301 9.66486 7.58731 9.66504 6.66699C9.66504 5.74652 8.91851 5 7.99805 5Z" fill="black"/>
</g>
</svg>
