<svg width="24" height="24" viewBox="0 0 24 24" fill="none" xmlns="http://www.w3.org/2000/svg">
<g opacity="0.2">
<path d="M12 2C16.4183 2 20 5.58172 20 10C20 12.7337 18.664 15.2402 17.2119 17.1729C15.7478 19.1215 14.0751 20.6067 13.208 21.3203C12.5017 21.9013 11.4983 21.9013 10.792 21.3203C9.92479 20.6067 8.2513 19.1218 6.78711 17.1729C5.33508 15.2402 4 12.7337 4 10C4 5.58172 7.58172 2 12 2ZM11.998 7.5C10.6173 7.5 9.49805 8.61929 9.49805 10C9.49805 11.3807 10.6173 12.5 11.998 12.5C13.3786 12.4999 14.498 11.3806 14.498 10C14.498 8.61937 13.3786 7.50013 11.998 7.5Z" fill="white"/>
</g>
</svg>
