<svg width="24" height="24" viewBox="0 0 24 24" fill="none" xmlns="http://www.w3.org/2000/svg">
<g opacity="0.2">
<path fill-rule="evenodd" clip-rule="evenodd" d="M8.05473 3C8.93783 3.00012 9.716 3.57991 9.96976 4.42578L10.7842 7.14062C10.9956 7.84536 10.8034 8.60961 10.2832 9.12988L9.53422 9.87891C10.6132 11.795 12.2041 13.3849 14.1202 14.4639L14.8692 13.7148C15.3894 13.1948 16.1537 13.0025 16.8584 13.2139L19.5733 14.0283C20.4192 14.2822 20.9981 15.0612 20.9981 15.9443V19C20.9981 20.0881 20.1031 21.0397 18.9366 20.9678C10.3929 20.4407 3.55823 13.6051 3.03129 5.06152C2.95947 3.89526 3.91025 3.00022 4.99808 3H8.05473Z" fill="white"/>
</g>
</svg>
