<svg width="24" height="24" viewBox="0 0 24 24" fill="none" xmlns="http://www.w3.org/2000/svg">
<path d="M12 2C17.5228 2 22 6.47722 22 12C22 17.112 18.1632 21.3279 13.2119 21.9277V15.0557H15.916L16.4766 12H13.208V10.9189C13.2081 9.30321 13.8406 8.68359 15.4805 8.68359C15.9881 8.6836 16.4006 8.69585 16.6367 8.71973V5.95117C16.1883 5.82728 15.0962 5.70312 14.4639 5.70312C11.124 5.70317 9.58398 7.27978 9.58398 10.6836V12H7.52051V15.0557H9.58398V21.7061C5.22809 20.6253 2 16.6899 2 12C2 6.47722 6.47722 2 12 2Z" fill="white"/>
</svg>
