<svg width="72" height="72" viewBox="0 0 72 72" fill="none" xmlns="http://www.w3.org/2000/svg">
<path d="M0 36C0 16.1178 16.1178 0 36 0C55.8823 0 72 16.1178 72 36C72 55.8823 55.8823 72 36 72C16.1178 72 0 55.8823 0 36Z" fill="#117F82" fill-opacity="0.1"/>
<path d="M29.4248 21C30.8968 21.0001 32.1942 21.9661 32.6172 23.376L33.9746 27.9014C34.3268 29.0758 34.0064 30.3488 33.1396 31.2158L31.8906 32.4639C33.6889 35.6577 36.3405 38.3091 39.5342 40.1074L40.7822 38.8584C41.6492 37.9915 42.9221 37.6712 44.0967 38.0234L48.6221 39.3809C50.032 39.8039 50.998 41.1013 50.998 42.5732V47.667C50.9979 49.4804 49.5056 51.0651 47.5615 50.9453C33.3223 50.0669 21.9311 38.6757 21.0527 24.4365C20.9328 22.4924 22.5177 21.0001 24.3311 21H29.4248Z" fill="#117F82"/>
</svg>
