<svg width="72" height="72" viewBox="0 0 72 72" fill="none" xmlns="http://www.w3.org/2000/svg">
<path d="M0 36C0 16.1178 16.1178 0 36 0C55.8823 0 72 16.1178 72 36C72 55.8823 55.8823 72 36 72C16.1178 72 0 55.8823 0 36Z" fill="#117F82" fill-opacity="0.1"/>
<path d="M36 19.333C43.3638 19.333 49.333 25.3032 49.333 32.667C49.3329 37.223 47.1076 41.4 44.6875 44.6211C42.2469 47.8697 39.4579 50.345 38.0127 51.5342C36.8355 52.5025 35.1645 52.5025 33.9873 51.5342C32.5421 50.345 29.7531 47.8697 27.3125 44.6211C24.8925 41.4 22.6671 37.223 22.667 32.667C22.667 25.3032 28.6362 19.333 36 19.333ZM35.9961 28.5C33.695 28.5001 31.8301 30.3659 31.8301 32.667C31.8303 34.9679 33.6951 36.8329 35.9961 36.833C38.2972 36.833 40.1629 34.968 40.1631 32.667C40.1631 30.3658 38.2973 28.5 35.9961 28.5Z" fill="#117F82"/>
</svg>
