<svg width="80" height="80" viewBox="0 0 80 80" fill="none" xmlns="http://www.w3.org/2000/svg">
<rect width="80" height="80" rx="40" fill="#6A381A" fill-opacity="0.08"/>
<path d="M40.1543 21.2292C40.5005 20.4006 41.3635 19.8838 42.2363 20.0955C49.23 21.7913 46.9386 28.3685 46 33.9998H52C57.1266 33.9998 60.9301 38.755 59.8047 43.7566L58.1152 51.2654C57.244 55.1371 54.1007 58.3434 49.9189 58.7058C44.467 59.1784 40.9725 58.7848 35.6709 56.8542C33.3272 56.0005 32 53.7428 32 51.45V38.5398C32 33.11 37.9997 29 40.1543 21.2292ZM27 34.9998C28.6568 34.9998 29.9999 36.3431 30 37.9998V53.9998C30 55.6566 28.6569 56.9998 27 56.9998H23C21.3431 56.9998 20 55.6566 20 53.9998V37.9998C20.0001 36.3431 21.3432 34.9998 23 34.9998H27Z" fill="#6A381A"/>
</svg>
