<svg width="48" height="48" viewBox="0 0 48 48" fill="none" xmlns="http://www.w3.org/2000/svg">
<path d="M40.0039 6C42.2131 6.00005 44.0039 7.79089 44.0039 10V34.0713C44.0039 36.2805 42.2129 38.0711 40.0039 38.0713H30.751L25.2715 42.6113C24.528 43.2272 23.4507 43.2246 22.7109 42.6045L17.3027 38.0713H8.00391C5.79477 38.0713 4.00391 36.2803 4.00391 34.0713V10C4.00393 7.7909 5.79478 6.00002 8.00391 6H40.0039ZM19.0459 16C16.8114 16.0002 15 17.8208 15 20.0664C15.0001 22.312 16.8115 24.1327 19.0459 24.1328C19.6042 24.1328 20.1363 24.0188 20.6201 23.8135C20.5237 23.9904 20.4186 24.1574 20.3066 24.3164C19.6002 25.3202 18.5553 26.0859 17.1982 26.9951C16.786 27.2717 16.674 27.8332 16.9482 28.2471C17.2228 28.6609 17.7837 28.7754 18.1963 28.499C19.5366 27.601 20.8522 26.6719 21.7754 25.3604C22.7244 24.0122 23.2086 22.3396 23.0918 20.041C23.0784 17.8069 21.2722 16 19.0459 16ZM28.9365 16C26.7021 16.0002 24.8906 17.8208 24.8906 20.0664C24.8907 22.312 26.7021 24.1327 28.9365 24.1328C29.4949 24.1328 30.027 24.0189 30.5107 23.8135C30.4144 23.9903 30.3099 24.1575 30.1982 24.3164C29.4917 25.3201 28.4467 26.086 27.0898 26.9951C26.6771 27.2717 26.5647 27.8331 26.8389 28.2471C27.1135 28.6609 27.6743 28.7754 28.0869 28.499C29.4273 27.601 30.7428 26.672 31.666 25.3604C32.615 24.0122 33.1 22.3396 32.9834 20.041C32.9698 17.8069 31.1628 16 28.9365 16Z" fill="white"/>
</svg>
