<svg width="363" height="345" viewBox="0 0 363 345" fill="none" xmlns="http://www.w3.org/2000/svg">
<path d="M178.129 -81.5371C187.119 -84.6268 196.881 -84.6268 205.871 -81.5371L355.204 -30.2031C372.433 -24.2806 384 -8.07197 384 10.1465V126.384C384 186.262 359.49 229.413 324 263.013C290.455 294.769 246.511 318.467 205.48 340.592L202.129 342.398C195.808 345.81 188.192 345.81 181.871 342.398L178.52 340.592C137.49 318.467 93.5452 294.769 60 263.013C24.5102 229.413 9.25883e-05 186.262 0 126.384V10.1465C0 -8.07197 11.5681 -24.2806 28.7969 -30.2031L178.129 -81.5371ZM260.418 65.165C252.087 56.8341 238.58 56.8342 230.249 65.165L170.667 124.747L153.752 107.832C145.421 99.5014 131.913 99.5015 123.582 107.832C115.251 116.163 115.251 129.671 123.582 138.002L155.582 170.002C159.582 174.002 165.01 176.25 170.667 176.25C176.324 176.25 181.752 174.002 185.752 170.002L260.418 95.335C268.749 87.0043 268.749 73.4963 260.418 65.165Z" fill="black"/>
</svg>
