<svg width="427" height="384" viewBox="0 0 427 384" fill="none" xmlns="http://www.w3.org/2000/svg">
<path d="M172.497 -63.75C183.813 -63.7499 194.666 -59.2546 202.667 -51.2529L211.503 -42.417H426.667C450.232 -42.4168 469.333 -23.314 469.333 0.25V256.25C469.333 279.815 450.232 298.917 426.667 298.917H85.333C61.769 298.917 42.667 279.815 42.667 256.25V0.25C42.667 -23.3141 61.769 -42.4168 85.333 -42.417H87.1631L96 -51.2529C104.001 -59.2546 114.854 -63.75 126.17 -63.75H172.497ZM298.667 42.917C251.54 42.917 213.333 81.1217 213.333 128.25C213.333 175.377 251.54 213.583 298.667 213.583C345.794 213.583 384 175.377 384 128.25C384 81.1218 345.794 42.9172 298.667 42.917ZM298.667 85.583C322.232 85.5832 341.333 104.685 341.333 128.25C341.333 151.815 322.232 170.917 298.667 170.917C275.102 170.917 256 151.815 256 128.25C256 104.685 275.102 85.583 298.667 85.583ZM149.333 42.917C137.551 42.9172 128 52.4681 128 64.25C128 76.0319 137.551 85.5828 149.333 85.583C161.115 85.583 170.667 76.032 170.667 64.25C170.667 52.468 161.115 42.917 149.333 42.917Z" fill="white"/>
</svg>
