<svg width="40" height="40" viewBox="0 0 40 40" fill="none" xmlns="http://www.w3.org/2000/svg">
<path d="M13.4766 5C14.3605 5.00007 15.208 5.35151 15.833 5.97656L16.5234 6.66699H33.333C35.174 6.66699 36.667 8.15905 36.667 10V30C36.667 31.841 35.174 33.333 33.333 33.333H6.66699C4.82604 33.333 3.33301 31.841 3.33301 30V10C3.33301 8.15905 4.82604 6.66699 6.66699 6.66699H6.80957L7.5 5.97656C8.12512 5.35143 8.97337 5 9.85742 5H13.4766ZM23.333 13.333C19.6513 13.3332 16.667 16.3182 16.667 20C16.667 23.6817 19.6513 26.6668 23.333 26.667C27.0148 26.667 30 23.6818 30 20C30 16.3181 27.0148 13.333 23.333 13.333ZM23.333 16.667C25.174 16.667 26.667 18.159 26.667 20C26.667 21.841 25.174 23.333 23.333 23.333C21.4922 23.3328 20 21.8409 20 20C20 18.1591 21.4922 16.6672 23.333 16.667ZM11.667 13.333C10.7465 13.333 10 14.0795 10 15C10 15.9205 10.7465 16.667 11.667 16.667C12.5873 16.6668 13.333 15.9204 13.333 15C13.333 14.0796 12.5873 13.3332 11.667 13.333Z" fill="white"/>
</svg>
