<svg width="72" height="72" viewBox="0 0 72 72" fill="none" xmlns="http://www.w3.org/2000/svg">
<path d="M0 36C0 16.1178 16.1178 0 36 0C55.8823 0 72 16.1178 72 36C72 55.8823 55.8823 72 36 72C16.1178 72 0 55.8823 0 36Z" fill="#117F82" fill-opacity="0.1"/>
<path d="M52.667 26.9473V45.0537C52.667 45.4741 52.667 45.8837 52.6387 46.2305C52.6075 46.6114 52.5342 47.0614 52.3037 47.5137C51.9842 48.1408 51.4738 48.6502 50.8467 48.9697C50.3943 49.2002 49.9445 49.2745 49.5635 49.3057C49.2168 49.334 48.8072 49.333 48.3867 49.333H23.6133C23.1928 49.333 22.7833 49.334 22.4365 49.3057C22.0555 49.2745 21.6057 49.2002 21.1533 48.9697C20.5262 48.6502 20.0158 48.1407 19.6963 47.5137C19.4658 47.0614 19.3925 46.6115 19.3613 46.2305C19.333 45.8836 19.333 45.4734 19.333 45.0527V26.9473C19.333 26.6865 19.3331 26.4295 19.3398 26.1895L33.8896 38.0928C35.1176 39.0972 36.8834 39.0973 38.1113 38.0928L52.6602 26.1895C52.6668 26.4295 52.667 26.6865 52.667 26.9473ZM48.3867 22.667C48.8072 22.6669 49.2167 22.667 49.5635 22.6953C49.9445 22.7264 50.3943 22.7998 50.8467 23.0303C50.9298 23.0726 51.011 23.1181 51.0898 23.167L36 35.5127L20.9102 23.167C20.989 23.1181 21.0702 23.0726 21.1533 23.0303C21.6057 22.7998 22.0555 22.7264 22.4365 22.6953C22.7833 22.667 23.1928 22.6669 23.6133 22.667H48.3867Z" fill="#117F82"/>
</svg>
