<svg width="80" height="80" viewBox="0 0 80 80" fill="none" xmlns="http://www.w3.org/2000/svg">
<path d="M0 40C0 17.9086 17.9086 0 40 0C62.0914 0 80 17.9086 80 40C80 62.0914 62.0914 80 40 80C17.9086 80 0 62.0914 0 40Z" fill="#6A381A" fill-opacity="0.08"/>
<path d="M37.2192 19.908C38.7698 18.4078 41.2309 18.4078 42.7817 19.908L45.6323 22.6658L49.5601 22.1101C51.6964 21.808 53.6874 23.2546 54.0601 25.3796L54.7456 29.2869L58.2495 31.1462C60.1553 32.1575 60.9159 34.498 59.9683 36.4363L58.2261 39.9998L59.9683 43.5642C60.9156 45.5025 60.1551 47.8421 58.2495 48.8533L54.7456 50.7126L54.0601 54.6199C53.6875 56.7449 51.6964 58.1916 49.5601 57.8894L45.6323 57.3337L42.7817 60.0925C41.231 61.5926 38.7699 61.5924 37.2192 60.0925L34.3677 57.3337L30.4399 57.8894C28.3038 58.1914 26.3127 56.745 25.9399 54.6199L25.2554 50.7126L21.7505 48.8533C19.845 47.842 19.0846 45.5024 20.0317 43.5642L21.7739 39.9998L20.0317 36.4363C19.0843 34.4981 19.8448 32.1575 21.7505 31.1462L25.2554 29.2869L25.9399 25.3796C26.3127 23.2547 28.3038 21.8082 30.4399 22.1101L34.3677 22.6658L37.2192 19.908ZM41.3452 32.2253C40.795 31.1106 39.205 31.1105 38.6548 32.2253L37.2632 35.0457C37.0448 35.4881 36.6227 35.7949 36.1343 35.866L33.022 36.3181C31.7916 36.4969 31.3006 38.0089 32.1909 38.8767L34.4429 41.072C34.7961 41.4165 34.9569 41.9128 34.8735 42.3992L34.3423 45.4988C34.1321 46.7242 35.4186 47.6592 36.519 47.0808L39.3022 45.6169C39.7391 45.3872 40.261 45.3873 40.6978 45.6169L43.4819 47.0808C44.5823 47.6589 45.8679 46.7241 45.6577 45.4988L45.1265 42.3992C45.0432 41.9127 45.2049 41.4165 45.5581 41.072L47.8101 38.8767C48.7001 38.009 48.2091 36.4972 46.979 36.3181L43.8667 35.866C43.3781 35.795 42.9552 35.4884 42.7368 35.0457L41.3452 32.2253Z" fill="#6A381A"/>
</svg>
