<svg width="81" height="40" viewBox="0 0 81 40" fill="none" xmlns="http://www.w3.org/2000/svg">
<g clip-path="url(#clip0_50_9783)">
<path d="M13.7395 14.9276C13.7138 14.9971 13.6871 15.0657 13.6614 15.1343C13.1582 16.4666 12.6379 17.8438 12.0404 19.1676C12.0366 19.1752 12.0337 19.1828 12.0309 19.1905C11.6954 19.9657 11.3209 20.7562 10.9579 21.52C10.9169 21.6057 10.8769 21.6914 10.8359 21.7781C10.5624 21.5686 10.2222 21.4476 9.8658 21.4476C9.79052 21.4476 9.71524 21.4533 9.63995 21.4638C9.50178 21.4838 9.37694 21.4933 9.26735 21.4933C9.18731 21.4933 9.12632 21.4876 9.08344 21.4809C9.072 21.4219 9.06056 21.3314 9.06056 21.2057C9.06056 20.7409 9.24353 20.1085 9.57611 19.4257C9.93727 18.6819 10.4585 17.9047 11.0818 17.1781C11.9137 16.2086 12.8666 15.4114 13.7395 14.9286M39.3041 13.6695C39.0039 13.2562 38.5207 13.0105 38.01 13.0105C37.9175 13.0105 37.8241 13.0181 37.7327 13.0343C36.5815 13.2371 35.4437 13.7362 34.4393 14.1771C34.3192 14.2295 34.2001 14.2819 34.0829 14.3333C33.9133 14.4066 33.7598 14.5076 33.6283 14.6314C33.3758 14.4724 33.0794 14.3838 32.7755 14.3838C32.643 14.3838 32.5115 14.4 32.3828 14.4324C31.408 14.679 30.3826 15.0457 29.4459 15.479C29.1486 15.1819 28.7388 15.0085 28.3138 15.0085C28.1737 15.0085 28.0336 15.0266 27.8983 15.0638L25.0376 15.8333C24.7974 15.8981 24.5783 16.0162 24.3953 16.1781C24.3515 16.1771 24.3067 16.1762 24.2628 16.1762C23.9608 16.1762 23.652 16.2038 23.3452 16.2571C22.235 16.4524 21.1076 17.0038 19.9918 17.8962C19.9308 17.9447 19.8688 17.9952 19.8078 18.0466C20.3939 16.7819 20.9123 15.6105 21.3783 14.4962L21.3821 14.4866C21.6251 13.8943 21.8738 13.1838 21.8738 12.4038C21.8738 11.3 21.4202 10.359 20.5959 9.75426C19.9584 9.28664 19.115 9.03998 18.1573 9.03998C17.8009 9.03998 17.4302 9.07331 17.0529 9.13998C15.5692 9.40093 13.9129 10.0085 12.2653 10.8981C10.672 11.7581 9.11012 12.8657 7.74932 14.1009C6.30466 15.4124 5.09728 16.8628 4.25774 18.2952C3.27335 19.9752 2.77401 21.6295 2.77401 23.2124C2.77401 24.1828 2.99128 25.1085 3.38485 25.819C3.73553 26.4514 4.21867 26.9228 4.79615 27.2085C4.19675 27.8628 3.63261 28.5352 3.13613 29.1886C1.70481 31.0686 0 33.8733 0 36.5543C0 37.5266 0.282071 38.3257 0.839541 38.9276C1.24645 39.3685 1.99165 39.8933 3.22285 39.8933C3.49444 39.8933 3.78222 39.8666 4.07764 39.8152C4.73326 39.7 5.38698 39.4828 6.13504 39.1324C7.15849 38.6581 8.40589 37.5314 9.84198 35.7819C10.915 34.4743 11.9766 32.9371 12.4835 31.9543C13.0115 30.9581 13.5842 29.9438 14.1388 28.9638C14.3532 28.5838 14.5705 28.2 14.7877 27.8124C14.864 28.5038 15.0946 29.0666 15.4882 29.5209C16.0256 30.1419 16.808 30.4705 17.7504 30.4705C18.0258 30.4705 18.3241 30.4428 18.6367 30.3876C19.7259 30.1962 20.8199 29.6571 21.8957 28.7828C22.2864 29.0828 22.7562 29.2428 23.2689 29.2428C23.4109 29.2428 23.5548 29.2305 23.6987 29.2047C23.9264 29.1647 24.1542 29.0981 24.3858 29.0047C24.3934 29.0343 24.401 29.0628 24.4096 29.0924L25.0957 31.34C25.1767 31.6057 25.3263 31.8466 25.5293 32.0371C26.1344 32.6066 26.9844 32.92 27.9221 32.92C28.1718 32.92 28.4243 32.8981 28.675 32.8543C29.869 32.6438 30.9144 31.9905 31.6977 30.9638C32.9146 29.3857 33.7532 27.6105 34.5641 25.8933C34.7671 25.4638 34.9586 25.059 35.154 24.6609C35.8296 23.2847 36.4357 21.8809 37.0208 20.5219C37.7622 18.8038 38.5284 17.0276 39.4194 15.3581C39.7052 14.8228 39.6595 14.16 39.3031 13.6686" fill="#010101"/>
<path d="M54.7331 15.8534C54.6579 15.9867 54.5826 16.1143 54.5063 16.2362C54.575 16.1086 54.6493 15.9791 54.7274 15.8486C54.7293 15.8505 54.7312 15.8515 54.7331 15.8534ZM48.4475 16.3438C48.0292 17.421 47.8043 18.4724 47.8043 19.4143C47.8043 20.3276 47.9692 21.1086 48.2951 21.7362C48.0883 21.7096 47.871 21.6772 47.6347 21.6429C47.4746 21.6191 47.3097 21.5943 47.1372 21.5705H47.1287C46.7275 21.5153 46.332 21.3657 45.8946 21.1819C45.9832 21.0134 46.0709 20.8467 46.1567 20.6829C46.5112 20.0067 46.8771 19.3086 47.2526 18.6324C47.6747 17.8734 48.0692 17.1067 48.4475 16.3438ZM50.4001 12.9315C50.24 13.1381 50.0847 13.3505 49.9351 13.5686C49.7207 13.88 49.5206 14.1953 49.3357 14.5134C49.3795 14.421 49.4243 14.3286 49.4681 14.2362C49.6511 13.8524 49.8398 13.4591 50.0285 13.0686C50.1543 13.0248 50.2791 12.9791 50.4001 12.9324M80.2091 2.08289C79.9041 1.69241 79.4448 1.4686 78.9493 1.4686C78.8521 1.4686 78.7539 1.47717 78.6577 1.49527C77.3884 1.7305 76.0457 2.00003 74.4428 2.34193C74.3437 2.32289 74.2446 2.31336 74.1446 2.31336C74.0474 2.31336 73.9492 2.32193 73.853 2.34003C73.6338 2.38098 73.4137 2.42193 73.1878 2.46479C73.1573 2.16574 73.042 1.87622 72.8476 1.63241C72.5427 1.2505 72.0872 1.03146 71.5983 1.03146C71.5059 1.03146 71.4125 1.04003 71.321 1.05527C70.1565 1.26003 69.0863 1.64193 68.0515 2.01146L67.9714 2.04003C67.879 2.07241 67.7913 2.11431 67.7074 2.16289C67.4425 1.97812 67.1261 1.87622 66.7926 1.87622C66.7002 1.87622 66.6068 1.88479 66.5153 1.90003C65.3508 2.10479 64.2797 2.4867 63.2448 2.85717L63.1657 2.88574C62.7579 3.03146 62.4234 3.34098 62.2452 3.73527C62.0594 4.1486 61.8535 4.59146 61.6439 5.02955C60.7996 5.31908 59.9715 5.64289 59.1672 5.95622C58.9709 6.03241 58.7727 6.1105 58.5735 6.18765C58.9261 5.55527 59.1901 4.88955 59.3015 4.21146C59.3092 4.16765 59.3139 4.12193 59.3177 4.07717C59.3311 3.99622 59.3511 3.86574 59.3511 3.7067C59.3511 2.64193 58.827 1.72955 57.9141 1.20289C57.3166 0.859076 56.5742 0.683838 55.7071 0.683838C55.3249 0.683838 54.918 0.720028 54.5302 0.7886C52.346 1.17241 50.3125 2.33146 48.4847 4.23336C47.3555 5.4086 46.3215 6.83431 45.3333 8.58098C45.3162 8.57717 45.299 8.57431 45.2819 8.5705C45.2447 8.53717 45.1799 8.46669 45.1094 8.35146C44.976 8.13336 44.9131 7.9067 44.9083 7.80384C45.017 7.40765 44.9693 6.98193 44.7701 6.61812C44.5424 6.19908 44.1431 5.9067 43.6743 5.81431L43.5313 5.7867C43.4303 5.7667 43.3264 5.75622 43.2226 5.75622C42.7042 5.75622 42.2163 6.00955 41.917 6.43241L39.6862 9.59241C39.4947 9.86384 39.3937 10.1819 39.3937 10.5134V10.6467C39.3937 11.6219 39.8387 12.5448 40.6468 13.2448C41.1966 13.721 41.8856 14.0657 42.5993 14.2315C42.2572 14.9429 41.8751 15.7134 41.4263 16.5962L41.4215 16.6057C41.1232 17.201 40.7916 17.8172 40.4705 18.4124C40.2294 18.86 39.9807 19.32 39.7396 19.7848C39.2583 19.7972 38.7609 19.8496 38.2263 19.9438C37.2572 20.1143 35.8563 20.4848 34.688 21.2829C34.0038 21.7496 33.474 22.3124 33.1119 22.9553C32.744 23.6086 32.5573 24.3315 32.5573 25.1029C32.5573 26.2438 33.0461 27.2038 33.9333 27.8086C34.5927 28.2581 35.4285 28.4857 36.4167 28.4857C36.8102 28.4857 37.2209 28.4486 37.6364 28.3753C38.3006 28.2581 40.5 27.7876 42.161 26.4629C42.4497 26.5391 42.7366 26.62 43.0167 26.6981C44.3604 27.0753 45.7488 27.4648 47.3783 27.4648C47.9701 27.4648 48.5457 27.4143 49.1356 27.3105C49.5882 27.2305 50.0561 27.1162 50.4887 26.9781C50.6803 26.9172 50.8556 26.8219 51.0119 26.6953L54.5588 23.8096C54.8561 23.5676 55.0562 23.2276 55.1229 22.8505C55.1877 22.4876 55.1239 22.1124 54.9437 21.7915C55.4888 21.3448 56.0206 20.8057 56.5323 20.1838C56.6362 20.0572 56.74 19.9257 56.8439 19.7915C56.8735 19.8772 56.9059 19.9629 56.9421 20.0476C57.3938 21.1115 58.2943 21.7476 59.3501 21.7476C59.5083 21.7476 59.6713 21.7334 59.8333 21.7048C60.6014 21.5696 61.398 21.08 62.3586 20.1419C62.8341 20.6334 63.4573 20.9029 64.1558 20.9029C64.314 20.9029 64.477 20.8886 64.639 20.86C65.7577 20.6629 66.9584 19.7038 68.6528 17.6515C69.8239 16.2334 70.9551 14.6181 71.7031 13.5496L71.705 13.5467C71.8937 13.2772 72.0576 13.0438 72.1825 12.8696C72.638 12.2353 72.5703 11.3724 72.0214 10.8162L71.5068 10.2943C71.2085 9.99241 70.794 9.81908 70.369 9.81908C70.3357 9.81908 70.3013 9.82003 70.268 9.82193C70.2032 9.82574 70.1393 9.83431 70.0765 9.84574C70.3185 9.28384 70.5434 8.76479 70.7321 8.32955C70.7645 8.25527 70.7959 8.18289 70.8255 8.11431C71.2571 8.04765 71.7212 7.96955 72.2577 7.87431C72.3645 7.85908 72.5026 7.83908 72.6408 7.82098C72.7409 7.80765 72.84 7.78479 72.9372 7.75146C73.2154 7.70003 73.4918 7.6486 73.7653 7.59812C74.9755 7.37241 76.2277 7.13908 77.4455 6.97622C77.8086 6.92765 78.1469 6.75431 78.3975 6.48765C78.834 6.02384 79.9041 4.82669 80.4044 3.73146C80.6531 3.18765 80.5779 2.55717 80.21 2.08574" fill="#010101"/>
<path d="M14.0817 14.2428C14.055 14.3124 14.0293 14.3809 14.0035 14.4495C13.5004 15.7819 12.9801 17.159 12.3826 18.4828C12.3788 18.4905 12.3759 18.4981 12.373 18.5057C12.0376 19.2809 11.6631 20.0714 11.301 20.8352C11.26 20.9209 11.22 21.0067 11.179 21.0933C10.9055 20.8838 10.5653 20.7628 10.2089 20.7628C10.1336 20.7628 10.0584 20.7686 9.98307 20.779C9.84489 20.799 9.72006 20.8086 9.61047 20.8086C9.53042 20.8086 9.46943 20.8028 9.42655 20.7962C9.41512 20.7371 9.40368 20.6467 9.40368 20.5209C9.40368 20.0562 9.58665 19.4238 9.91922 18.7409C10.2804 17.9971 10.8016 17.22 11.4249 16.4933C12.2568 15.5238 13.2097 14.7267 14.0826 14.2438M39.6462 12.9847C39.347 12.5714 38.8629 12.3257 38.3531 12.3257C38.2606 12.3257 38.1673 12.3343 38.0758 12.3495C36.9246 12.5524 35.7868 13.0514 34.7824 13.4924C34.6623 13.5447 34.5432 13.5971 34.426 13.6486C34.2564 13.7219 34.103 13.8228 33.9715 13.9467C33.7189 13.7876 33.4226 13.699 33.1186 13.699C32.9861 13.699 32.8546 13.7152 32.726 13.7476C31.7511 13.9943 30.7257 14.3609 29.789 14.7943C29.4917 14.4971 29.0819 14.3238 28.6569 14.3238C28.5168 14.3238 28.3767 14.3419 28.2414 14.379L25.3807 15.1486C25.1406 15.2133 24.9214 15.3314 24.7384 15.4933C24.6946 15.4924 24.6498 15.4914 24.606 15.4914C24.3039 15.4914 23.9951 15.519 23.6883 15.5724C22.5781 15.7676 21.4498 16.319 20.3349 17.2114C20.2739 17.26 20.2119 17.3105 20.151 17.3619C20.737 16.0971 21.2554 14.9257 21.7214 13.8114L21.7252 13.8019C21.9682 13.2095 22.2169 12.499 22.2169 11.719C22.2169 10.6152 21.7633 9.67427 20.939 9.06951C20.3015 8.60189 19.4582 8.35522 18.5005 8.35522C18.145 8.35522 17.7734 8.38856 17.396 8.45523C15.9123 8.71618 14.2561 9.3238 12.6084 10.2133C11.0151 11.0733 9.45323 12.1809 8.09243 13.4162C6.64777 14.7276 5.4404 16.1781 4.60086 17.6105C3.61647 19.2895 3.11713 20.9447 3.11713 22.5276C3.11713 23.4981 3.3344 24.4238 3.72796 25.1343C4.07865 25.7667 4.56179 26.2381 5.13927 26.5238C4.53987 27.1781 3.97573 27.8505 3.47829 28.5038C2.04793 30.3838 0.342163 33.1886 0.342163 35.8695C0.342163 36.8419 0.624234 37.6409 1.1817 38.2428C1.58861 38.6838 2.33381 39.2086 3.56501 39.2086C3.8366 39.2086 4.12439 39.1819 4.4198 39.1305C5.07542 39.0152 5.72914 38.7981 6.4772 38.4476C7.50066 37.9733 8.74806 36.8467 10.1841 35.0971C11.2572 33.7895 12.3187 32.2524 12.8257 31.2695C13.3536 30.2733 13.9263 29.259 14.481 28.279C14.6954 27.899 14.9126 27.5152 15.1299 27.1276C15.2061 27.819 15.4377 28.3819 15.8303 28.8362C16.3678 29.4571 17.1501 29.7857 18.0926 29.7857C18.368 29.7857 18.6663 29.7581 18.9788 29.7028C20.068 29.5114 21.162 28.9724 22.2388 28.0981C22.6296 28.3981 23.0994 28.5581 23.612 28.5581C23.754 28.5581 23.8979 28.5457 24.0418 28.52C24.2696 28.48 24.4983 28.4133 24.7289 28.32C24.7356 28.3495 24.7441 28.3781 24.7527 28.4076L25.4388 30.6552C25.5198 30.9209 25.6694 31.1619 25.8724 31.3524C26.4775 31.9219 27.3276 32.2352 28.2652 32.2352C28.5149 32.2352 28.7684 32.2133 29.0181 32.1686C30.2121 31.9581 31.2575 31.3047 32.0408 30.2781C33.2577 28.7 34.0963 26.9247 34.9072 25.2076C35.1102 24.7781 35.3018 24.3733 35.4971 23.9752C36.1727 22.599 36.7788 21.1952 37.3639 19.8362C38.1053 18.1181 38.8715 16.3419 39.7625 14.6724C40.0484 14.1371 40.0026 13.4743 39.6462 12.9828" fill="#010101"/>
<path d="M55.0762 15.1686C55.0009 15.3019 54.9256 15.4295 54.8494 15.5514C54.918 15.4238 54.9924 15.2943 55.0705 15.1638C55.0724 15.1657 55.0743 15.1667 55.0762 15.1686ZM48.7897 15.659C48.3713 16.7362 48.1464 17.7876 48.1464 18.7295C48.1464 19.6429 48.3113 20.4238 48.6372 21.0514C48.4304 21.0248 48.2131 20.9933 47.9768 20.9581C47.8167 20.9343 47.6518 20.9095 47.4794 20.8857H47.4698C47.0686 20.8305 46.6732 20.681 46.2358 20.4971C46.3244 20.3286 46.4121 20.1619 46.4978 19.9981C46.8523 19.3219 47.2183 18.6238 47.5937 17.9476C48.0159 17.1886 48.4113 16.4219 48.7897 15.659ZM50.7422 12.2476C50.5821 12.4543 50.4268 12.6667 50.2772 12.8848C50.0628 13.1962 49.8627 13.5114 49.6778 13.8295C49.7216 13.7371 49.7664 13.6448 49.8103 13.5524C49.9932 13.1686 50.1819 12.7752 50.3706 12.3848C50.4964 12.341 50.6203 12.2952 50.7422 12.2486M80.5512 1.3981C80.2462 1.00762 79.7869 0.78381 79.2914 0.78381C79.1942 0.78381 79.0961 0.792381 78.9998 0.810476C77.7305 1.04571 76.3878 1.31524 74.7849 1.65714C74.6858 1.6381 74.5867 1.62857 74.4867 1.62857C74.3895 1.62857 74.2913 1.63714 74.1951 1.65524C73.9759 1.69619 73.7558 1.73714 73.5299 1.78C73.4994 1.48095 73.3841 1.19143 73.1897 0.947619C72.8848 0.565714 72.4293 0.346667 71.9404 0.346667C71.848 0.346667 71.7546 0.355238 71.6631 0.370476C70.4986 0.575238 69.4285 0.957143 68.3936 1.32667L68.3135 1.35524C68.222 1.38857 68.1334 1.42952 68.0496 1.4781C67.7846 1.29333 67.4683 1.19143 67.1347 1.19143C67.0423 1.19143 66.9489 1.2 66.8574 1.21524C65.6929 1.42 64.6218 1.8019 63.5869 2.17238L63.5078 2.20095C63.1009 2.34667 62.7655 2.65619 62.5873 3.05048C62.4015 3.46381 62.1956 3.90667 61.986 4.34571C61.1417 4.63524 60.3136 4.95905 59.5093 5.27238C59.313 5.34857 59.1148 5.42667 58.9156 5.50381C59.2682 4.87143 59.5322 4.20571 59.6437 3.52762C59.6513 3.48381 59.656 3.43905 59.6599 3.39333C59.6732 3.31238 59.6932 3.1819 59.6932 3.02286C59.6932 1.9581 59.1691 1.04571 58.2562 0.519048C57.6587 0.175238 56.9163 0 56.0492 0C55.667 0 55.2601 0.0361905 54.8723 0.104762C52.6881 0.488571 50.6546 1.64762 48.8268 3.55048C47.6976 4.72571 46.6636 6.15143 45.6754 7.8981C45.6583 7.89429 45.6411 7.89143 45.624 7.88762C45.5868 7.85429 45.522 7.78381 45.4515 7.66857C45.3181 7.45048 45.2552 7.22381 45.2504 7.12095C45.3591 6.72476 45.3114 6.29905 45.1132 5.93524C44.8855 5.51619 44.4862 5.22381 44.0173 5.13143L43.8744 5.10381C43.7734 5.08381 43.6695 5.07333 43.5666 5.07333C43.0482 5.07333 42.5603 5.32667 42.2611 5.74952L40.0302 8.90952C39.8387 9.18095 39.7377 9.49905 39.7377 9.83048V9.96381C39.7377 10.939 40.1827 11.8619 40.9908 12.5619C41.5406 13.0381 42.2296 13.3829 42.9434 13.5486C42.6013 14.26 42.2191 15.0305 41.7703 15.9133L41.7655 15.9229C41.4673 16.5181 41.1356 17.1343 40.8145 17.7295C40.5734 18.1771 40.3247 18.6371 40.0845 19.1019C39.6033 19.1143 39.1059 19.1667 38.5713 19.261C37.6021 19.4314 36.2013 19.8019 35.033 20.6C34.3488 21.0667 33.819 21.6295 33.4568 22.2724C33.089 22.9257 32.9022 23.6486 32.9022 24.42C32.9022 25.561 33.3911 26.521 34.2783 27.1257C34.9377 27.5752 35.7734 27.8029 36.7616 27.8029C37.1552 27.8029 37.5659 27.7657 37.9814 27.6924C38.6456 27.5752 40.845 27.1048 42.506 25.78C42.7947 25.8562 43.0815 25.9371 43.3617 26.0152C44.7053 26.3924 46.0938 26.7819 47.7233 26.7819C48.3151 26.7819 48.8907 26.7314 49.4805 26.6276C49.9332 26.5476 50.4011 26.4333 50.8337 26.2952C51.0253 26.2343 51.2006 26.139 51.3569 26.0124L54.9037 23.1267C55.201 22.8848 55.4012 22.5448 55.4679 22.1676C55.5327 21.8048 55.4688 21.4295 55.2887 21.1086C55.8328 20.6619 56.3655 20.1229 56.8773 19.501C56.9811 19.3743 57.085 19.2438 57.1889 19.1086C57.2184 19.1943 57.2508 19.28 57.287 19.3648C57.7387 20.4286 58.6393 21.0648 59.6951 21.0648C59.8533 21.0648 60.0163 21.0505 60.1783 21.0219C60.9463 20.8867 61.743 20.3971 62.7036 19.459C63.1791 19.9505 63.8023 20.22 64.5008 20.22C64.659 20.22 64.8219 20.2057 64.9839 20.1771C66.1027 19.98 67.3034 19.021 68.9977 16.9686C70.1689 15.5505 71.3 13.9352 72.0481 12.8667L72.05 12.8638C72.2387 12.5943 72.4026 12.361 72.5274 12.1867C72.9829 11.5524 72.9153 10.6895 72.3664 10.1333L71.8518 9.61143C71.5535 9.30952 71.139 9.13619 70.714 9.13619C70.6806 9.13619 70.6463 9.13714 70.613 9.13905C70.5482 9.14286 70.4843 9.15143 70.4214 9.16286C70.6635 8.60095 70.8884 8.08191 71.077 7.64667C71.1094 7.57238 71.1409 7.5 71.1704 7.43143C71.6021 7.36476 72.0662 7.28667 72.6027 7.19143C72.7094 7.17619 72.8476 7.15619 72.9858 7.1381C73.0858 7.12476 73.185 7.1019 73.2822 7.06857C73.5604 7.01714 73.8368 6.96571 74.1103 6.91524C75.3205 6.68952 76.5727 6.45619 77.7905 6.29333C78.1536 6.24476 78.4919 6.07143 78.7425 5.80476C79.179 5.34095 80.2491 4.14381 80.7494 3.04857C80.9972 2.50476 80.9228 1.87429 80.555 1.40286" fill="#010101"/>
<path d="M9.1206 27.6048C8.77659 28.319 8.41256 29.0248 8.01614 29.7057C7.78362 30.1028 7.11656 31.1305 6.42378 32.0705C5.69287 33.0638 5.23546 33.5562 4.97721 33.7962C5.0401 33.5028 5.17733 33.1657 5.32218 32.8362C6.13503 30.9857 7.6483 28.9162 9.1206 27.6048ZM10.2079 21.4467C10.165 21.4467 10.1221 21.4495 10.0793 21.4562C9.90963 21.48 9.75145 21.4924 9.61041 21.4924C9.3798 21.4924 9.072 21.459 8.91953 21.3028C8.78993 21.1686 8.71846 20.8914 8.71846 20.5209C8.71846 19.9467 8.92048 19.2276 9.30261 18.4419C9.6895 17.6467 10.2432 16.819 10.9045 16.0486C12.2748 14.4524 13.9206 13.32 15.2004 13.0952C15.2194 13.0914 15.2385 13.0886 15.2575 13.0867C15.0479 13.6248 14.843 14.1676 14.6448 14.6943C14.1378 16.0362 13.6137 17.4228 13.0076 18.7667C13.0057 18.7705 13.0038 18.7752 13.0019 18.779C12.6617 19.5657 12.2844 20.3619 11.9184 21.1324C11.7993 21.3828 11.6783 21.64 11.5582 21.8952C11.4181 22.0076 11.2762 22.119 11.1332 22.2305C11.1284 22.2152 11.1227 22.2009 11.118 22.1857L11.0608 22.0362C10.9245 21.679 10.5824 21.4495 10.2079 21.4495M22.8944 20.3838C22.4475 21.5381 22.0711 22.759 21.9014 23.7657C21.5117 24.1905 21.1524 24.4838 20.8789 24.6505C21.0038 23.9571 21.4783 22.7105 22.1997 21.4609C22.436 21.0514 22.6695 20.6924 22.8944 20.3838ZM32.339 19.0438C32.339 19.0438 32.3371 19.0476 32.3371 19.0495C32.2447 19.2648 32.1551 19.4914 32.0684 19.7105C31.8854 20.1724 31.6967 20.6495 31.4766 21.02C31.3546 21.2228 31.1545 21.4552 30.9553 21.6495C31.0964 21.1981 31.3899 20.4524 31.996 19.2476C32.4562 18.3314 32.967 17.4086 33.3768 16.6838L32.34 19.0448L32.339 19.0438ZM38.353 13.0095C38.3006 13.0095 38.2472 13.0143 38.1948 13.0238C37.1247 13.2114 36.0269 13.6943 35.0587 14.119C34.9377 14.1724 34.8176 14.2248 34.7004 14.2762C34.4888 14.3676 34.3211 14.5362 34.2277 14.7467L34.0276 15.2028C34.0105 15.04 33.9504 14.8809 33.8466 14.7448C33.6712 14.5133 33.4006 14.3828 33.1185 14.3828C33.0442 14.3828 32.9689 14.3924 32.8946 14.4105C31.7977 14.6886 30.6342 15.1238 29.6184 15.6362C29.5907 15.6505 29.564 15.6657 29.5383 15.6819C29.5088 15.5714 29.4573 15.4648 29.3849 15.3695C29.2096 15.1381 28.938 15.0076 28.6568 15.0076C28.5778 15.0076 28.4987 15.0181 28.4196 15.039L25.5588 15.8086C25.3454 15.8657 25.1605 15.999 25.0366 16.1819L25.028 16.1952C24.8899 16.1809 24.7488 16.1743 24.6059 16.1743C24.3429 16.1743 24.0742 16.1981 23.8073 16.2448C22.8125 16.42 21.788 16.9248 20.7636 17.7438C20.3987 18.0352 20.0365 18.3676 19.6811 18.7324C19.5324 18.6371 19.3619 18.5876 19.1894 18.5876C19.0455 18.5876 18.9006 18.6219 18.7672 18.6914C19.682 16.7809 20.4368 15.1076 21.0905 13.5457C21.0905 13.5438 21.0924 13.5419 21.0934 13.54C21.3106 13.0095 21.5336 12.379 21.5336 11.7171C21.5336 10.5886 20.9904 9.95428 20.5349 9.61999C20.0156 9.23904 19.3123 9.03809 18.5014 9.03809C18.185 9.03809 17.8534 9.06856 17.516 9.12761C16.1028 9.37618 14.519 9.95904 12.9352 10.8143C11.3896 11.6486 9.87438 12.7228 8.55455 13.9209C7.1604 15.1867 5.99876 16.5809 5.19353 17.9543C4.27108 19.5276 3.80414 21.0657 3.80414 22.5257C3.80414 23.3819 3.99092 24.1895 4.32921 24.8C4.79425 25.639 5.53849 26.1171 6.43426 26.1552C5.56327 27.0371 4.73897 27.979 4.02617 28.9162C2.6587 30.7124 1.02917 33.3771 1.02917 35.8676C1.02917 36.6628 1.25026 37.3048 1.6867 37.7771C2.00117 38.1171 2.58342 38.5229 3.56781 38.5229C3.79937 38.5229 4.04714 38.5 4.30348 38.4552C4.89812 38.3505 5.49847 38.1505 6.1903 37.8257C7.34813 37.2905 8.71465 35.8105 9.6571 34.6619C10.7044 33.3867 11.7345 31.8962 12.2205 30.9514C12.7532 29.9457 13.3297 28.9267 13.8872 27.94C14.5848 26.7057 15.3052 25.4333 15.9608 24.1495L16.3277 24.0028C15.9799 24.9467 15.7893 25.8371 15.7893 26.5905C15.7893 27.3619 15.9732 27.9495 16.3515 28.3867C16.7603 28.859 17.3473 29.099 18.0954 29.099C18.3308 29.099 18.589 29.0743 18.8625 29.0267C19.9956 28.8276 21.142 28.199 22.2836 27.1543C22.6038 27.6143 23.0707 27.8705 23.6148 27.8705C23.7168 27.8705 23.8216 27.8609 23.9255 27.8428C24.705 27.7057 25.5636 27.1457 26.5651 26.1114C26.9501 26.5771 27.499 26.8495 28.148 26.8495C28.2909 26.8495 28.4386 26.8362 28.5873 26.8095C28.6225 26.8038 28.6568 26.7962 28.6921 26.7895C28.4853 27.0543 28.1604 27.3467 27.6982 27.4286C27.6334 27.44 27.5695 27.4457 27.5086 27.4457C27.3218 27.4457 27.1703 27.3914 27.1026 27.3C26.9396 27.08 26.6862 26.9457 26.4127 26.9324C26.3984 26.9324 26.3831 26.9314 26.3688 26.9314C26.1115 26.9314 25.8647 27.04 25.6913 27.2324L25.6055 27.3276C25.3902 27.5657 25.3158 27.899 25.4102 28.2057L26.0963 30.4533C26.143 30.6057 26.2278 30.7428 26.3441 30.8514C26.8215 31.3009 27.5047 31.5486 28.268 31.5486C28.4777 31.5486 28.6912 31.5295 28.9018 31.4924C29.9243 31.3124 30.8219 30.7486 31.4995 29.86C32.6716 28.3409 33.494 26.5981 34.2906 24.9133C34.4946 24.4819 34.6871 24.0752 34.8843 23.6724C35.5523 22.3114 36.1546 20.9152 36.7378 19.5638C37.4839 17.8333 38.2558 16.0438 39.1611 14.3486C39.326 14.04 39.2993 13.6657 39.0944 13.3828C38.921 13.1438 38.6446 13.0057 38.3549 13.0057" fill="white"/>
<path d="M52.2345 7.47333C52.4317 7.15618 52.6433 6.83523 52.8644 6.52856C53.9031 5.08285 54.573 4.73523 54.8675 4.65428C54.8675 5.59047 53.5505 6.82285 52.2345 7.47333ZM53.5715 17.9248C53.5429 17.7971 53.5181 17.6124 53.5181 17.3752C53.5181 16.5676 54.1737 15.1638 54.9932 14.0438C55.0514 14.1343 55.1152 14.2219 55.1848 14.3067C55.4049 14.5743 55.6689 14.7924 55.9624 14.9552C55.3973 16.0876 54.7912 16.9562 53.8345 17.7305C53.783 17.7714 53.6753 17.8571 53.5715 17.9248ZM59.6322 9.22285C59.554 9.07237 59.4606 8.93713 59.3549 8.81713C59.8599 8.68856 60.3507 8.56571 60.8405 8.45999C60.5327 9.11999 60.2287 9.77999 59.9381 10.4286C59.9009 9.93904 59.8018 9.54856 59.6322 9.22285ZM80.0118 1.81904C79.8364 1.59523 79.5706 1.46856 79.2923 1.46856C79.237 1.46856 79.1818 1.47332 79.1255 1.4838C77.6752 1.75237 76.2191 2.05047 74.7725 2.35999C74.681 2.32952 74.5848 2.31332 74.4866 2.31332C74.4313 2.31332 74.3761 2.31809 74.3198 2.32856C73.7538 2.43332 73.1878 2.54285 72.6208 2.65523C72.677 2.53713 72.7313 2.41809 72.7818 2.29809C72.9114 1.99047 72.8628 1.63618 72.6541 1.37523C72.4788 1.15618 72.2148 1.03142 71.9404 1.03142C71.8879 1.03142 71.8346 1.03618 71.7822 1.04571C70.6749 1.24094 69.6323 1.61237 68.6241 1.97237L68.5441 2.00094C68.3097 2.08475 68.12 2.25999 68.018 2.48666C68.0142 2.49618 68.0095 2.50571 68.0057 2.51523C67.9723 2.41047 67.9199 2.31047 67.8494 2.22094C67.674 2.0019 67.4101 1.87713 67.1356 1.87713C67.0832 1.87713 67.0299 1.8819 66.9774 1.89142C65.8701 2.08666 64.8267 2.45904 63.8184 2.81904L63.7393 2.84666C63.5049 2.93047 63.3153 3.10571 63.2133 3.33237C62.9865 3.83618 62.7359 4.37332 62.4796 4.90285C61.5562 5.21047 60.6442 5.56571 59.7589 5.91142C59.2862 6.09618 58.7974 6.28666 58.3209 6.4638C58.1675 6.52094 58.0322 6.61904 57.9293 6.74666C57.6863 7.04856 57.3565 7.51428 57.3022 8.07999C57.2975 8.12856 57.2975 8.17809 57.3003 8.22571C57.2936 8.22666 57.2879 8.22761 57.2813 8.22856C56.5065 8.36475 55.7537 8.78952 55.222 9.38285C53.6668 10.0686 52.082 11.4743 50.8413 13.2743C49.5643 15.1276 48.8315 17.1171 48.8315 18.7314C48.8315 19.5724 48.984 20.2724 49.2851 20.8124C49.5243 21.2409 49.8559 21.5638 50.2581 21.7695C50.0275 21.7943 49.8045 21.8067 49.5815 21.8067C49.0259 21.8067 48.519 21.7314 47.8767 21.6362C47.7185 21.6124 47.5555 21.5886 47.384 21.5648C47.3821 21.5648 47.3802 21.5648 47.3783 21.5648C46.8046 21.4876 46.2662 21.2571 45.6964 21.0133C45.5601 20.9552 45.4219 20.8962 45.2818 20.8381C45.4896 20.4495 45.6925 20.0619 45.8917 19.6819C46.2481 19.0028 46.6159 18.3 46.9962 17.6162C47.8005 16.1705 48.5075 14.6895 49.1917 13.2571C49.4157 12.7886 49.6463 12.3067 49.8788 11.8286C50.2314 11.7124 50.5754 11.5838 50.8899 11.4505C52.3469 10.8819 54.2033 9.6619 55.7375 8.26571C57.043 7.07713 58.663 5.27142 58.9699 3.41618C58.9756 3.3819 58.9794 3.34666 58.9813 3.31237C58.9813 3.30856 58.9823 3.30475 58.9832 3.30094C58.9946 3.23713 59.0108 3.14094 59.0108 3.02285C59.0108 2.19713 58.622 1.51904 57.9169 1.11237C57.4242 0.828563 56.7972 0.684753 56.052 0.684753C55.7089 0.684753 55.343 0.717134 54.9932 0.779039C52.9559 1.13713 51.0481 2.22952 49.3223 4.02475C48.1492 5.24571 47.0734 6.7619 46.0442 8.64666C45.8136 8.61999 45.5982 8.5838 45.3886 8.53618C45.2609 8.49904 45.0522 8.32761 44.8673 8.02475C44.6834 7.72475 44.5652 7.3638 44.5652 7.10666C44.5652 7.07523 44.5652 7.03428 44.5662 7.01142C44.6567 6.76571 44.6367 6.49142 44.5109 6.26094C44.3813 6.0219 44.1516 5.85428 43.8848 5.8019L43.7419 5.77428C43.6828 5.76285 43.6237 5.75713 43.5656 5.75713C43.2721 5.75713 42.9929 5.89809 42.8194 6.1438L40.5886 9.3038C40.48 9.45809 40.4218 9.6419 40.4218 9.83047V9.9638C40.4218 11.6457 42.0723 12.8295 43.6018 12.9619C43.6113 12.9619 43.6199 12.9628 43.6285 12.9638C43.7457 12.9705 43.8581 12.9762 43.9687 12.98C43.5208 13.94 43.0081 14.9848 42.3792 16.2228C42.3792 16.2248 42.3773 16.2257 42.3763 16.2276C42.0733 16.8333 41.7388 17.4543 41.4148 18.0543C41.1089 18.6209 40.7954 19.2028 40.5 19.7857C40.4371 19.7838 40.3732 19.7838 40.3094 19.7838C39.7976 19.7838 39.2669 19.8333 38.6865 19.9352C37.7841 20.0943 36.4833 20.4362 35.416 21.1657C34.2172 21.9838 33.5845 23.1095 33.5845 24.42C33.5845 25.5828 34.1696 26.2248 34.6603 26.559C35.2045 26.9295 35.9097 27.1171 36.7578 27.1171C37.1113 27.1171 37.482 27.0838 37.8594 27.0171C38.5541 26.8952 40.7906 26.4086 42.3306 25.0276C42.7413 25.1305 43.1472 25.2448 43.5437 25.3552C44.8425 25.719 46.1852 26.0962 47.7194 26.0962C48.2712 26.0962 48.8077 26.0495 49.3576 25.9524C49.7807 25.8781 50.2171 25.7705 50.6212 25.6419C50.7298 25.6076 50.8318 25.5524 50.9204 25.48L54.4672 22.5943C54.8179 22.3086 54.9065 21.8095 54.6759 21.4209L54.6187 21.3248C54.5368 21.1867 54.4224 21.0762 54.29 21C54.9952 20.5181 55.6813 19.8724 56.3445 19.0648C56.7791 18.5362 57.2031 17.939 57.6148 17.2781C57.6119 17.3371 57.61 17.3952 57.61 17.4524C57.61 17.8 57.6491 18.4743 57.9131 19.0952C58.259 19.9105 58.907 20.3781 59.6903 20.3781C59.8094 20.3781 59.9314 20.3676 60.0543 20.3457C60.8014 20.2143 61.6638 19.599 62.7807 18.3867C63.139 19.1171 63.7565 19.5324 64.495 19.5324C64.6141 19.5324 64.7361 19.5219 64.859 19.5C65.791 19.3362 66.9031 18.42 68.4631 16.5305C69.6171 15.1333 70.7387 13.5314 71.481 12.4714C71.6716 12.199 71.8365 11.9628 71.9651 11.7848C72.2243 11.4238 72.1853 10.9286 71.8727 10.6114L71.3581 10.0895C71.1856 9.91523 70.9512 9.81809 70.7082 9.81809C70.6891 9.81809 70.6701 9.81809 70.6501 9.81999C70.3861 9.83713 70.1422 9.96666 69.9821 10.1771C69.8448 10.3562 69.6495 10.6314 69.4027 10.979C69.0758 11.439 68.6632 12.02 68.2353 12.5886C68.3192 12.3809 68.4097 12.1562 68.5098 11.9152C69.1692 10.3114 69.9354 8.54285 70.4433 7.37237C70.5338 7.16285 70.6158 6.97428 70.6872 6.80952C71.2895 6.72094 71.8918 6.61999 72.4883 6.51333C72.6227 6.49428 72.7561 6.47523 72.8895 6.45713C72.9619 6.44761 73.0315 6.42856 73.0982 6.40285C73.3936 6.34856 73.6881 6.29332 73.9797 6.23904C75.1985 6.01142 76.4592 5.77618 77.6942 5.61142C77.902 5.5838 78.0944 5.48475 78.2383 5.33237C78.6519 4.89332 79.663 3.7638 80.1204 2.76094C80.2614 2.45142 80.2186 2.08856 80.0089 1.81999" fill="white"/>
<path d="M19.1884 19.5019L16.7289 20.7867C17.9592 18.3086 19.1884 15.7229 20.2472 13.1952C20.4473 12.7076 20.6188 12.1981 20.6188 11.7191C20.6188 10.4448 19.6573 9.95239 18.5004 9.95239C18.2317 9.95239 17.9534 9.97906 17.6733 10.0276C12.2672 10.9781 4.71517 17.0972 4.71517 22.5267C4.71517 23.9638 5.34411 25.6629 7.17471 25.1543L7.43201 25.0819L10.2641 22.5076L10.207 22.3581C8.63367 22.5819 7.80461 21.9819 7.80461 20.5181C7.80461 17.5372 11.8089 12.761 15.0412 12.1924C15.5844 12.0972 16.2715 12.1629 16.2715 12.7743C16.2715 12.9343 16.2429 13.0724 16.1857 13.2153C15.4138 15.1876 14.7268 17.1714 13.8405 19.1372C13.3545 20.261 12.8104 21.3676 12.2958 22.4695C11.5811 23.0476 10.8369 23.6048 10.0936 24.161C6.71826 26.6438 1.94116 31.9286 1.94116 35.8676C1.94116 37.1714 2.714 37.8076 4.14341 37.5562C4.71517 37.4552 5.2593 37.2533 5.80248 36.9981C7.5759 36.181 10.551 32.1972 11.4086 30.5295C12.6675 28.1524 14.0978 25.8257 15.2985 23.4314L17.7867 22.4353C18.3298 21.5943 18.9311 20.3991 19.1884 19.5019ZM8.80615 30.1648C8.32015 30.9953 5.85966 34.7286 4.94483 34.8895C4.87908 34.901 4.81619 34.9067 4.7571 34.9067C4.27873 34.9067 4.02906 34.5429 4.02906 34.0924C4.02906 33.56 4.25776 32.9876 4.48647 32.4686C5.37366 30.4495 7.17567 27.9505 9.00627 26.5105C9.69239 25.9638 10.6082 25.1905 11.38 24.8419C10.5796 26.6324 9.80674 28.4457 8.80615 30.1648Z" fill="#D22027"/>
<path d="M35.0635 15.1133L33.1757 19.4104C32.8898 20.0733 32.6325 20.8638 32.2599 21.4876C31.9741 21.9638 31.1726 22.8495 30.5723 22.9552C30.0863 23.0409 29.9148 22.619 29.9148 22.2457C29.9148 20.8352 32.3181 16.6866 33.1185 15.2952C32.0884 15.5562 31.0021 15.96 30.0291 16.4504C29.0352 17.9809 27.5924 20.8057 27.0759 22.9152C26.6309 23.4743 26.2364 23.8771 25.9963 23.919C25.7104 23.9695 25.6532 23.6333 25.6532 23.4476C25.6532 21.9838 27.7697 17.4066 28.6569 15.92L25.7961 16.6895L25.4531 17.2019C24.9957 17.0695 24.4801 17.0533 23.9655 17.1438C20.4187 17.7676 16.7003 23.5581 16.7003 26.5924C16.7003 27.8695 17.3293 28.3714 18.7024 28.1295C20.2758 27.8523 21.6775 26.5952 22.7067 25.4028C22.7353 25.9828 22.9068 27.0971 23.7654 26.9466C24.6717 26.7876 25.8066 25.6904 26.8854 24.3704C26.9178 25.219 27.3552 26.1019 28.4282 25.9133C29.6012 25.7066 30.7162 24.3666 31.3461 23.4838L31.4318 23.5752C30.8601 24.7676 30.2874 26.0924 29.5155 27.2123C29.1152 27.7885 28.5425 28.2085 27.8564 28.3295C27.256 28.4352 26.6833 28.2695 26.3689 27.8457L26.2831 27.9409L26.9702 30.1885C27.399 30.5924 28.0861 30.7104 28.7436 30.5952C29.5726 30.4495 30.2597 29.9828 30.7743 29.3066C32.1761 27.4895 33.0909 25.2533 34.0639 23.2724C35.58 20.1847 36.7245 16.9762 38.355 13.9219C37.2676 14.1133 36.0955 14.6657 35.0654 15.1124L35.0635 15.1133ZM22.7639 24.1695C22.2779 24.7343 21.4193 25.5771 20.676 25.7076C20.6226 25.7171 20.5731 25.7219 20.5264 25.7219C20.0956 25.7219 19.9327 25.3447 19.9327 24.9609C19.9327 23.3371 22.3922 18.3543 24.3667 18.0066C24.5954 17.9666 24.7956 17.9847 24.9957 18.0295C24.0513 19.659 22.9935 22.4533 22.7648 24.1704L22.7639 24.1695Z" fill="#D22027"/>
<path d="M50.9184 22.6171C49.4595 22.8733 48.6018 22.679 47.2572 22.4895C46.0556 22.3285 45.1122 21.6695 43.9677 21.3647C44.7405 19.9781 45.4266 18.58 46.1985 17.1933C47.3144 15.1876 48.2292 13.1371 49.2308 11.0981C49.6596 10.9695 50.117 10.8095 50.5468 10.6266C53.1788 9.60473 57.6119 6.05711 58.0693 3.28854C58.0693 3.20854 58.0979 3.12378 58.0979 3.04378C58.0979 1.95807 57.0811 1.61902 56.0519 1.61902C55.7441 1.61902 55.4354 1.64949 55.1514 1.69902C51.0614 2.41807 48.315 6.28188 46.5702 9.62188C46.0842 9.60092 45.6258 9.54854 45.1684 9.44283C44.3108 9.22092 43.6523 7.97997 43.6523 7.12759C43.6523 6.99426 43.6523 6.86092 43.7094 6.71807L43.5665 6.6895L41.3357 9.84949V9.98283C41.3357 11.1276 42.5659 11.9752 43.6809 12.0724C44.2526 12.1047 44.8253 12.1104 45.3971 12.0628C44.711 13.6209 43.9667 15.1352 43.1949 16.6552C42.5087 18.0266 41.7073 19.3924 41.0498 20.7581C40.3351 20.6714 39.5908 20.7219 38.8475 20.8524C36.874 21.199 34.4993 22.2028 34.4993 24.4381C34.4993 26.0885 36.1583 26.4085 37.7031 26.1371C39.1334 25.8857 40.9926 25.2124 42.0513 24.0419C44.4537 24.5771 46.4558 25.5562 49.2022 25.0733C49.5738 25.0076 49.9741 24.9114 50.3467 24.7924L53.8935 21.9066L53.8364 21.8104C52.8644 22.1409 51.8914 22.4466 50.9184 22.6171ZM54.7798 3.76092C55.4945 3.63521 55.7813 4.06378 55.7813 4.67616C55.7813 6.35235 53.5505 8.02283 52.0058 8.58664C51.434 8.7933 50.8327 8.97902 50.2609 9.1333C51.0328 7.66664 52.9492 4.08283 54.7798 3.76092ZM37.3028 25.1981C37.1199 25.2304 36.853 25.2733 36.6005 25.2724C36.2222 25.2724 35.8725 25.1771 35.8725 24.8104C35.8725 24.039 37.1885 23.4076 37.846 23.2924C38.4464 23.1866 39.0762 23.3152 39.648 23.4009C39.1906 24.1466 38.1891 25.0419 37.3028 25.1981Z" fill="#D22027"/>
<path d="M79.2923 2.40382C77.6618 2.70572 76.0399 3.04191 74.4171 3.39334C74.4419 3.34477 74.4657 3.2962 74.4866 3.24858C73.2993 3.46858 72.1167 3.70763 70.9341 3.9562C71.2609 3.28667 71.6583 2.6381 71.9404 1.96667C70.8817 2.15334 69.8811 2.51525 68.851 2.88287C68.6013 3.43715 68.3306 4.01429 68.0562 4.5781C67.3787 4.72763 66.6992 4.87906 66.0198 5.03048C66.3628 4.2781 66.8202 3.55906 67.1357 2.81144C66.0769 2.99715 65.0764 3.36001 64.0462 3.72763C63.7603 4.36382 63.4459 5.03048 63.1304 5.67144C61.6143 6.15144 60.1268 6.78572 58.6402 7.34001C58.4401 7.58763 58.24 7.88953 58.2114 8.18763C59.2987 7.9162 60.3564 7.62382 61.4437 7.43239L62.4157 7.26096C61.7649 8.68287 60.4975 11.2838 59.5865 13.6095C59.5579 13.6162 59.5283 13.6238 59.4988 13.6286C59.1843 13.6838 58.8698 13.58 58.6402 13.4067C58.9261 12.6648 59.0404 11.66 59.0404 10.9143C59.0404 9.98477 58.8575 9.10953 57.833 9.10953C57.713 9.10953 57.5815 9.12191 57.4385 9.14667C56.8096 9.25715 56.1797 9.63429 55.7795 10.1572C52.6614 11.3972 49.7435 15.7962 49.7435 18.7505C49.7435 20.0543 50.1724 21.3895 51.8314 21.0981C54.7779 20.58 56.9516 16.8972 58.0961 14.5133C58.4668 14.5714 58.8374 14.6057 59.231 14.5505C58.8089 15.7305 58.5249 16.7772 58.5249 17.4724C58.5249 18.2705 58.7822 19.6629 59.8981 19.4667C60.771 19.3133 62.0946 17.9067 63.3468 16.3324C63.3372 16.4362 63.3306 16.5352 63.3306 16.6276C63.3306 17.4257 63.5879 18.8181 64.7038 18.6219C66.4772 18.3105 70.1098 12.8276 71.2257 11.2743L70.7111 10.7524C70.0536 11.6133 67.5931 15.3467 66.6782 15.5067C66.4495 15.5467 66.3924 15.3705 66.3924 15.1848C66.3924 14.3105 69.4542 7.41048 70.0459 6.0162C70.2241 5.98382 70.4023 5.95239 70.5805 5.92096C71.1361 5.83906 71.6907 5.74763 72.2453 5.64953C72.4207 5.62382 72.596 5.5962 72.7713 5.57239C72.778 5.56572 72.7847 5.5581 72.7904 5.55144C74.3837 5.26096 75.9742 4.94096 77.5761 4.72667C78.1764 4.08858 78.9493 3.15429 79.2923 2.40191V2.40382ZM54.4072 18.4638C54.1499 18.6686 53.864 18.8791 53.5496 18.9343C53.5 18.9429 53.4524 18.9476 53.4076 18.9476C52.7062 18.9476 52.6052 17.9229 52.6052 17.3972C52.6052 15.8533 54.1499 13.32 55.4374 12.2152L55.4945 12.2314C55.2944 13.3048 56.0949 14.3876 57.2394 14.4C56.5532 15.9581 55.8376 17.3076 54.4072 18.4648V18.4638ZM63.7613 14.5276C63.0228 15.4695 62.289 16.2791 61.8735 16.3524C61.6448 16.3924 61.5876 16.2162 61.5876 16.0305C61.5876 15.1524 64.6771 8.19525 65.2488 6.84382C65.8883 6.7581 66.5267 6.6562 67.1633 6.54572C66.3152 8.38667 64.5703 11.96 63.7622 14.5286L63.7613 14.5276Z" fill="#D22027"/>
<path d="M4.63792 35.4895C5.55274 35.3286 8.01324 31.5962 8.49924 30.7648C8.82705 30.2019 9.12913 29.6295 9.41692 29.0515C9.22157 29.4257 9.01859 29.7972 8.80513 30.1638C8.31913 30.9943 5.85864 34.7276 4.94382 34.8886C4.34346 34.9943 4.02804 34.5972 4.02804 34.0915C4.02804 33.5591 4.25674 32.9867 4.48545 32.4676C4.53786 32.3486 4.59409 32.2267 4.65221 32.1048C4.47497 32.4343 4.31583 32.7572 4.1786 33.0686C3.9499 33.5876 3.72119 34.16 3.72119 34.6924C3.72119 35.1981 4.03662 35.5953 4.63792 35.4895Z" fill="#F26822"/>
<path d="M9.74662 22.98L10.2641 22.5095L10.2069 22.36C8.63359 22.5838 7.80453 21.9838 7.80453 20.52C7.80453 19.8143 8.02942 19.0076 8.41441 18.18C7.84455 19.2133 7.49768 20.2448 7.49768 21.12C7.49768 22.5352 8.27338 23.1419 9.74567 22.979" fill="#F26822"/>
<path d="M9.78675 24.7638C10.53 24.2076 11.2743 23.6505 11.989 23.0724C12.0776 22.8819 12.1682 22.6915 12.2577 22.501C11.5535 23.0686 10.8236 23.6162 10.0926 24.1629C7.60452 25.9934 4.35594 29.3457 2.81885 32.5591C4.45028 29.5353 7.453 26.48 9.78675 24.7638Z" fill="#F26822"/>
<path d="M17.3673 10.6295C18.8549 10.3676 20.3138 10.7495 20.3138 12.32C20.3138 12.7991 20.1423 13.3086 19.9422 13.7962C18.8834 16.3238 17.6541 18.9095 16.4239 21.3876L18.8834 20.1029C18.7586 20.5391 18.5518 21.0467 18.3098 21.5486C18.6776 20.8657 19.013 20.1143 19.1893 19.5019L16.7298 20.7867C17.96 18.3086 19.1893 15.7229 20.2481 13.1953C20.4482 12.7076 20.6197 12.1981 20.6197 11.7191C20.6197 10.1486 19.1607 9.76668 17.6732 10.0286C13.323 10.7934 7.58632 14.9048 5.50891 19.3095C7.79978 15.1372 13.2153 11.36 17.3673 10.6295Z" fill="#F26822"/>
<path d="M24.6888 18.6295C24.6831 18.6286 24.6764 18.6267 24.6707 18.6257C24.6116 18.741 24.5525 18.8591 24.4944 18.98C24.5601 18.8581 24.624 18.741 24.6888 18.6295Z" fill="#F26822"/>
<path d="M20.3701 26.3086C21.1134 26.1781 21.972 25.3353 22.458 24.7705C22.4714 24.6686 22.4885 24.5629 22.5076 24.4543C22.0092 24.9829 21.3021 25.5981 20.676 25.7076C20.1328 25.8029 19.9327 25.3857 19.9327 24.96C19.9327 24.3314 20.3015 23.201 20.8676 22.0295C20.1319 23.401 19.6268 24.8257 19.6268 25.561C19.6268 25.9867 19.8269 26.4038 20.3701 26.3086Z" fill="#F26822"/>
<path d="M23.6597 17.7457C24.1742 17.6552 24.6898 17.6714 25.1472 17.8038L25.4903 17.2914L28.3157 16.5314C28.4415 16.2952 28.5568 16.0886 28.6569 15.921L25.7961 16.6905L25.4531 17.2029C24.9957 17.0705 24.4801 17.0543 23.9655 17.1448C21.5022 17.5781 18.9569 20.5029 17.6313 23.2667C19.0188 20.6943 21.3745 18.1476 23.6597 17.7457Z" fill="#F26822"/>
<path d="M25.6903 24.5209C25.9314 24.479 26.325 24.0752 26.77 23.5162C26.7967 23.4057 26.8272 23.2933 26.8586 23.18C26.5041 23.5981 26.1963 23.8847 25.9962 23.92C25.7103 23.9705 25.6532 23.6343 25.6532 23.4485C25.6532 22.3085 26.9377 19.279 27.924 17.2924C26.9225 19.2066 25.3463 22.7866 25.3463 24.0485C25.3463 24.2352 25.4035 24.5705 25.6894 24.52" fill="#F26822"/>
<path d="M32.4143 26.6695C33.007 25.5352 33.5264 24.3647 34.0619 23.2733C35.4199 20.5076 36.4805 17.6457 37.8585 14.8838C36.3271 17.8295 35.2131 20.9076 33.756 23.8743C33.3139 24.7743 32.8832 25.7276 32.4143 26.6695Z" fill="#F26822"/>
<path d="M27.5495 28.9314C28.2356 28.8105 28.8084 28.3905 29.2086 27.8143C29.6288 27.2038 29.99 26.5333 30.3245 25.8562C30.0767 26.3257 29.8099 26.7848 29.5145 27.2133C29.1142 27.7895 28.5415 28.2095 27.8554 28.3305C27.2551 28.4362 26.6823 28.2705 26.3679 27.8467L26.2821 27.9419L26.5546 28.8333C26.8443 28.961 27.1912 28.9943 27.5495 28.9314Z" fill="#F26822"/>
<path d="M35.0635 15.1133L34.8091 15.6914C35.824 15.2495 36.9713 14.7143 38.0386 14.5247C38.1415 14.3228 38.2463 14.1228 38.3531 13.9219C37.2658 14.1133 36.0936 14.6657 35.0635 15.1124" fill="#F26822"/>
<path d="M30.2664 23.5562C30.8668 23.4505 31.6682 22.5648 31.9541 22.0886C32.0694 21.8943 32.1742 21.6848 32.2714 21.4676C32.2676 21.4743 32.2638 21.481 32.26 21.4876C31.9741 21.9638 31.1727 22.8495 30.5723 22.9553C30.0863 23.041 29.9148 22.6181 29.9148 22.2457C29.9148 21.5695 30.4675 20.2629 31.1307 18.9333C30.3398 20.4562 29.6089 22.0686 29.6089 22.8467C29.6089 23.2191 29.7804 23.6419 30.2664 23.5562Z" fill="#F26822"/>
<path d="M32.7669 15.9086C32.9032 15.6714 33.0223 15.4629 33.1185 15.2962C32.0884 15.5572 31.002 15.961 30.0291 16.4514C29.6012 17.1095 29.0914 18.0067 28.6073 18.9838C28.9951 18.2429 29.3849 17.5724 29.7232 17.0524C30.6809 16.5695 31.7501 16.1705 32.7669 15.9086Z" fill="#F26822"/>
<path d="M36.996 25.7772C37.8823 25.621 38.8838 24.7267 39.3412 23.981C39.2964 23.9743 39.2516 23.9676 39.2059 23.96C38.6903 24.5315 37.9633 25.06 37.301 25.1762C36.8435 25.2562 35.8706 25.401 35.8706 24.7886C35.8706 24.7714 35.8725 24.7534 35.8735 24.7362C35.6867 24.9343 35.5647 25.1553 35.5647 25.3895C35.5647 26.0019 36.5367 25.8572 36.9951 25.7772" fill="#F26822"/>
<path d="M53.8354 21.7895C52.8634 22.12 51.8905 22.4248 50.9175 22.5952C49.4586 22.8514 48.6009 22.6571 47.2563 22.4676C46.0623 22.3076 45.1217 21.6552 43.9868 21.3486C43.8791 21.5476 43.7714 21.7457 43.6609 21.9438C44.8054 22.2486 45.7488 22.9076 46.9504 23.0686C48.295 23.2581 49.1527 23.4533 50.6116 23.1962C51.4388 23.0505 52.2659 22.8086 53.0931 22.5362L53.8917 21.8857L53.8354 21.7895Z" fill="#F26822"/>
<path d="M46.8875 15.8819C47.607 14.4876 48.2598 13.0781 48.9402 11.6714C48.9345 11.6734 48.9297 11.6753 48.924 11.6762C48.236 13.0781 47.5889 14.4867 46.8875 15.8819Z" fill="#F26822"/>
<path d="M43.4036 7.29807C43.3464 7.44093 43.3464 7.57426 43.3464 7.7076C43.3464 8.55903 44.0039 9.80093 44.8625 10.0228C45.3199 10.1285 45.7774 10.1809 46.2643 10.2019C48.0091 6.86093 50.7555 2.99807 54.8455 2.27903C56.0758 2.06284 57.792 2.21331 57.792 3.62379C57.792 3.70379 57.7635 3.78855 57.7635 3.86855C57.7129 4.17522 57.6129 4.49236 57.4719 4.81331C57.7768 4.28569 57.9874 3.76379 58.0693 3.2676C58.0693 3.1876 58.0979 3.10284 58.0979 3.02284C58.0979 1.61236 56.3817 1.46188 55.1514 1.67807C51.0614 2.39712 48.315 6.25998 46.5702 9.60093C46.0842 9.57998 45.6258 9.5276 45.1684 9.42188C44.3098 9.19998 43.6523 7.95807 43.6523 7.10665C43.6523 6.97331 43.6523 6.83998 43.7095 6.69712L43.5665 6.6695L41.3357 9.8295V9.96284C41.3357 9.97426 41.3357 9.98474 41.3366 9.99522L43.2606 7.27045L43.4036 7.29807Z" fill="#F26822"/>
<path d="M42.9395 17.1352C42.3754 18.2229 41.7598 19.3067 41.2195 20.3905C41.7655 19.34 42.3602 18.2895 42.8881 17.2352C42.9052 17.2019 42.9224 17.1676 42.9395 17.1343" fill="#F26822"/>
<path d="M55.3249 6.02856C54.5921 7.17428 53.1198 8.15809 52.0048 8.56571C51.4378 8.77047 50.8441 8.95428 50.2771 9.10761C50.1542 9.33333 50.0465 9.53809 49.9541 9.71333C50.5259 9.55999 51.1272 9.37428 51.6989 9.16666C53.0045 8.68952 54.8008 7.42095 55.3249 6.02856Z" fill="#F26822"/>
<path d="M38.5408 21.4333C39.2841 21.3028 40.0283 21.2514 40.743 21.339C40.8393 21.1381 40.9394 20.9381 41.0413 20.7381C40.3285 20.6524 39.5871 20.7028 38.8467 20.8333C37.18 21.1267 35.2284 21.8867 34.6614 23.4628C35.4504 22.2895 37.1019 21.6876 38.5408 21.4343" fill="#F26822"/>
<path d="M55.4746 10.7371C55.8748 10.2143 56.5047 9.83711 57.1336 9.72663C58.5068 9.48473 58.7355 10.4562 58.7355 11.4943C58.7355 12.239 58.6212 13.2447 58.3353 13.9866C58.564 14.159 58.8785 14.2638 59.1939 14.2085C59.2234 14.2038 59.252 14.1962 59.2816 14.1895C59.3578 13.9962 59.436 13.8009 59.516 13.6047C59.5112 13.6047 59.5055 13.6076 59.5007 13.6085C59.1863 13.6638 58.8718 13.559 58.6431 13.3866C58.929 12.6447 59.0433 11.64 59.0433 10.8943C59.0433 9.85616 58.8146 8.88568 57.4414 9.12663C56.8125 9.23711 56.1826 9.61425 55.7824 10.1371C53.6811 10.9733 51.6704 13.2438 50.5831 15.54C51.7171 13.4581 53.5582 11.5009 55.4765 10.7381" fill="#F26822"/>
<path d="M57.6558 15.3705C57.7044 15.2771 57.753 15.1848 57.7987 15.0943C57.7958 15.0943 57.793 15.0943 57.7911 15.0933C57.7472 15.1838 57.7025 15.2771 57.6558 15.3705Z" fill="#F26822"/>
<path d="M53.2427 19.5133C53.5572 19.4581 53.8431 19.2476 54.1013 19.0429C55.2801 18.0895 55.9729 17.0048 56.5647 15.781C56.0348 16.7629 55.3897 17.6476 54.4072 18.4419C54.1499 18.6467 53.864 18.8572 53.5486 18.9124C52.7195 19.0581 52.6042 17.9343 52.6042 17.3753C52.6042 16.7943 52.8225 16.0733 53.1646 15.3419C52.6538 16.2695 52.2983 17.2362 52.2983 17.9762C52.2983 18.5353 52.4127 19.6591 53.2427 19.5133Z" fill="#F26822"/>
<path d="M70.8254 4.16383C72.0261 3.89621 73.2221 3.62954 74.4171 3.37145C74.4419 3.32288 74.4657 3.2743 74.4866 3.22668C73.3002 3.44668 72.1186 3.68478 70.9379 3.93335C70.9255 3.95716 70.9131 3.98097 70.9007 4.00383C70.875 4.05716 70.8502 4.10954 70.8264 4.16287" fill="#F26822"/>
<path d="M67.9181 4.81047C67.9581 4.72762 67.9972 4.64381 68.0372 4.56C67.3663 4.70857 66.6935 4.85809 66.0198 5.00857C66.0446 4.95524 66.0694 4.9019 66.0941 4.84952C65.9636 5.09619 65.8349 5.34381 65.7206 5.59524C66.4486 5.31524 67.1795 5.04476 67.9181 4.81047Z" fill="#F26822"/>
<path d="M61.8725 16.3305C61.6438 16.3705 61.5867 16.1943 61.5867 16.0086C61.5867 15.2219 64.0643 9.55998 64.9925 7.41522C64.9753 7.41713 64.9582 7.41998 64.942 7.42189C64.3702 8.77332 61.2808 15.7305 61.2808 16.6086C61.2808 16.7952 61.3379 16.9714 61.5666 16.9305C61.9821 16.8571 62.7149 16.0495 63.4535 15.1076C63.4916 14.9876 63.5307 14.8667 63.5726 14.7428C62.8998 15.58 62.2528 16.2628 61.8725 16.3305Z" fill="#F26822"/>
<path d="M66.6658 3.75241C66.8355 3.43336 66.9994 3.11431 67.1356 2.78955C66.0769 2.97527 65.0763 3.33812 64.0462 3.70574C63.9595 3.89907 63.8689 4.09527 63.7775 4.29336C64.7943 3.9305 65.7834 3.57431 66.8297 3.3905C66.7783 3.51146 66.724 3.63241 66.6658 3.75241Z" fill="#F26822"/>
<path d="M62.8255 6.25045C62.9218 6.05426 63.018 5.85521 63.1133 5.65521C61.6039 6.13426 60.122 6.76569 58.6402 7.31807C58.4649 7.53521 58.2895 7.79426 58.2295 8.05426C58.2638 8.00759 58.2991 7.96188 58.3343 7.91807C59.8219 7.36378 61.3094 6.7295 62.8255 6.2495" fill="#F26822"/>
<path d="M66.0856 15.7638C66.0856 15.9505 66.1428 16.1267 66.3715 16.0857C67.2872 15.9248 69.7468 12.1924 70.4043 11.3314L70.8503 11.7829C70.9951 11.5762 71.1209 11.3972 71.2248 11.2514L70.7102 10.7295C70.0527 11.5905 67.5922 15.3229 66.6773 15.4838C66.4486 15.5238 66.3915 15.3476 66.3915 15.1619C66.3915 14.3772 68.8567 8.74192 69.7906 6.58478C69.7735 6.58763 69.7563 6.59144 69.7391 6.5943C69.1483 7.98763 66.0856 14.8895 66.0856 15.7638Z" fill="#F26822"/>
<path d="M71.4715 2.90762C71.6411 2.58857 71.805 2.26953 71.9413 1.94476C70.8826 2.13143 69.882 2.49333 68.8519 2.86095C68.7651 3.05429 68.6746 3.25048 68.5831 3.44857C69.5999 3.08572 70.5891 2.72953 71.6354 2.54572C71.5839 2.66667 71.5296 2.78762 71.4715 2.90762Z" fill="#F26822"/>
<path d="M70.8998 4.0038C70.8064 4.17999 70.7149 4.35618 70.6282 4.53428C71.8098 4.28571 72.9934 4.04666 74.1807 3.82666C74.1588 3.87428 74.136 3.9219 74.1112 3.97142C75.7226 3.62285 77.3331 3.28856 78.9531 2.98856C79.0874 2.77999 79.2037 2.57428 79.2923 2.3819C77.6618 2.6838 76.0399 3.01999 74.4171 3.37142C73.2221 3.62952 72.0261 3.89618 70.8254 4.1638C70.8502 4.11047 70.875 4.05618 70.8998 4.0038Z" fill="#F26822"/>
<path d="M65.7139 5.60953C66.3943 5.4581 67.0728 5.30668 67.7513 5.15715C67.8075 5.04191 67.8628 4.92668 67.918 4.81049C67.1795 5.04477 66.4486 5.31525 65.7205 5.59525C65.7186 5.60001 65.7158 5.60477 65.7139 5.60953Z" fill="#F26822"/>
<path d="M72.4645 6.15145C72.4711 6.14478 72.4769 6.13716 72.4835 6.13049C72.3377 6.15716 72.191 6.18383 72.0452 6.20954C72.1852 6.18954 72.3244 6.17049 72.4645 6.15145Z" fill="#F26822"/>
<path d="M70.6282 4.53428C70.591 4.61047 70.5548 4.68666 70.5195 4.7638C71.7202 4.49618 72.9162 4.22952 74.1112 3.97142C74.1359 3.92285 74.1598 3.87428 74.1807 3.82666C72.9924 4.04666 71.8098 4.28571 70.6282 4.53428Z" fill="#F26822"/>
<path d="M69.7468 6.57616C69.7439 6.58188 69.741 6.58854 69.7391 6.59521C69.7563 6.59235 69.7734 6.58854 69.7906 6.58569C69.9164 6.56283 70.0412 6.53997 70.167 6.51807C70.0269 6.53807 69.8868 6.55711 69.7468 6.57616Z" fill="#F26822"/>
</g>
<defs>
<clipPath id="clip0_50_9783">
<rect width="81" height="40" fill="white"/>
</clipPath>
</defs>
</svg>
