<svg width="44" height="40" viewBox="0 0 44 40" fill="none" xmlns="http://www.w3.org/2000/svg">
<path d="M0 0H24C35.0457 0 44 8.95431 44 20C44 31.0457 35.0457 40 24 40H0V0Z" fill="black"/>
<path d="M19.9996 14.0928C19.9996 13.2221 18.964 12.7674 18.3229 13.3564L12.9821 18.2637C12.5509 18.6599 12.5509 19.3401 12.9821 19.7363L18.3229 24.6445C18.9639 25.233 19.9993 24.7784 19.9996 23.9082V22.0049C22.2778 22.0409 23.5493 22.267 24.3405 22.627C25.1381 22.9899 25.4964 23.5098 25.9449 24.3848C26.3169 25.1102 27.3378 24.7739 27.3307 24.042C27.3023 21.2879 26.8644 19.21 25.5446 17.8496C24.3245 16.5924 22.4857 16.0835 19.9996 16.0098V14.0928Z" fill="white"/>
</svg>
