<svg preserveAspectRatio="none" width="100%" height="100%" overflow="visible" style="display: block;" viewBox="0 0 21 20" fill="none" xmlns="http://www.w3.org/2000/svg">
<path id="Icon" d="M19.8661 15.8486C20.4516 16.4344 20.4516 17.3841 19.8661 17.9697L18.8055 19.0303C18.2198 19.6161 17.2692 19.6161 16.6834 19.0303L9.99497 12.3408L13.1766 9.15918L19.8661 15.8486ZM12.9217 0C13.452 0.000103707 13.9608 0.21095 14.3358 0.585938L15.3358 1.58594C16.1165 2.36693 16.1166 3.63308 15.3358 4.41406L6.24985 13.5C5.46889 14.2809 4.20278 14.2808 3.42173 13.5L0.585788 10.6641C-0.195263 9.88296 -0.195263 8.61697 0.585788 7.83594L7.83579 0.585938C8.21085 0.210913 8.7195 0 9.24985 0H12.9217Z" fill="var(--fill-0, black)"/>
</svg>
