<svg width="48" height="48" viewBox="0 0 48 48" fill="none" xmlns="http://www.w3.org/2000/svg">
<path d="M42.0601 35.6973C43.2317 36.8689 43.2317 38.7681 42.0601 39.9395L39.939 42.0605C38.7676 43.2321 36.8684 43.2321 35.6968 42.0605L22.3179 28.6826L28.6821 22.3184L42.0601 35.6973ZM28.1714 4C29.2322 4 30.2493 4.42172 30.9995 5.17188L32.9995 7.17188C34.5616 8.73397 34.5616 11.2661 32.9995 12.8281L14.8276 31C13.2656 32.5617 10.7334 32.5619 9.17139 31L3.49951 25.3281C1.93775 23.766 1.93777 21.2339 3.49951 19.6719L17.9995 5.17188C18.7496 4.42181 19.767 4.0001 20.8276 4H28.1714Z" fill="black"/>
</svg>
