<svg width="24" height="24" viewBox="0 0 24 24" fill="none" xmlns="http://www.w3.org/2000/svg">
<path d="M11.0698 16.335C11.1729 16.3443 11.2781 16.3654 11.3774 16.3936C11.7823 16.5585 11.9945 16.7176 11.9927 17.1992V18.793C11.9927 22.2542 11.9942 22.3633 11.936 22.5283C11.8216 22.802 11.5909 22.9691 11.3022 23.0234C10.3795 23.1882 7.57851 22.159 6.94482 21.499C6.83054 21.3341 6.77244 21.2235 6.71436 21.0605C6.71436 20.9499 6.71487 20.8411 6.77295 20.7305C6.83107 20.5655 6.94476 20.3999 9.53955 17.4883L10.2896 16.6104C10.462 16.363 10.7605 16.3013 11.0698 16.335ZM14.9253 15.3711C15.0246 15.3786 15.1258 15.3977 15.2251 15.4258L16.7026 15.8945C19.9331 16.8976 20.1732 16.9372 20.2876 17.0479C20.52 17.3215 20.6348 17.5974 20.5767 17.8711C20.4619 18.7506 18.6583 20.9345 17.7358 21.2646C17.4471 21.3753 17.1579 21.3736 16.9272 21.1543C16.7547 21.0437 16.7441 20.8799 14.6685 17.6924L14.0347 16.7607C13.804 16.4307 13.9447 15.8548 14.1304 15.6523C14.3441 15.4239 14.6254 15.3486 14.9253 15.3711ZM4.50732 11.5049C4.67982 11.5049 4.60686 11.5111 8.35498 12.9961L9.44971 13.4346C9.85283 13.5996 10.0669 13.9636 10.0669 14.4023C10.0667 14.8409 9.78535 15.116 9.38232 15.2266L7.82471 15.7217C4.36533 16.7098 4.49623 16.7607 4.32373 16.7607C4.03511 16.7607 3.8048 16.5957 3.63232 16.3203C3.51795 16.1009 3.459 15.7877 3.40088 15.4033C3.2865 14.1939 3.41084 12.4409 3.81396 11.8896C3.9883 11.616 4.27673 11.5049 4.50732 11.5049ZM17.5874 7.67969C17.7243 7.67219 17.8688 7.70051 18.0132 7.75488C18.8194 8.13926 20.5239 10.5004 20.6401 11.3779V11.4316C20.6401 11.7615 20.524 11.9815 20.2954 12.1465C20.121 12.2552 20.0849 12.2495 16.1099 13.127C15.4781 13.2919 15.131 13.3461 14.9585 13.4023C14.5198 13.4866 14.2067 13.3124 13.9761 12.9824C13.7457 12.6526 13.6913 12.1937 13.9214 11.9199L14.9028 10.6572C16.974 7.91318 16.8468 8.16364 17.2065 7.80957C17.3209 7.72709 17.4524 7.68533 17.5874 7.67969ZM10.2427 0.963867C10.4338 0.956371 10.5954 0.964016 10.7173 0.990234C11.064 1.04646 11.2368 1.26742 11.353 1.54102C11.4093 1.87101 11.8711 8.40752 11.9292 9.89258C12.0435 11.21 11.4682 11.4173 11.2954 11.4736C11.121 11.528 10.7607 11.6495 10.0688 10.5508C10.0688 10.5508 5.40055 3.46725 5.28369 3.24414C5.22559 3.02487 5.28382 2.69496 5.51416 2.47559C6.11972 1.85128 8.90001 1.01466 10.2427 0.963867Z" fill="white"/>
</svg>
