<svg width="16" height="16" viewBox="0 0 16 16" fill="none" xmlns="http://www.w3.org/2000/svg">
<g opacity="0.2">
<path fill-rule="evenodd" clip-rule="evenodd" d="M14.667 4.37891V11.6211C14.667 11.7893 14.6673 11.9537 14.6556 12.0925C14.6431 12.2448 14.6136 12.4247 14.5215 12.6055C14.3937 12.8563 14.1897 13.0603 13.9388 13.1882C13.758 13.2803 13.5781 13.3098 13.4258 13.3223C13.2871 13.3336 13.1227 13.3333 12.9544 13.3333H3.04557C2.87732 13.3333 2.71299 13.3336 2.57422 13.3223C2.42188 13.3098 2.24204 13.2803 2.0612 13.1882C1.81037 13.0603 1.60634 12.8563 1.47852 12.6055C1.38639 12.4247 1.35687 12.2448 1.34441 12.0925C1.33307 11.9537 1.33332 11.7893 1.33334 11.6211V4.37891C1.33333 4.27456 1.33325 4.17156 1.33594 4.07552L7.15561 8.83727C7.64681 9.23907 8.35319 9.23907 8.84439 8.83727L14.6641 4.07552C14.6667 4.17156 14.6667 4.27458 14.667 4.37891ZM12.9544 2.66667C13.1227 2.66665 13.2871 2.6664 13.4258 2.67774C13.5781 2.69021 13.758 2.71971 13.9388 2.81185C13.972 2.82876 14.0043 2.84704 14.0358 2.86654L8 7.80533L1.96419 2.86654C1.99567 2.84703 2.02802 2.82876 2.0612 2.81185C2.24205 2.71971 2.42188 2.69021 2.57422 2.67774C2.71299 2.6664 2.87732 2.66665 3.04557 2.66667H12.9544Z" fill="black"/>
</g>
</svg>
