<svg width="24" height="24" viewBox="0 0 24 24" fill="none" xmlns="http://www.w3.org/2000/svg">
<g opacity="0.2">
<path fill-rule="evenodd" clip-rule="evenodd" d="M22 6.56836V17.4316C22 17.6839 22.0004 17.9306 21.9834 18.1387C21.9647 18.3672 21.9204 18.637 21.7822 18.9082C21.5905 19.2845 21.2845 19.5905 20.9082 19.7822C20.637 19.9204 20.3672 19.9647 20.1387 19.9834C19.9306 20.0004 19.684 20 19.4316 20H4.56836C4.31598 20 4.06949 20.0004 3.86133 19.9834C3.63283 19.9647 3.36306 19.9204 3.0918 19.7822C2.71555 19.5905 2.40951 19.2844 2.21778 18.9082C2.07958 18.637 2.03531 18.3672 2.01661 18.1387C1.9996 17.9306 1.99998 17.684 2.00001 17.4316V6.56836C1.99999 6.41184 1.99987 6.25734 2.00391 6.11329L10.7334 13.2559C11.4702 13.8586 12.5298 13.8586 13.2666 13.2559L21.9961 6.11329C22.0001 6.25734 22 6.41187 22 6.56836ZM19.4316 4.00001C19.684 3.99998 19.9306 3.9996 20.1387 4.01661C20.3672 4.03531 20.637 4.07957 20.9082 4.21778C20.958 4.24314 21.0065 4.27056 21.0537 4.29981L12 11.708L2.94629 4.29981C2.9935 4.27055 3.04203 4.24314 3.0918 4.21778C3.36307 4.07956 3.63282 4.03531 3.86133 4.01661C4.06948 3.9996 4.31598 3.99998 4.56836 4.00001H19.4316Z" fill="white"/>
</g>
</svg>
