<svg width="24" height="24" viewBox="0 0 24 24" fill="none" xmlns="http://www.w3.org/2000/svg">
<path d="M17.873 20L18.4004 21.5996H15.0527L14.5732 23.2002H9.45801L8.95215 21.5996H5.59961L6.12695 20H17.873ZM9.89746 10.3652C9.89746 10.3652 9.40349 10.6949 10.0254 11.2627C11.291 12.4171 14.022 13.3955 13.9844 15.4531C13.9722 16.0906 13.6291 16.9591 13.2324 17.4551C12.7934 18.0044 12.1335 18.8832 12.0234 19.1221L11.5283 18.9209C11.5283 18.9209 11.8397 18.39 11.5107 18.042C11.1803 17.694 9.57742 16.6169 8.93262 16.1553C6.12951 14.1489 7.846 11.9404 9.47559 10.0908L9.89746 10.3652ZM12.2061 1.07617C12.1967 1.09804 11.737 2.18125 12.4268 2.76172C13.6682 3.62485 14.8643 4.5543 16.0938 5.43262C18.5088 7.15892 19.1087 9.29653 17.5059 11.5508C16.8043 12.5363 16.1159 13.5293 15.4023 14.5068C15.2272 14.7468 15.0366 14.9765 14.8662 15.2197L14.5508 14.9629C14.5508 14.9629 15.1352 14.276 14.8809 13.0576C14.6857 12.1225 11.9131 10.6761 10.3379 9.28418C8.76269 7.89218 8.83629 6.51804 9.05469 5.29004C9.28396 4.01062 11.8968 0.84001 11.9131 0.820312L12.2061 1.07617Z" fill="white"/>
</svg>
