<svg width="24" height="24" viewBox="0 0 24 24" fill="none" xmlns="http://www.w3.org/2000/svg">
<path d="M16.793 5.79305C17.1835 5.40253 17.8165 5.40253 18.207 5.79305C18.5974 6.18359 18.5975 6.81663 18.207 7.20711L13.4141 12.0001L18.207 16.793C18.5974 17.1836 18.5975 17.8166 18.207 18.2071C17.8166 18.5976 17.1835 18.5975 16.793 18.2071L12 13.4141L7.20703 18.2071C6.81654 18.5976 6.18351 18.5975 5.79297 18.2071C5.40246 17.8165 5.40247 17.1835 5.79297 16.793L10.5859 12.0001L5.79297 7.20711C5.40246 6.81659 5.40247 6.18358 5.79297 5.79305C6.1835 5.40253 6.8165 5.40253 7.20703 5.79305L12 10.586L16.793 5.79305Z" fill="#6A6C6E"/>
</svg>
