<svg width="16" height="16" viewBox="0 0 16 16" fill="none" xmlns="http://www.w3.org/2000/svg">
<g opacity="0.2">
<path d="M5.36963 2C5.95844 2 6.47778 2.38622 6.64697 2.9502L7.18994 4.76074C7.33064 5.23028 7.20236 5.73919 6.85596 6.08594L6.35596 6.58594C7.07528 7.8634 8.13615 8.92327 9.41357 9.64258L9.9126 9.14355C10.2594 8.79675 10.7689 8.66864 11.2388 8.80957L13.0483 9.35254C13.6122 9.5217 13.9983 10.0403 13.9985 10.6289V12.667C13.9984 13.3923 13.4021 14.0264 12.6245 13.9785C6.92871 13.6272 2.3723 9.0698 2.021 3.37402C1.9733 2.59657 2.60729 2 3.33252 2H5.36963Z" fill="black"/>
</g>
</svg>
