<svg width="160" height="88" viewBox="0 0 160 88" fill="none" xmlns="http://www.w3.org/2000/svg">
<g clip-path="url(#clip0_172_319)">
<path d="M42.1686 73.2499C41.5371 74.4954 40.8529 75.4594 39.7955 76.3193C39.7521 76.3534 39.7144 76.3836 39.6786 76.4101C39.6654 76.2985 39.656 76.1662 39.656 76.015C39.656 75.1343 40.344 73.626 41.2242 72.3766C41.2619 72.4277 41.3015 72.4787 41.343 72.5297C41.5805 72.8189 41.8594 73.059 42.1686 73.2499ZM53.9001 76.1303C54.7652 75.0738 55.5964 73.7866 56.3806 72.2897C55.6341 74.2006 54.4994 76.9847 53.8341 77.6726C53.5476 77.9713 53.2045 78.1716 52.8935 78.2264C52.8068 78.2416 52.7182 78.2491 52.6296 78.2491C52.2998 78.2491 52.0698 78.1433 51.9718 78.0506C52.6296 77.5328 53.2743 76.8939 53.9001 76.1303ZM53.1612 71.3088C52.5297 72.5524 51.8455 73.5183 50.7881 74.3782C50.7448 74.4123 50.7071 74.4425 50.6712 74.469C50.6581 74.3574 50.6486 74.2251 50.6486 74.0739C50.6486 73.1932 51.3366 71.6849 52.2169 70.4355C52.2546 70.4866 52.2941 70.5376 52.3356 70.5886C52.5731 70.8778 52.8521 71.1179 53.1612 71.3088ZM86.2635 67.0296C86.1579 67.1941 85.894 67.4738 85.6113 67.7327C85.7903 66.8879 86.239 65.699 86.9364 64.5347C87.204 64.0887 87.4849 63.6861 87.7732 63.3345C87.7619 63.3629 87.7487 63.3912 87.7374 63.4177C87.6017 63.7277 87.4321 64.1832 87.2342 64.7086C86.9741 65.4042 86.4896 66.697 86.2861 66.9975C86.2785 67.0088 86.2691 67.0183 86.2635 67.0296ZM29.8942 62.8412C30.3353 62.7637 30.7631 62.724 31.1665 62.724C33.1343 62.724 34.1314 63.5311 34.1314 65.1244C34.1314 67.7724 31.3286 69.8969 30.1242 70.6869C29.3664 71.184 28.5088 71.7057 27.6324 72.0364L31.3569 64.5687C31.5623 64.1548 31.5152 63.6596 31.2325 63.2929C31.0025 62.9943 30.65 62.8261 30.2825 62.8261C30.1996 62.8261 30.1166 62.8355 30.0337 62.8526C29.3928 62.9886 28.7237 63.1701 28.0414 63.3893C28.6766 63.1304 29.2873 62.9471 29.8942 62.8412ZM94.5494 56.6002C94.4231 56.6002 94.2949 56.621 94.1705 56.6626L90.6175 57.8476C90.3555 57.9346 90.1331 58.1104 89.9842 58.3428C89.8862 58.3372 89.7882 58.3353 89.6883 58.3353C89.3565 58.3353 89.0229 58.3636 88.695 58.4222C85.747 58.942 83.3777 61.8451 82.2279 63.5273C81.9961 63.8656 81.7774 64.2077 81.572 64.5517C82.3768 62.8601 82.8311 61.83 82.8311 61.0456C82.8311 60.076 82.1488 59.371 81.2082 59.371C81.0857 59.371 80.9556 59.3824 80.8256 59.4069C80.3129 59.4977 79.4967 59.7585 78.0397 60.8661C78.0133 60.662 77.9342 60.4654 77.806 60.2953C77.576 59.991 77.2198 59.8171 76.8485 59.8171C76.7712 59.8171 76.692 59.8247 76.6129 59.8398C75.367 60.0893 74.0532 60.4748 72.4812 61.0532C72.2041 61.1553 71.9779 61.3537 71.8385 61.6127C71.6274 61.4482 71.3672 61.3594 71.1015 61.3594C70.9978 61.3594 70.8941 61.3726 70.7905 61.401C69.2807 61.8055 67.7954 62.2156 66.3421 62.6843C66.6758 62.0209 67.049 61.3159 67.4392 60.6412C67.9537 59.7528 68.3722 59.1386 68.702 58.7152C68.6002 59.0025 68.4721 59.3219 68.3137 59.6697C68.1177 60.1044 68.195 60.6147 68.5135 60.97C68.7454 61.229 69.0733 61.3707 69.4089 61.3707C69.5333 61.3707 69.6595 61.3518 69.7802 61.3121C70.9224 60.9379 71.9534 60.3577 72.9524 59.7963C73.1692 59.6753 73.3426 59.4882 73.45 59.2633C73.8666 58.3844 74.3642 57.05 74.3642 55.6911C74.3642 54.695 74.138 53.9295 73.6743 53.353C73.3068 52.8956 72.6094 52.3513 71.3654 52.3513C71.0751 52.3513 70.7603 52.3815 70.4286 52.4401C68.5211 52.7766 66.5137 54.128 64.4592 56.4547C61.9994 59.2161 60.6046 62.4178 59.255 65.5138C59.2418 65.5421 59.2305 65.5705 59.2173 65.5988C59.1099 65.6518 59.0005 65.7028 58.8874 65.7576C58.633 65.8805 58.371 66.0071 58.109 66.1375C58.0751 65.4703 57.9544 64.9468 57.7301 64.5139C57.2985 63.6785 56.5125 63.2192 55.5173 63.2192C55.3062 63.2192 55.0819 63.24 54.85 63.2816C53.9302 63.4441 53.0349 63.9469 52.3997 64.6481C50.5789 65.4627 48.7298 67.1109 47.2822 69.2183C47.2106 69.3223 47.1409 69.4281 47.073 69.5321C47.1183 69.0463 47.1258 68.6551 47.1258 68.4661C47.1258 67.608 47.0014 66.9691 46.7356 66.455C46.304 65.6196 45.518 65.1603 44.5228 65.1603C44.3117 65.1603 44.0874 65.1811 43.8555 65.2227C42.9357 65.3853 42.0404 65.888 41.4033 66.5892C39.5844 67.4039 37.7334 69.052 36.2858 71.1594C34.7874 73.3406 33.9279 75.6881 33.9279 77.597C33.9279 78.6007 34.1107 79.4399 34.4726 80.09C35.0079 81.0521 35.9221 81.5832 37.0454 81.5832C37.2735 81.5832 37.5148 81.5605 37.7617 81.5171C37.9483 81.4849 38.133 81.4396 38.3177 81.3885C37.5506 82.033 36.9814 82.4961 36.1841 82.636C36.0974 82.6511 36.0144 82.6587 35.9371 82.6587C35.3227 82.6587 34.9193 82.0387 34.3765 81.0918C34.3746 81.088 34.3708 81.0823 34.3689 81.0786C33.6659 79.8916 33.0815 78.6517 32.4614 77.3381C32.0072 76.376 31.5416 75.3894 31.0233 74.4217C33.8694 72.5657 41.277 67.2375 41.277 62.0852C41.277 60.1327 40.3383 59.0308 39.5523 58.4506C38.625 57.7664 37.364 57.4054 35.907 57.4054C35.3509 57.4054 34.7742 57.4583 34.1899 57.5603C31.1514 58.0971 26.6277 60.1687 22.9315 62.7146C20.8298 64.1624 19.1429 65.6537 17.9177 67.1468C16.4192 68.9707 15.6615 70.7531 15.6615 72.4447C15.6615 73.1213 15.816 73.7035 16.1233 74.1722C16.3155 74.4652 16.6247 74.6617 16.9715 74.7071C17.0242 74.7147 17.077 74.7185 17.1298 74.7185C17.422 74.7185 17.7085 74.6107 17.929 74.4123L21.7741 70.9704L15.4221 86.3367C15.2374 86.7866 15.3392 87.3026 15.6803 87.6466C15.9103 87.8772 16.2175 88.0019 16.5323 88.0019C16.685 88.0019 16.8395 87.9717 16.9865 87.9131C18.1778 87.4254 20.0778 86.4123 21.2539 85.4957C21.4085 85.3747 21.531 85.2178 21.612 85.0401L24.8371 77.8711C25.1782 78.4778 25.4591 79.1734 25.7494 79.8954C26.0717 80.6968 26.4034 81.5246 26.852 82.2958C28.0018 84.3125 29.5757 87.072 33.1814 87.072C33.6338 87.072 34.1145 87.0266 34.6102 86.9397C37.2735 86.469 38.8229 85.0987 40.6154 83.5111L40.6776 83.4563C41.1564 83.0329 41.2205 82.3052 40.8228 81.8043L40.3911 81.26C40.2177 81.0408 39.9727 80.8914 39.7031 80.8328C40.8114 80.245 41.8839 79.3227 42.9074 78.0714C43.6161 77.2058 44.3022 76.1852 44.9582 75.0209C44.9393 75.2363 44.9261 75.4461 44.9261 75.6521C44.9261 76.6558 45.109 77.495 45.4709 78.1452C46.0062 79.1072 46.9185 79.6383 48.0437 79.6383C48.2718 79.6383 48.5131 79.6156 48.7581 79.5722C49.1407 79.5041 49.5196 79.3964 49.8966 79.2527C49.9079 79.3113 49.9211 79.368 49.9418 79.4247L50.871 82.0822C50.9446 82.292 51.0727 82.4753 51.2443 82.6152C51.9115 83.1614 52.6994 83.4506 53.5212 83.4506C53.7266 83.4506 53.934 83.4317 54.1394 83.3958C55.702 83.1198 56.8499 81.9291 57.3946 81.243C57.4003 81.2373 57.404 81.2316 57.4097 81.2241C59.1608 78.9314 61.4094 73.7073 63.0493 69.8931C63.2962 69.3166 63.5205 68.7968 63.7222 68.3338C63.7731 68.3224 63.8239 68.3092 63.8767 68.2979C63.119 69.9006 62.4631 71.6282 62.4631 73.1724C62.4631 73.5579 62.514 74.3102 62.8476 75.0076C63.2717 75.8903 64.0294 76.3968 64.9285 76.3968C65.0717 76.3968 65.2206 76.3836 65.3677 76.3571C65.7296 76.2929 66.2046 76.1417 66.853 75.6937C67.049 75.8241 67.2789 75.896 67.5164 75.896C67.5975 75.896 67.6785 75.8884 67.7596 75.8714C68.8208 75.6503 69.946 75.2004 71.0148 74.5691C71.2089 74.4538 71.3672 74.2875 71.4709 74.0872C71.9723 73.1213 72.6056 72.0326 73.3049 71.0007C73.173 71.4732 73.09 71.9476 73.09 72.4126C73.09 73.832 73.9721 74.8243 75.2369 74.8243C75.3858 74.8243 75.5385 74.8111 75.6949 74.7827C76.3546 74.6655 77.446 74.2289 79.5778 72.0289C79.7116 72.4296 79.9171 72.7717 80.1904 73.0476C80.0584 73.1383 79.9435 73.2555 79.8549 73.3954L79.7889 73.4994C79.591 73.8112 79.5457 74.1968 79.6683 74.5446L80.5975 77.202C80.671 77.4118 80.7992 77.5951 80.9707 77.735C81.6417 78.285 82.4221 78.5761 83.2231 78.5761C83.4248 78.5761 83.6284 78.5572 83.832 78.5213C85.4077 78.2434 86.8987 76.9525 88.3858 74.5767C89.4904 72.8133 90.3442 70.8495 90.8531 69.6757L90.9022 69.5642C91.5449 68.0918 92.1443 66.576 92.7229 65.1112C93.6145 62.8563 94.5343 60.5259 95.6257 58.3334C95.8424 57.8987 95.7765 57.3751 95.4579 57.0066C95.2261 56.7382 94.8924 56.5907 94.5513 56.5907" fill="#010101"/>
<path d="M133.101 60.0099C133.039 60.0212 132.982 60.0269 132.931 60.0269C132.877 60.0269 132.841 60.0193 132.824 60.0156C132.809 59.9872 132.782 59.9059 132.782 59.7642C132.782 59.4523 133.15 58.1349 134.002 56.5057C134.377 55.7856 134.72 55.2507 135.008 54.8613C135.035 54.8991 135.063 54.935 135.093 54.9709C135.325 55.2374 135.657 55.3849 135.998 55.3849C136.107 55.3849 136.217 55.3697 136.326 55.3395C137.168 55.0995 138.429 54.4757 139.229 54.0561C138.571 55.0163 137.626 56.26 136.595 57.3789C134.59 59.5544 133.483 59.9456 133.101 60.0137M109.231 58.0707C109.095 58.0707 108.957 58.0933 108.822 58.1425C108.611 58.22 108.294 58.2653 107.977 58.2653C107.457 58.2653 107.122 58.1482 107.008 58.0763C106.946 57.8949 106.91 57.6492 106.91 57.3846C106.91 56.0124 107.825 53.956 109.24 52.1491C110.737 50.2382 112.499 48.9454 113.954 48.6883C114.039 48.6732 114.118 48.6657 114.19 48.6657C114.194 48.6657 114.197 48.6657 114.197 48.6657C114.105 49.7713 113.117 52.8748 111.065 57.4072C110.833 57.9176 110.603 58.4166 110.371 58.9042L110.348 58.8456C110.166 58.3655 109.711 58.0707 109.227 58.0707M142.763 57.2334C142.593 57.2334 142.414 57.2504 142.233 57.2806C141.528 57.4054 140.733 57.8212 140.013 58.3995C141.081 57.0822 141.901 55.8914 142.378 55.0881C142.669 54.5967 142.576 53.9673 142.154 53.5817L141.556 53.0355C141.334 52.8333 141.046 52.7218 140.748 52.7218C140.693 52.7218 140.639 52.7255 140.584 52.7331C140.542 52.7388 140.501 52.7463 140.461 52.7558C140.525 52.4364 140.586 52.0867 140.586 51.7162C140.586 50.5368 140.099 49.8488 139.69 49.4803C139.155 48.9983 138.441 48.7526 137.57 48.7526C137.272 48.7526 136.952 48.7828 136.62 48.8414C133.998 49.3045 131.71 51.599 130.581 52.9278C130.044 53.5591 129.544 54.23 129.097 54.9086C129.505 53.9787 129.727 53.3115 129.727 52.7633C129.727 51.7937 129.045 51.0906 128.104 51.0906C127.982 51.0906 127.851 51.102 127.721 51.1246C127.209 51.2154 126.393 51.4762 124.936 52.5838C124.909 52.3796 124.83 52.1831 124.702 52.013C124.472 51.7087 124.116 51.5348 123.744 51.5348C123.667 51.5348 123.588 51.5423 123.509 51.5575C122.263 51.807 120.951 52.1925 119.377 52.7709C119.279 52.8068 119.189 52.8559 119.104 52.9164C119.582 51.7427 120.054 50.5425 120.516 49.3121C120.849 48.4237 121.156 47.4636 121.156 46.4618C121.156 45.2333 120.634 44.5453 120.195 44.1824C119.665 43.7458 118.959 43.5228 118.092 43.5228C117.735 43.5228 117.343 43.5606 116.923 43.6343C113.464 44.2448 109.519 46.3654 106.369 49.3064C104.748 50.8203 103.454 52.4364 102.524 54.1091C101.48 55.984 100.952 57.8382 100.952 59.6186C100.952 60.8661 101.224 61.8829 101.761 62.639C102.227 63.2948 103.124 64.0754 104.758 64.0754C105.09 64.0754 105.446 64.0414 105.815 63.9771L106.115 63.9242C106.353 63.8826 106.571 63.7711 106.743 63.6029L109.259 61.1534C108.023 63.5632 106.901 65.406 106.209 66.1262C105.58 66.7688 104.901 67.1808 104.304 67.2867C104.249 67.2961 104.196 67.3018 104.151 67.3018C104.125 67.3018 104.104 67.3018 104.093 67.298C103.88 67.1298 103.618 67.0391 103.35 67.0391C103.291 67.0391 103.233 67.0429 103.173 67.0523C102.828 67.1033 102.522 67.3018 102.336 67.5966L102.27 67.7006C102.078 68.003 102.03 68.3754 102.14 68.7156L102.903 71.0914C102.975 71.3125 103.109 71.5091 103.288 71.6565C103.947 72.1952 104.747 72.4806 105.595 72.4806C105.821 72.4806 106.051 72.4598 106.279 72.4201C107.466 72.2103 108.624 71.5318 109.721 70.4034C111.619 68.4547 113.325 65.1377 114.572 62.7165L114.744 62.3838C114.893 62.0965 115.04 61.8073 115.187 61.5163C114.554 62.9905 113.92 64.4723 113.3 65.9466C113.127 66.3586 113.197 66.8331 113.479 67.1789C113.709 67.4606 114.052 67.6193 114.407 67.6193C114.488 67.6193 114.569 67.6118 114.65 67.5948C115.711 67.3736 116.836 66.9238 117.907 66.2925C118.101 66.1772 118.259 66.0109 118.363 65.8105C118.864 64.8428 119.498 63.756 120.197 62.724C120.065 63.1966 119.982 63.671 119.982 64.1359C119.982 65.5554 120.864 66.5477 122.129 66.5477C122.278 66.5477 122.431 66.5344 122.587 66.5061C123.322 66.3757 124.587 65.8521 127.224 62.9452C127.376 63.3175 127.576 63.6596 127.823 63.9583C128.506 64.7823 129.499 65.2359 130.62 65.2359C130.88 65.2359 131.15 65.2114 131.421 65.1641C133.201 64.8504 135.346 63.412 137.798 60.8888C137.973 60.7073 138.147 60.5259 138.316 60.3444C137.985 60.9266 137.785 61.5352 137.785 62.1098C137.785 63.2854 138.614 64.1057 139.8 64.1057C139.967 64.1057 140.143 64.0887 140.322 64.0584C141.274 63.8902 142.346 63.2551 143.264 62.3139C143.839 61.7242 144.802 60.5391 144.802 59.2179C144.802 58.0461 143.963 57.2277 142.759 57.2277" fill="#010101"/>
<path d="M42.768 72.0459C42.1365 73.2914 41.4523 74.2554 40.3949 75.1154C40.3515 75.1494 40.3138 75.1796 40.278 75.2061C40.2648 75.0946 40.2554 74.9623 40.2554 74.8111C40.2554 73.9303 40.9434 72.422 41.8236 71.1727C41.8613 71.2237 41.9009 71.2747 41.9424 71.3258C42.1799 71.6149 42.4588 71.855 42.768 72.0459ZM54.5013 74.9264C55.3665 73.8698 56.1977 72.5827 56.9818 71.0857C56.2354 72.9966 55.1007 75.7807 54.4354 76.4687C54.1489 76.7673 53.8058 76.9676 53.4948 77.0224C53.4081 77.0376 53.3195 77.0451 53.2309 77.0451C52.9011 77.0451 52.6711 76.9393 52.5731 76.8467C53.2309 76.3288 53.8756 75.6899 54.5013 74.9264ZM53.7625 70.1048C53.131 71.3484 52.4468 72.3143 51.3894 73.1743C51.346 73.2083 51.3083 73.2385 51.2725 73.265C51.2593 73.1535 51.2499 73.0212 51.2499 72.87C51.2499 71.9892 51.9379 70.4809 52.8181 69.2316C52.8558 69.2826 52.8954 69.3336 52.9369 69.3847C53.1744 69.6738 53.4533 69.9139 53.7625 70.1048ZM86.8629 65.8256C86.7573 65.992 86.4934 66.2698 86.2107 66.5288C86.3898 65.6839 86.8384 64.495 87.5358 63.3307C87.8034 62.8847 88.0843 62.4821 88.3726 62.1306C88.3613 62.1589 88.3481 62.1873 88.3368 62.2137C88.2011 62.5237 88.0315 62.9792 87.8336 63.5046C87.5735 64.2002 87.089 65.493 86.8855 65.7935C86.8779 65.8049 86.8685 65.8143 86.8629 65.8256ZM30.4955 61.6372C30.9366 61.5597 31.3644 61.5201 31.7678 61.5201C33.7356 61.5201 34.7327 62.3271 34.7327 63.9204C34.7327 66.5684 31.9299 68.6929 30.7254 69.4829C29.9677 69.98 29.1101 70.5017 28.2336 70.8325L31.9582 63.3648C32.1636 62.9508 32.1165 62.4556 31.8338 62.089C31.6038 61.7903 31.2513 61.6221 30.8838 61.6221C30.8008 61.6221 30.7179 61.6316 30.635 61.6486C29.9941 61.7847 29.325 61.9661 28.6427 62.1854C29.2779 61.9264 29.8886 61.7431 30.4955 61.6372ZM95.1507 55.3962C95.0244 55.3962 94.8962 55.417 94.7718 55.4586L91.2188 56.6437C90.9568 56.7306 90.7325 56.9064 90.5855 57.1389C90.4875 57.1332 90.3895 57.1313 90.2896 57.1313C89.9578 57.1313 89.6242 57.1597 89.2962 57.2182C86.3483 57.738 83.979 60.6412 82.8292 62.3233C82.5974 62.6617 82.3787 63.0038 82.1733 63.3478C82.9781 61.6561 83.4324 60.626 83.4324 59.8417C83.4324 58.8721 82.75 58.1689 81.8095 58.1689C81.687 58.1689 81.5569 58.1803 81.4269 58.2049C80.9142 58.2956 80.098 58.5564 78.641 59.664C78.6146 59.4599 78.5354 59.2633 78.4073 59.0932C78.1773 58.7889 77.8211 58.615 77.4498 58.615C77.3725 58.615 77.2933 58.6226 77.2141 58.6377C75.9682 58.8872 74.6545 59.2728 73.0825 59.8511C72.8054 59.9532 72.5792 60.1516 72.4397 60.4106C72.2286 60.2461 71.9685 60.1573 71.7028 60.1573C71.5991 60.1573 71.4954 60.1705 71.3918 60.1989C69.882 60.6034 68.3967 61.0135 66.9434 61.4823C67.2771 60.8188 67.6503 60.1138 68.0404 59.4391C68.555 58.5507 68.9735 57.9365 69.3033 57.5131C69.2015 57.8004 69.0733 58.1198 68.915 58.4676C68.719 58.9023 68.7963 59.4126 69.1148 59.768C69.3467 60.0269 69.6746 60.1686 70.0101 60.1686C70.1345 60.1686 70.2608 60.1497 70.3815 60.1101C71.5237 59.7358 72.5547 59.1556 73.5537 58.5942C73.7705 58.4733 73.9439 58.2861 74.0513 58.0612C74.4679 57.1823 74.9655 55.8479 74.9655 54.489C74.9655 53.4929 74.7393 52.7274 74.2756 52.1509C73.9081 51.6936 73.2107 51.1492 71.9666 51.1492C71.6764 51.1492 71.3616 51.1795 71.0299 51.238C69.1224 51.5745 67.115 52.9259 65.0604 55.2526C62.6007 58.014 61.2059 61.2158 59.8563 64.3117C59.8431 64.34 59.8318 64.3684 59.8186 64.3967C59.7111 64.4497 59.6018 64.5007 59.4887 64.5555C59.2324 64.6784 58.9723 64.805 58.7103 64.9354C58.6763 64.2682 58.5557 63.7447 58.3314 63.3118C57.8998 62.4764 57.1138 62.0171 56.1186 62.0171C55.9075 62.0171 55.6832 62.0379 55.4513 62.0795C54.5315 62.2421 53.6362 62.7448 53.001 63.446C51.1802 64.2607 49.3311 65.9088 47.8835 68.0162C47.8119 68.1202 47.7421 68.226 47.6743 68.33C47.7195 67.8442 47.7271 67.453 47.7271 67.264C47.7271 66.4059 47.6027 65.767 47.3369 65.2529C46.9053 64.4175 46.1193 63.9583 45.1241 63.9583C44.9129 63.9583 44.6886 63.979 44.4568 64.0206C43.537 64.1832 42.6417 64.6859 42.0046 65.3871C40.1857 66.2018 38.3347 67.8499 36.8871 69.9573C35.3886 72.1385 34.5291 74.486 34.5291 76.3949C34.5291 77.3986 34.712 78.2378 35.0739 78.888C35.6092 79.85 36.5233 80.3811 37.6467 80.3811C37.8748 80.3811 38.1161 80.3584 38.363 80.315C38.5496 80.2828 38.7343 80.2375 38.919 80.1864C38.1519 80.8309 37.5826 81.294 36.7853 81.4339C36.6986 81.449 36.6157 81.4566 36.5384 81.4566C35.9239 81.4566 35.5206 80.8366 34.9777 79.8916C34.9758 79.8878 34.9721 79.8821 34.9702 79.8784C34.2671 78.6914 33.6828 77.4515 33.0627 76.1379C32.6084 75.1758 32.1429 74.1892 31.6245 73.2215C34.4707 71.3655 41.8783 66.0373 41.8783 60.885C41.8783 58.9325 40.9396 57.8306 40.1536 57.2504C39.2263 56.5662 37.9653 56.2052 36.5083 56.2052C35.9522 56.2052 35.3754 56.2581 34.7911 56.3601C31.7527 56.8969 27.229 58.9685 23.5327 61.5144C21.4311 62.9622 19.7441 64.4534 18.519 65.9466C17.0205 67.7705 16.2628 69.5529 16.2628 71.2445C16.2628 71.9211 16.4173 72.5033 16.7245 72.972C16.9168 73.265 17.2259 73.4615 17.5727 73.5069C17.6255 73.5145 17.6783 73.5182 17.7311 73.5182C18.0232 73.5182 18.3097 73.4105 18.5303 73.2121L22.3754 69.7702L16.0234 85.1365C15.8387 85.5864 15.9404 86.1024 16.2816 86.4464C16.5116 86.677 16.8188 86.8017 17.1336 86.8017C17.2862 86.8017 17.4408 86.7715 17.5878 86.7129C18.7791 86.2252 20.679 85.2121 21.8552 84.2955C22.0098 84.1745 22.1323 84.0176 22.2133 83.84L25.4384 76.6709C25.7795 77.2776 26.0604 77.9732 26.3506 78.6952C26.6729 79.4966 27.0047 80.3244 27.4533 81.0956C28.6031 83.1123 30.1769 85.8718 33.7827 85.8718C34.2351 85.8718 34.7157 85.8264 35.2115 85.7395C37.8748 85.2688 39.4242 83.8985 41.2167 82.3109L41.2789 82.2561C41.7577 81.8327 41.8217 81.105 41.424 80.6041L40.9924 80.0598C40.819 79.8406 40.5739 79.6912 40.3044 79.6326C41.4127 79.0448 42.4852 78.1225 43.5087 76.8712C44.2174 76.0056 44.9035 74.9849 45.5595 73.8207C45.5406 74.0361 45.5274 74.2459 45.5274 74.4519C45.5274 75.4556 45.7102 76.2948 46.0721 76.945C46.6075 77.907 47.5197 78.4381 48.645 78.4381C48.8731 78.4381 49.1143 78.4154 49.3594 78.372C49.742 78.3039 50.1209 78.1962 50.4978 78.0525C50.5092 78.1111 50.5224 78.1678 50.5431 78.2245L51.4723 80.882C51.5458 81.0918 51.674 81.2751 51.8455 81.415C52.5128 81.9612 53.3007 82.2504 54.1225 82.2504C54.3279 82.2504 54.5353 82.2315 54.7407 82.1956C56.3033 81.9196 57.4512 80.7289 57.9959 80.0428C58.0016 80.0371 58.0053 80.0315 58.011 80.0239C59.762 77.7312 62.0107 72.5071 63.6524 68.6929C63.8993 68.1164 64.1236 67.5966 64.3253 67.1336C64.3762 67.1222 64.4271 67.109 64.4799 67.0977C63.7222 68.7004 63.0662 70.428 63.0662 71.9722C63.0662 72.3577 63.1171 73.11 63.4507 73.8074C63.8748 74.6901 64.6326 75.1966 65.5317 75.1966C65.6749 75.1966 65.8238 75.1834 65.9708 75.1569C66.3327 75.0927 66.8077 74.9415 67.4561 74.4935C67.6521 74.6239 67.8821 74.6958 68.1196 74.6958C68.2006 74.6958 68.2817 74.6882 68.3628 74.6712C69.4239 74.4501 70.5492 74.0002 71.6179 73.3689C71.8121 73.2536 71.9704 73.0873 72.0741 72.887C72.5755 71.9211 73.2088 70.8325 73.9081 69.8005C73.7761 70.273 73.6932 70.7474 73.6932 71.2124C73.6932 72.6318 74.5753 73.6241 75.8401 73.6241C75.989 73.6241 76.1417 73.6109 76.2981 73.5825C76.9578 73.4653 78.0492 73.0287 80.181 70.8287C80.3148 71.2294 80.5202 71.5715 80.7935 71.8474C80.6616 71.9381 80.5466 72.0553 80.458 72.1952L80.3921 72.2992C80.1941 72.611 80.1489 72.9966 80.2714 73.3444L81.2026 76.0018C81.2761 76.2116 81.4042 76.3949 81.5758 76.5348C82.2468 77.0848 83.0271 77.3759 83.8282 77.3759C84.0299 77.3759 84.2334 77.357 84.437 77.3211C86.0128 77.0432 87.5037 75.7523 88.9909 73.3765C90.0954 71.6131 90.9493 69.6493 91.4582 68.4755L91.5072 68.364C92.1499 66.8916 92.7493 65.3758 93.328 63.911C94.2195 61.6561 95.1394 59.3257 96.2307 57.1332C96.4475 56.6985 96.3815 56.1749 96.063 55.8064C95.8311 55.538 95.4975 55.3905 95.1563 55.3905" fill="#010101"/>
<path d="M133.702 58.8059C133.64 58.8172 133.583 58.8229 133.533 58.8229C133.478 58.8229 133.442 58.8154 133.425 58.8116C133.41 58.7832 133.384 58.7019 133.384 58.5602C133.384 58.2483 133.751 56.931 134.603 55.3017C134.978 54.5816 135.321 54.0467 135.612 53.6573C135.638 53.6951 135.666 53.7311 135.696 53.767C135.928 54.0335 136.26 54.1809 136.601 54.1809C136.71 54.1809 136.82 54.1658 136.929 54.1355C137.772 53.8955 139.033 53.2718 139.832 52.8522C139.174 53.8123 138.23 55.056 137.199 56.1749C135.193 58.3504 134.087 58.7416 133.704 58.8097M109.83 56.8667C109.694 56.8667 109.557 56.8894 109.421 56.9385C109.21 57.016 108.893 57.0614 108.577 57.0614C108.056 57.0614 107.721 56.9442 107.608 56.8724C107.546 56.6909 107.51 56.4452 107.51 56.1806C107.51 54.8084 108.424 52.752 109.84 50.9451C111.336 49.0342 113.099 47.7414 114.554 47.4844C114.638 47.4692 114.718 47.4617 114.789 47.4617C114.793 47.4617 114.797 47.4617 114.797 47.4617C114.704 48.5674 113.717 51.6709 111.664 56.2033C111.434 56.7136 111.202 57.2126 110.97 57.7002L110.948 57.6416C110.765 57.1615 110.311 56.8667 109.826 56.8667M143.364 56.0294C143.194 56.0294 143.015 56.0464 142.834 56.0766C142.129 56.2014 141.334 56.6172 140.614 57.1956C141.683 55.8782 142.503 54.6874 142.98 53.8841C143.27 53.3927 143.177 52.7633 142.755 52.3778L142.158 51.8315C141.935 51.6293 141.647 51.5178 141.349 51.5178C141.294 51.5178 141.24 51.5216 141.185 51.5291C141.144 51.5348 141.102 51.5423 141.063 51.5518C141.127 51.2324 141.187 50.8827 141.187 50.5123C141.187 49.3328 140.701 48.6449 140.292 48.2763C139.756 47.7943 139.042 47.5486 138.171 47.5486C137.873 47.5486 137.553 47.5789 137.221 47.6375C134.599 48.1005 132.311 50.3951 131.182 51.7238C130.645 52.3551 130.145 53.0261 129.699 53.7046C130.106 52.7747 130.328 52.1075 130.328 51.5594C130.328 50.5897 129.646 49.8866 128.705 49.8866C128.583 49.8866 128.453 49.898 128.323 49.9226C127.81 50.0133 126.994 50.2741 125.537 51.3817C125.51 51.1776 125.431 50.981 125.303 50.8109C125.073 50.5066 124.717 50.3327 124.346 50.3327C124.268 50.3327 124.189 50.3403 124.11 50.3554C122.864 50.6049 121.552 50.9904 119.978 51.5688C119.88 51.6047 119.788 51.6539 119.705 51.7143C120.184 50.5406 120.655 49.3404 121.117 48.11C121.45 47.2216 121.758 46.2615 121.758 45.2597C121.758 44.0312 121.236 43.3432 120.796 42.9803C120.267 42.5437 119.56 42.3207 118.693 42.3207C118.337 42.3207 117.945 42.3585 117.524 42.4322C114.065 43.0427 110.12 45.1633 106.971 48.1043C105.35 49.6182 104.055 51.2343 103.126 52.907C102.081 54.7819 101.554 56.6361 101.554 58.4165C101.554 59.664 101.825 60.6809 102.362 61.4369C102.828 62.0927 103.725 62.8733 105.359 62.8733C105.691 62.8733 106.047 62.8412 106.417 62.7751L106.716 62.7221C106.954 62.6806 107.172 62.569 107.344 62.4008L109.86 59.9513C108.624 62.3611 107.502 64.204 106.811 64.9241C106.181 65.5667 105.502 65.9787 104.905 66.0846C104.85 66.094 104.798 66.0997 104.752 66.0997C104.726 66.0997 104.705 66.0997 104.692 66.0959C104.479 65.9277 104.217 65.837 103.949 65.837C103.891 65.837 103.832 65.8408 103.772 65.8502C103.427 65.9012 103.122 66.0997 102.935 66.3946L102.869 66.4985C102.677 66.8009 102.63 67.1733 102.739 67.5135L103.503 69.8893C103.574 70.1104 103.708 70.307 103.887 70.4544C104.547 70.9931 105.346 71.2785 106.194 71.2785C106.42 71.2785 106.65 71.2577 106.878 71.218C108.066 71.0082 109.223 70.3297 110.32 69.2013C112.218 67.2526 113.924 63.9356 115.172 61.5144L115.343 61.1817C115.492 60.8944 115.639 60.6053 115.786 60.3142C115.153 61.7884 114.52 63.2703 113.9 64.7445C113.726 65.1566 113.796 65.631 114.079 65.9769C114.309 66.2585 114.652 66.4172 115.006 66.4172C115.087 66.4172 115.168 66.4097 115.249 66.3927C116.31 66.1715 117.436 65.7217 118.506 65.0904C118.7 64.9751 118.859 64.8088 118.962 64.6084C119.464 63.6407 120.097 62.5539 120.796 61.5219C120.664 61.9945 120.581 62.4689 120.581 62.9338C120.581 64.3533 121.464 65.3456 122.728 65.3456C122.877 65.3456 123.03 65.3323 123.186 65.304C123.922 65.1736 125.186 64.65 127.825 61.7431C127.976 62.1154 128.178 62.4575 128.423 62.7562C129.105 63.5802 130.098 64.0339 131.22 64.0339C131.48 64.0339 131.749 64.0093 132.021 63.962C133.8 63.6483 135.945 62.2099 138.397 59.6867C138.573 59.5052 138.746 59.3238 138.916 59.1423C138.584 59.7245 138.384 60.3331 138.384 60.9077C138.384 62.0833 139.214 62.9036 140.399 62.9036C140.567 62.9036 140.742 62.8866 140.921 62.8563C141.873 62.6881 142.946 62.0531 143.864 61.1118C144.438 60.5221 145.402 59.337 145.402 58.0159C145.402 56.844 144.563 56.0256 143.36 56.0256" fill="#010101"/>
<path d="M27.1762 29.625C27.1253 29.763 27.0725 29.8991 27.0217 30.0352C26.0264 32.6794 24.9973 35.4124 23.8155 38.0397C23.8079 38.0548 23.8023 38.0699 23.7966 38.085C23.1331 39.6235 22.3924 41.1923 21.6742 42.7081C21.5932 42.8782 21.514 43.0484 21.433 43.2204C20.892 42.8045 20.2191 42.5645 19.5142 42.5645C19.3653 42.5645 19.2164 42.5758 19.0675 42.5966C18.7941 42.6363 18.5472 42.6552 18.3305 42.6552C18.1721 42.6552 18.0515 42.6439 17.9667 42.6306C17.9441 42.5135 17.9214 42.3339 17.9214 42.0844C17.9214 41.1621 18.2833 39.907 18.9412 38.5519C19.6555 37.0757 20.6866 35.5334 21.9193 34.0913C23.5648 32.1672 25.4497 30.5852 27.1762 29.6269M77.7419 27.1282C77.1482 26.308 76.1925 25.8203 75.1822 25.8203C74.9994 25.8203 74.8147 25.8354 74.6337 25.8676C72.3568 26.2702 70.1063 27.2606 68.1196 28.1357C67.8821 28.2396 67.6465 28.3436 67.4146 28.4456C67.0791 28.5912 66.7757 28.7915 66.5156 29.0372C66.0161 28.7216 65.4299 28.5458 64.8286 28.5458C64.5666 28.5458 64.3065 28.5779 64.052 28.6422C62.1238 29.1317 60.0957 29.8594 58.2428 30.7194C57.6547 30.1297 56.8442 29.7857 56.0036 29.7857C55.7265 29.7857 55.4494 29.8216 55.1818 29.8953L49.5234 31.4225C49.0484 31.551 48.6148 31.7854 48.253 32.1067C48.1662 32.1048 48.0777 32.1029 47.991 32.1029C47.3934 32.1029 46.7827 32.1577 46.1758 32.2636C43.9799 32.651 41.7501 33.7454 39.5429 35.5164C39.4223 35.6128 39.2998 35.713 39.1791 35.815C40.3383 33.305 41.3637 30.9802 42.2854 28.7688L42.293 28.7499C42.7736 27.5743 43.2656 26.1643 43.2656 24.6163C43.2656 22.4257 42.3684 20.5583 40.7379 19.3582C39.4769 18.4301 37.8088 17.9406 35.9145 17.9406C35.2096 17.9406 34.4764 18.0067 33.7299 18.1391C30.7952 18.6569 27.5193 19.8628 24.2603 21.6281C21.1088 23.3349 18.0195 25.533 15.3279 27.9845C12.4704 30.5871 10.0822 33.4657 8.42165 36.3083C6.47457 39.6424 5.48689 42.9255 5.48689 46.0668C5.48689 47.9928 5.91664 49.8299 6.6951 51.2399C7.38873 52.4949 8.34437 53.4305 9.48661 53.9976C8.30102 55.296 7.18517 56.6304 6.20314 57.927C3.37205 61.658 0 67.2243 0 72.5449C0 74.4746 0.557925 76.0604 1.66058 77.2549C2.46542 78.13 3.9394 79.1715 6.37467 79.1715C6.91186 79.1715 7.48109 79.1185 8.0654 79.0165C9.3622 78.7878 10.6552 78.3568 12.1349 77.6613C14.1592 76.72 16.6265 74.4841 19.4671 71.012C21.5894 68.4169 23.6892 65.3664 24.6919 63.4158C25.7362 61.4388 26.869 59.4259 27.966 57.481C28.3901 56.7268 28.8198 55.9651 29.2496 55.1959C29.4004 56.5681 29.8565 57.6851 30.635 58.5867C31.698 59.819 33.2455 60.4711 35.1097 60.4711C35.6544 60.4711 36.2444 60.4163 36.8626 60.3066C39.017 59.9267 41.1809 58.8569 43.3089 57.1218C44.0817 57.7172 45.011 58.0348 46.025 58.0348C46.3059 58.0348 46.5905 58.0102 46.8751 57.9592C47.3256 57.8798 47.7761 57.7475 48.2341 57.5622C48.2492 57.6208 48.2643 57.6775 48.2812 57.7361L49.6383 62.1967C49.7986 62.724 50.0945 63.2022 50.496 63.5802C51.6929 64.7105 53.3742 65.3323 55.2289 65.3323C55.7227 65.3323 56.2222 65.2889 56.7179 65.2019C59.0797 64.7842 61.1474 63.4876 62.6968 61.4501C65.1038 58.3183 66.7625 54.7952 68.3665 51.3874C68.768 50.5349 69.1469 49.7317 69.5333 48.9416C70.8696 46.2104 72.0684 43.4245 73.2257 40.7273C74.6922 37.3176 76.2076 33.7927 77.97 30.4794C78.5354 29.4171 78.445 28.1016 77.74 27.1264" fill="#010101"/>
<path d="M108.26 31.4622C108.111 31.7268 107.962 31.9801 107.811 32.222C107.947 31.9687 108.094 31.7117 108.249 31.4527C108.252 31.4565 108.256 31.4584 108.26 31.4622ZM95.8273 32.4356C94.9999 34.5732 94.5551 36.6599 94.5551 38.5292C94.5551 40.3418 94.8811 41.8916 95.5258 43.1372C95.1167 43.0843 94.687 43.02 94.2195 42.952C93.9029 42.9047 93.5768 42.8556 93.2356 42.8083H93.2187C92.4251 42.6987 91.6429 42.4019 90.7778 42.0372C90.953 41.7026 91.1265 41.3718 91.2961 41.0468C91.9973 39.7048 92.7211 38.3194 93.4637 36.9774C94.2987 35.471 95.0791 33.9495 95.8273 32.4356ZM99.6895 25.6634C99.3728 26.0736 99.0656 26.4951 98.7696 26.9279C98.3456 27.546 97.9497 28.1716 97.5841 28.8029C97.6708 28.6195 97.7593 28.4362 97.8461 28.2528C98.208 27.4911 98.5812 26.7105 98.9544 25.9356C99.2032 25.8487 99.4501 25.7579 99.6895 25.6653M158.65 4.13359C158.047 3.35866 157.139 2.9145 156.159 2.9145C155.966 2.9145 155.772 2.93151 155.582 2.96742C153.071 3.43427 150.415 3.96916 147.245 4.6477C147.049 4.60989 146.853 4.59099 146.655 4.59099C146.463 4.59099 146.269 4.608 146.078 4.64392C145.645 4.72519 145.209 4.80646 144.763 4.89152C144.702 4.29803 144.474 3.72345 144.09 3.23959C143.487 2.48167 142.586 2.04695 141.619 2.04695C141.436 2.04695 141.251 2.06396 141.07 2.0942C138.767 2.50057 136.65 3.25849 134.603 3.99184L134.445 4.04854C134.262 4.1128 134.089 4.19597 133.923 4.29236C133.399 3.92569 132.773 3.72345 132.113 3.72345C131.93 3.72345 131.746 3.74046 131.565 3.7707C129.261 4.17707 127.143 4.93499 125.096 5.67023L124.939 5.72693C124.133 6.01611 123.471 6.63038 123.119 7.41287C122.751 8.23317 122.344 9.11205 121.929 9.98149C120.259 10.5561 118.621 11.1987 117.03 11.8205C116.642 11.9717 116.25 12.1267 115.856 12.2798C116.553 11.0248 117.076 9.70365 117.296 8.35791C117.311 8.27097 117.321 8.18025 117.328 8.09141C117.355 7.93076 117.394 7.67182 117.394 7.35617C117.394 5.24307 116.357 3.43238 114.552 2.38717C113.37 1.70485 111.902 1.35707 110.186 1.35707C109.431 1.35707 108.626 1.4289 107.859 1.56498C103.538 2.32668 99.5161 4.6269 95.9009 8.40138C93.6673 10.7337 91.6222 13.5632 89.6676 17.0296C89.6336 17.022 89.5997 17.0163 89.5658 17.0088C89.4923 16.9426 89.3641 16.8028 89.2246 16.5741C88.9607 16.1412 88.8363 15.6914 88.8269 15.4873C89.0418 14.701 88.9475 13.8561 88.5536 13.1341C88.1031 12.3025 87.3133 11.7222 86.386 11.5389L86.1032 11.4841C85.9034 11.4444 85.698 11.4236 85.4925 11.4236C84.4672 11.4236 83.5021 11.9264 82.9103 12.7656L78.4978 19.0368C78.1189 19.5755 77.9191 20.2068 77.9191 20.8645V21.1291C77.9191 23.0646 78.7993 24.8961 80.3977 26.2853C81.4853 27.2303 82.8481 27.9145 84.2598 28.2434C83.5832 29.6553 82.8273 31.1843 81.9395 32.9364L81.9301 32.9553C81.3401 34.1366 80.6842 35.3595 80.049 36.5408C79.5721 37.4292 79.0802 38.3421 78.6033 39.2644C77.6514 39.289 76.6675 39.3929 75.6101 39.5801C73.6932 39.9184 70.9224 40.6536 68.6116 42.2375C67.2582 43.1636 66.2102 44.2807 65.494 45.5565C64.7664 46.8531 64.397 48.2876 64.397 49.8186C64.397 52.0829 65.3639 53.9881 67.1187 55.1883C68.4231 56.0804 70.0761 56.5321 72.0307 56.5321C72.8092 56.5321 73.6216 56.4584 74.4434 56.3129C75.7571 56.0804 80.1074 55.1467 83.3928 52.5176C83.9639 52.6688 84.5313 52.8295 85.0854 52.9845C87.7431 53.7329 90.4894 54.506 93.7125 54.506C94.883 54.506 96.0215 54.4058 97.1882 54.1998C98.0835 54.041 99.009 53.8142 99.8648 53.5402C100.244 53.4192 100.59 53.2302 100.9 52.9788L107.915 47.2519C108.503 46.7718 108.899 46.097 109.031 45.3486C109.159 44.6284 109.033 43.8838 108.677 43.2468C109.755 42.3604 110.806 41.2906 111.819 40.0564C112.024 39.805 112.23 39.5441 112.435 39.2776C112.493 39.4478 112.558 39.6179 112.629 39.7861C113.523 41.8973 115.304 43.1599 117.392 43.1599C117.705 43.1599 118.027 43.1315 118.348 43.0748C119.867 42.8064 121.443 41.8349 123.343 39.9732C124.283 40.9485 125.516 41.4834 126.898 41.4834C127.211 41.4834 127.533 41.455 127.853 41.3983C130.066 41.0071 132.441 39.1038 135.792 35.0307C138.109 32.2163 140.346 29.0108 141.826 26.8901L141.83 26.8844C142.203 26.3495 142.527 25.8865 142.774 25.5406C143.675 24.2818 143.541 22.5694 142.456 21.4656L141.438 20.4298C140.848 19.8307 140.028 19.4867 139.187 19.4867C139.121 19.4867 139.053 19.4886 138.987 19.4923C138.859 19.4999 138.733 19.5169 138.608 19.5396C139.087 18.4245 139.532 17.3944 139.905 16.5306C139.969 16.3832 140.032 16.2395 140.09 16.1034C140.944 15.9711 141.862 15.8161 142.923 15.6271C143.134 15.5969 143.407 15.5572 143.681 15.5213C143.879 15.4948 144.075 15.4495 144.267 15.3833C144.817 15.2813 145.364 15.1792 145.905 15.079C148.299 14.6311 150.775 14.168 153.184 13.8448C153.902 13.7484 154.572 13.4044 155.067 12.8752C155.931 11.9547 158.047 9.5789 159.037 7.40531C159.529 6.32608 159.38 5.07485 158.652 4.13927" fill="#010101"/>
<path d="M27.8529 28.2661C27.8001 28.404 27.7492 28.5401 27.6983 28.6762C26.7031 31.3204 25.674 34.0535 24.4921 36.6807C24.4846 36.6958 24.479 36.7109 24.4733 36.726C23.8098 38.2646 23.0691 39.8333 22.3528 41.3492C22.2718 41.5193 22.1926 41.6894 22.1115 41.8614C21.5706 41.4456 20.8977 41.2055 20.1927 41.2055C20.0438 41.2055 19.8949 41.2169 19.746 41.2377C19.4727 41.2773 19.2258 41.2963 19.009 41.2963C18.8507 41.2963 18.7301 41.2849 18.6452 41.2717C18.6226 41.1545 18.6 40.9749 18.6 40.7254C18.6 39.8031 18.9619 38.5481 19.6197 37.1929C20.3341 35.7167 21.3651 34.1744 22.5978 32.7323C24.2433 30.8082 26.1282 29.2262 27.8548 28.268M78.4186 25.7693C77.8267 24.949 76.8692 24.4614 75.8608 24.4614C75.678 24.4614 75.4932 24.4784 75.3123 24.5086C73.0354 24.9112 70.7848 25.9016 68.7981 26.7767C68.5607 26.8806 68.325 26.9846 68.0932 27.0867C67.7577 27.2322 67.4542 27.4325 67.1941 27.6783C66.6946 27.3626 66.1084 27.1868 65.5072 27.1868C65.2452 27.1868 64.985 27.219 64.7306 27.2832C62.8023 27.7728 60.7742 28.5004 58.9214 29.3604C58.3333 28.7707 57.5228 28.4267 56.6821 28.4267C56.4051 28.4267 56.128 28.4626 55.8603 28.5364L50.2019 30.0635C49.7269 30.1921 49.2934 30.4264 48.9315 30.7477C48.8448 30.7458 48.7562 30.744 48.6695 30.744C48.072 30.744 47.4613 30.7988 46.8544 30.9046C44.6585 31.2921 42.4268 32.3864 40.2215 34.1574C40.1008 34.2538 39.9783 34.354 39.8577 34.4561C41.0169 31.946 42.0423 29.6213 42.964 27.4099L42.9715 27.391C43.4522 26.2153 43.9441 24.8053 43.9441 23.2574C43.9441 21.0668 43.0469 19.1994 41.4165 17.9992C40.1555 17.0712 38.4874 16.5816 36.5931 16.5816C35.89 16.5816 35.1549 16.6478 34.4085 16.7801C31.4737 17.298 28.1978 18.5038 24.9389 20.2692C21.7873 21.9759 18.698 24.1741 16.0064 26.6255C13.1489 29.2281 10.7608 32.1067 9.10021 34.9494C7.15312 38.2816 6.16545 41.5665 6.16545 44.7078C6.16545 46.6338 6.5952 48.471 7.37366 49.881C8.06729 51.136 9.02293 52.0716 10.1652 52.6386C8.97957 53.9371 7.86373 55.2715 6.87982 56.5681C4.05061 60.2991 0.676674 65.8653 0.676674 71.1859C0.676674 73.1157 1.2346 74.7014 2.33725 75.896C3.1421 76.7711 4.61607 77.8125 7.05134 77.8125C7.58853 77.8125 8.15777 77.7596 8.74208 77.6575C10.0389 77.4288 11.3319 76.9979 12.8115 76.3023C14.8359 75.3611 17.3032 73.1251 20.1437 69.653C22.2661 67.058 24.3659 64.0074 25.3686 62.0568C26.4128 60.0798 27.5457 58.0669 28.6427 56.122C29.0667 55.3679 29.4965 54.6062 29.9263 53.8369C30.077 55.2091 30.5351 56.3261 31.3116 57.2277C32.3747 58.46 33.9222 59.1121 35.7864 59.1121C36.3311 59.1121 36.9211 59.0573 37.5393 58.9477C39.6937 58.5678 41.8576 57.498 43.9875 55.7629C44.7603 56.3583 45.6895 56.6758 46.7036 56.6758C46.9844 56.6758 47.269 56.6512 47.5537 56.6002C48.0042 56.5208 48.4565 56.3885 48.9127 56.2033C48.9259 56.2619 48.9428 56.3186 48.9598 56.3772L50.3169 60.8377C50.4771 61.3651 50.773 61.8433 51.1745 62.2213C52.3714 63.3515 54.0527 63.9734 55.9075 63.9734C56.4013 63.9734 56.9027 63.9299 57.3965 63.8411C59.7583 63.4234 61.826 62.1268 63.3754 60.0893C65.7823 56.9574 67.441 53.4343 69.0451 50.0265C69.4466 49.1741 69.8254 48.3708 70.2118 47.5807C71.5482 44.8496 72.747 42.0636 73.9043 39.3665C75.3707 35.9568 76.8862 32.4318 78.6485 29.1185C79.214 28.0563 79.1235 26.7408 78.4186 25.7655" fill="#010101"/>
<path d="M108.939 30.1032C108.79 30.3678 108.641 30.6211 108.49 30.863C108.626 30.6098 108.773 30.3527 108.927 30.0938C108.931 30.0976 108.935 30.0994 108.939 30.1032ZM96.504 31.0766C95.6766 33.2143 95.2317 35.3009 95.2317 37.1702C95.2317 38.9828 95.5578 40.5327 96.2024 41.7782C95.7934 41.7253 95.3637 41.6629 94.8962 41.593C94.5796 41.5457 94.2535 41.4966 93.9123 41.4493H93.8935C93.0999 41.3397 92.3177 41.043 91.4525 40.6782C91.6278 40.3437 91.8012 40.0129 91.9709 39.6878C92.6721 38.3458 93.3958 36.9604 94.1385 35.6185C94.9735 34.1121 95.7557 32.5906 96.504 31.0766ZM100.366 24.3064C100.049 24.7165 99.7422 25.138 99.4463 25.5708C99.0222 26.1889 98.6264 26.8145 98.2607 27.4458C98.3474 27.2624 98.436 27.0791 98.5227 26.8958C98.8846 26.1341 99.2578 25.3535 99.631 24.5785C99.8798 24.4916 100.125 24.4009 100.366 24.3083M159.327 2.77463C158.724 1.9997 157.815 1.55553 156.835 1.55553C156.643 1.55553 156.449 1.57254 156.259 1.60845C153.748 2.0753 151.092 2.61019 147.922 3.28873C147.726 3.25093 147.53 3.23203 147.332 3.23203C147.139 3.23203 146.945 3.24904 146.755 3.28495C146.321 3.36622 145.886 3.4475 145.439 3.53255C145.379 2.93907 145.151 2.36448 144.766 1.88062C144.163 1.1227 143.262 0.687987 142.295 0.687987C142.112 0.687987 141.928 0.704998 141.747 0.735239C139.443 1.14161 137.327 1.89953 135.28 2.63287L135.121 2.68958C134.941 2.75573 134.765 2.837 134.599 2.9334C134.075 2.56672 133.45 2.36448 132.79 2.36448C132.607 2.36448 132.422 2.38149 132.241 2.41174C129.938 2.8181 127.819 3.57602 125.772 4.31126L125.616 4.36796C124.811 4.65715 124.148 5.27142 123.795 6.05391C123.428 6.8742 123.021 7.75309 122.606 8.62441C120.936 9.199 119.298 9.84162 117.707 10.4635C117.319 10.6147 116.927 10.7696 116.533 10.9227C117.23 9.66773 117.752 8.34657 117.973 7.00084C117.988 6.91389 117.997 6.82506 118.005 6.73434C118.031 6.57368 118.071 6.31474 118.071 5.9991C118.071 3.88599 117.034 2.0753 115.228 1.03009C114.047 0.347774 112.578 0 110.863 0C110.107 0 109.302 0.0718229 108.535 0.207908C104.215 0.969608 100.193 3.26983 96.5775 7.0462C94.3439 9.37855 92.2988 12.208 90.3442 15.6744C90.3103 15.6668 90.2764 15.6612 90.2424 15.6536C90.1689 15.5874 90.0408 15.4476 89.9013 15.2189C89.6374 14.7861 89.513 14.3362 89.5036 14.1321C89.7184 13.3458 89.6242 12.501 89.2321 11.7789C88.7817 10.9473 87.9919 10.3671 87.0645 10.1837L86.7818 10.1289C86.582 10.0892 86.3766 10.0684 86.173 10.0684C85.1476 10.0684 84.1826 10.5712 83.5907 11.4104L79.1782 17.6817C78.7993 18.2203 78.5995 18.8516 78.5995 19.5094V19.774C78.5995 21.7094 79.4798 23.5409 81.0782 24.9301C82.1657 25.8751 83.5285 26.5593 84.9403 26.8882C84.2636 28.3001 83.5078 29.8292 82.62 31.5813L82.6106 31.6002C82.0206 32.7815 81.3647 34.0043 80.7295 35.1856C80.2526 36.074 79.7606 36.9869 79.2856 37.9092C78.3338 37.9338 77.3499 38.0378 76.2924 38.2249C74.3755 38.5632 71.6047 39.2984 69.2939 40.8823C67.9405 41.8085 66.8925 42.9255 66.1763 44.2013C65.4487 45.4979 65.0793 46.9325 65.0793 48.4634C65.0793 50.7277 66.0462 52.6329 67.8011 53.8331C69.1054 54.7252 70.7584 55.177 72.7131 55.177C73.4915 55.177 74.3039 55.1032 75.1257 54.9577C76.4395 54.7252 80.7898 53.7915 84.0751 51.1624C84.6462 51.3136 85.2136 51.4743 85.7677 51.6293C88.4254 52.3778 91.1717 53.1508 94.3948 53.1508C95.5654 53.1508 96.7038 53.0506 97.8706 52.8446C98.7659 52.6858 99.6914 52.459 100.547 52.185C100.926 52.064 101.273 51.875 101.582 51.6236L108.597 45.8967C109.186 45.4166 109.581 44.7419 109.713 43.9934C109.841 43.2733 109.715 42.5286 109.359 41.8916C110.435 41.0052 111.489 39.9354 112.501 38.7012C112.706 38.4498 112.912 38.1909 113.117 37.9225C113.176 38.0926 113.24 38.2627 113.312 38.4309C114.205 40.5421 115.986 41.8047 118.075 41.8047C118.387 41.8047 118.71 41.7763 119.03 41.7196C120.549 41.4512 122.125 40.4797 124.025 38.618C124.966 39.5933 126.198 40.1282 127.58 40.1282C127.893 40.1282 128.215 40.0998 128.536 40.0431C130.749 39.6519 133.123 37.7486 136.475 33.6755C138.791 30.8611 141.029 27.6556 142.508 25.5349L142.512 25.5292C142.885 24.9944 143.209 24.5313 143.456 24.1854C144.357 22.9266 144.224 21.2142 143.138 20.1104L142.12 19.0746C141.53 18.4755 140.71 18.1315 139.869 18.1315C139.804 18.1315 139.736 18.1334 139.67 18.1372C139.542 18.1447 139.415 18.1617 139.291 18.1844C139.77 17.0693 140.214 16.0392 140.588 15.1754C140.652 15.028 140.714 14.8843 140.772 14.7483C141.626 14.616 142.544 14.461 143.605 14.272C143.816 14.2417 144.09 14.202 144.363 14.1661C144.561 14.1397 144.757 14.0943 144.949 14.0281C145.5 13.9261 146.046 13.824 146.587 13.7238C148.981 13.2759 151.458 12.8128 153.867 12.4896C154.585 12.3932 155.254 12.0492 155.75 11.52C156.613 10.5995 158.73 8.22372 159.719 6.05013C160.209 4.9709 160.062 3.71967 159.335 2.78408" fill="#010101"/>
<path d="M18.0402 54.7838C17.3598 56.2014 16.6397 57.6019 15.8556 58.9533C15.3957 59.7415 14.0763 61.7809 12.706 63.6464C11.2603 65.6177 10.3555 66.5949 9.84473 67.0712C9.96913 66.4891 10.2406 65.82 10.5271 65.166C12.1349 61.4936 15.1281 57.3865 18.0402 54.7838ZM20.1908 42.5626C20.106 42.5626 20.0212 42.5683 19.9364 42.5815C19.6009 42.6287 19.288 42.6533 19.009 42.6533C18.5529 42.6533 17.9441 42.5872 17.6425 42.2772C17.3861 42.0107 17.2448 41.4607 17.2448 40.7254C17.2448 39.5857 17.6444 38.1587 18.4002 36.5994C19.1655 35.0212 20.2606 33.3787 21.5687 31.8497C24.2792 28.6819 27.5343 26.4346 30.0657 25.9885C30.1034 25.981 30.1411 25.9753 30.1788 25.9715C29.7642 27.0394 29.3589 28.1168 28.9668 29.162C27.9641 31.8251 26.9274 34.577 25.7286 37.2439C25.7249 37.2515 25.7211 37.2609 25.7173 37.2685C25.0444 38.8297 24.298 40.4098 23.5742 41.9389C23.3386 42.436 23.0992 42.9463 22.8617 43.4528C22.5846 43.6758 22.3038 43.897 22.0211 44.1181C22.0116 44.0879 22.0003 44.0595 21.9909 44.0293L21.8778 43.7326C21.6083 43.0238 20.9316 42.5683 20.1908 42.5683M45.2843 40.4533C44.4002 42.744 43.6557 45.1671 43.3202 47.1649C42.5493 48.0079 41.8387 48.59 41.2977 48.9208C41.5447 47.5448 42.4833 45.0707 43.9102 42.5909C44.3776 41.7782 44.8394 41.0657 45.2843 40.4533ZM63.9653 37.7939C63.9653 37.7939 63.9615 37.8015 63.9615 37.8053C63.7787 38.2324 63.6015 38.6823 63.43 39.117C63.0681 40.0337 62.6949 40.9806 62.2595 41.7158C62.0182 42.1184 61.6224 42.5796 61.2285 42.9652C61.5074 42.0693 62.088 40.5894 63.2868 38.1984C64.1972 36.3802 65.2075 34.5487 66.0179 33.1103L63.9672 37.7958L63.9653 37.7939ZM75.8608 25.8184C75.7571 25.8184 75.6516 25.8279 75.5479 25.8468C73.4312 26.2191 71.2598 27.1774 69.3448 28.0204C69.1054 28.1262 68.8679 28.2302 68.6361 28.3322C68.2176 28.5137 67.8859 28.8482 67.7011 29.2659L67.3053 30.1713C67.2714 29.8481 67.1526 29.5324 66.9472 29.2621C66.6004 28.8029 66.0651 28.5439 65.5071 28.5439C65.3601 28.5439 65.2112 28.5628 65.0642 28.5987C62.8947 29.1506 60.5933 30.0144 58.584 31.0312C58.5293 31.0596 58.4765 31.0898 58.4256 31.122C58.3672 30.9027 58.2654 30.691 58.1222 30.502C57.7754 30.0427 57.2382 29.7838 56.6821 29.7838C56.5257 29.7838 56.3692 29.8046 56.2128 29.8462L50.5544 31.3734C50.1322 31.4868 49.7665 31.7514 49.5215 32.1143L49.5045 32.1407C49.2312 32.1124 48.9522 32.0991 48.6695 32.0991C48.1493 32.0991 47.6177 32.1464 47.09 32.239C45.1222 32.5868 43.0959 33.5885 41.0697 35.214C40.3478 35.7923 39.6315 36.452 38.9284 37.1759C38.6344 36.9869 38.297 36.8886 37.9558 36.8886C37.6712 36.8886 37.3847 36.9566 37.1208 37.0946C38.9303 33.3031 40.4232 29.9823 41.7162 26.8825C41.7162 26.8788 41.72 26.875 41.7218 26.8712C42.1516 25.8184 42.5927 24.5672 42.5927 23.2536C42.5927 21.0139 41.5183 19.7551 40.6173 19.0916C39.59 18.3356 38.199 17.9368 36.595 17.9368C35.9692 17.9368 35.3132 17.9973 34.646 18.1145C31.8507 18.6078 28.718 19.7645 25.5854 21.4618C22.5281 23.1175 19.5311 25.2495 16.9206 27.6272C14.163 30.1391 11.8653 32.9062 10.2726 35.6317C8.44804 38.7541 7.52444 41.8066 7.52444 44.7041C7.52444 46.4032 7.89388 48.006 8.56301 49.2176C9.48284 50.8827 10.9549 51.8315 12.7267 51.9071C11.0039 53.6573 9.37351 55.5266 7.96362 57.3865C5.25882 60.9511 2.03567 66.2396 2.03567 71.1821C2.03567 72.7603 2.47296 74.0342 3.33624 74.9717C3.95825 75.6465 5.10991 76.4516 7.05699 76.4516C7.51502 76.4516 8.00509 76.4063 8.51212 76.3174C9.68829 76.1095 10.8758 75.7126 12.2442 75.0681C14.5343 74.0059 17.2372 71.0687 19.1014 68.7893C21.1729 66.2585 23.2104 63.3005 24.1717 61.4255C25.2254 59.4296 26.3657 57.4072 27.4684 55.4491C28.8481 52.9996 30.2731 50.4744 31.5699 47.9266L32.2955 47.6356C31.6076 49.5086 31.2306 51.2758 31.2306 52.7709C31.2306 54.3018 31.5944 55.468 32.3427 56.3356C33.1513 57.273 34.3124 57.7493 35.792 57.7493C36.2576 57.7493 36.7684 57.7002 37.3093 57.6057C39.5505 57.2107 41.818 55.9632 44.0761 53.8898C44.7094 54.8027 45.633 55.3111 46.7092 55.3111C46.9109 55.3111 47.1183 55.2923 47.3237 55.2563C48.8655 54.9842 50.5638 53.8728 52.5448 51.8202C53.3063 52.7444 54.392 53.285 55.6756 53.285C55.9583 53.285 56.2505 53.2585 56.5445 53.2056C56.6143 53.1943 56.6821 53.1791 56.7519 53.1659C56.3429 53.6914 55.7001 54.2716 54.7859 54.4342C54.6578 54.4568 54.5315 54.4682 54.4109 54.4682C54.0414 54.4682 53.7417 54.3604 53.6079 54.179C53.2856 53.7424 52.7842 53.4759 52.2432 53.4494C52.215 53.4494 52.1848 53.4475 52.1565 53.4475C51.6476 53.4475 51.1594 53.663 50.8164 54.0448L50.6467 54.2338C50.2208 54.7063 50.0737 55.3679 50.2603 55.9765L51.6175 60.437C51.7098 60.7394 51.8776 61.0116 52.1075 61.2271C53.0519 62.1192 54.4033 62.6106 55.9131 62.6106C56.3278 62.6106 56.75 62.5728 57.1665 62.4991C59.189 62.1419 60.9646 61.023 62.3047 59.2595C64.6231 56.2448 66.2498 52.786 67.8256 49.4425C68.2289 48.5863 68.6097 47.7792 68.9998 46.9797C70.3211 44.2788 71.5124 41.5079 72.6659 38.8259C74.1418 35.3917 75.6685 31.8402 77.4592 28.4759C77.7853 27.8635 77.7325 27.1207 77.3272 26.5593C76.9842 26.0849 76.4376 25.8109 75.8646 25.8109" fill="white"/>
<path d="M103.318 14.8314C103.708 14.202 104.126 13.5651 104.564 12.9565C106.618 10.0873 107.943 9.39745 108.526 9.2368C108.526 11.0947 105.921 13.5405 103.318 14.8314ZM105.962 35.5731C105.906 35.3198 105.857 34.9532 105.857 34.4825C105.857 32.8797 107.154 30.0938 108.775 27.871C108.89 28.0506 109.016 28.2245 109.153 28.3927C109.589 28.9238 110.111 29.3566 110.692 29.6798C109.574 31.9271 108.375 33.6509 106.483 35.1875C106.381 35.2688 106.168 35.4389 105.962 35.5731ZM117.95 18.3035C117.796 18.0049 117.611 17.7365 117.402 17.4983C118.401 17.2432 119.371 16.9993 120.34 16.7895C119.731 18.0994 119.13 19.4092 118.555 20.6963C118.482 19.7248 118.286 18.9499 117.95 18.3035ZM158.26 3.61004C157.913 3.16587 157.388 2.91449 156.837 2.91449C156.728 2.91449 156.619 2.92395 156.507 2.94474C153.639 3.47774 150.758 4.06933 147.897 4.6836C147.716 4.62312 147.526 4.59099 147.332 4.59099C147.222 4.59099 147.113 4.60044 147.002 4.62123C145.882 4.82914 144.763 5.0465 143.641 5.26953C143.752 5.03516 143.86 4.7989 143.96 4.56075C144.216 3.95026 144.12 3.24715 143.707 2.72927C143.36 2.29455 142.838 2.04695 142.295 2.04695C142.192 2.04695 142.086 2.0564 141.982 2.0753C139.792 2.46277 137.73 3.1999 135.736 3.91434L135.578 3.97105C135.114 4.13737 134.739 4.48515 134.537 4.93499C134.53 4.95389 134.52 4.97279 134.513 4.99169C134.447 4.78378 134.343 4.58532 134.204 4.40765C133.857 3.97294 133.335 3.72534 132.792 3.72534C132.688 3.72534 132.583 3.73479 132.479 3.75369C130.289 4.14115 128.225 4.88017 126.23 5.59462L126.074 5.64943C125.61 5.81576 125.235 6.16353 125.034 6.61337C124.585 7.61322 124.089 8.67922 123.582 9.73011C121.756 10.3406 119.952 11.0456 118.201 11.7317C117.266 12.0984 116.299 12.4764 115.357 12.8279C115.053 12.9413 114.785 13.136 114.582 13.3893C114.101 13.9884 113.449 14.9127 113.342 16.0354C113.332 16.1318 113.332 16.2301 113.338 16.3246C113.325 16.3265 113.313 16.3284 113.3 16.3302C111.768 16.6005 110.279 17.4435 109.227 18.621C106.151 19.9819 103.016 22.7716 100.562 26.3439C98.0364 30.022 96.5869 33.9703 96.5869 37.174C96.5869 38.8429 96.8885 40.2321 97.4842 41.3038C97.9573 42.1543 98.6132 42.7951 99.4086 43.2033C98.9525 43.2525 98.5114 43.277 98.0703 43.277C96.9715 43.277 95.9687 43.1277 94.6983 42.9387C94.3854 42.8915 94.0631 42.8442 93.7238 42.797C93.72 42.797 93.7163 42.797 93.7125 42.797C92.5778 42.6439 91.5128 42.1865 90.3857 41.7026C90.1162 41.5873 89.8428 41.4701 89.5658 41.3548C89.9767 40.5837 90.3782 39.8144 90.7721 39.0603C91.477 37.7127 92.2046 36.3178 92.9567 34.9607C94.5475 32.0916 95.9461 29.1525 97.2994 26.3098C97.7424 25.3799 98.1985 24.4235 98.6584 23.4747C99.3558 23.2441 100.036 22.989 100.658 22.7244C103.54 21.596 107.212 19.1748 110.247 16.404C112.829 14.0451 116.033 10.4616 116.64 6.7797C116.652 6.71166 116.659 6.64172 116.663 6.57368C116.663 6.56612 116.665 6.55856 116.667 6.551C116.689 6.42436 116.721 6.23347 116.721 5.9991C116.721 4.3604 115.952 3.01467 114.557 2.20761C113.583 1.64436 112.343 1.35896 110.869 1.35896C110.19 1.35896 109.466 1.42323 108.775 1.54608C104.745 2.25675 100.971 4.42466 97.5577 7.98746C95.2374 10.4105 93.1093 13.4195 91.0737 17.16C90.6175 17.1071 90.1915 17.0352 89.7769 16.9407C89.5243 16.867 89.1115 16.5268 88.7458 15.9258C88.3821 15.3304 88.1483 14.6141 88.1483 14.1037C88.1483 14.0414 88.1483 13.9601 88.1502 13.9147C88.3293 13.4271 88.2897 12.8828 88.0409 12.4254C87.7846 11.9509 87.3303 11.6183 86.8025 11.5143L86.5198 11.4595C86.4029 11.4368 86.2861 11.4255 86.1711 11.4255C85.5906 11.4255 85.0383 11.7052 84.6952 12.1929L80.2827 18.4641C80.0679 18.7703 79.9529 19.1351 79.9529 19.5094V19.774C79.9529 23.1118 83.2175 25.4612 86.2427 25.7239C86.2616 25.7239 86.2785 25.7258 86.2955 25.7277C86.5273 25.7409 86.7498 25.7523 86.9684 25.7598C86.0825 27.665 85.0684 29.7384 83.8244 32.1955C83.8244 32.1993 83.8207 32.2012 83.8188 32.205C83.2194 33.4071 82.5578 34.6394 81.9169 35.8302C81.3119 36.9548 80.6917 38.1096 80.1074 39.2663C79.983 39.2625 79.8567 39.2625 79.7305 39.2625C78.7183 39.2625 77.6684 39.3608 76.5205 39.563C74.7355 39.8787 72.1627 40.5572 70.0516 42.005C67.6804 43.6286 66.4289 45.8627 66.4289 48.4634C66.4289 50.7712 67.5862 52.0451 68.5569 52.7085C69.6332 53.4438 71.028 53.8161 72.7055 53.8161C73.4048 53.8161 74.138 53.75 74.8844 53.6176C76.2585 53.3757 80.6823 52.4099 83.7283 49.6693C84.5407 49.8734 85.3436 50.1002 86.1277 50.3195C88.6968 51.0415 91.3526 51.7899 94.3873 51.7899C95.4786 51.7899 96.5398 51.6973 97.6274 51.5045C98.4643 51.3571 99.3276 51.1435 100.127 50.8884C100.342 50.8203 100.543 50.7107 100.719 50.5671L107.734 44.8401C108.428 44.2731 108.603 43.2827 108.147 42.5116L108.034 42.3207C107.872 42.0466 107.646 41.8274 107.384 41.6762C108.778 40.7198 110.135 39.4383 111.447 37.8355C112.307 36.7865 113.146 35.6015 113.96 34.2897C113.954 34.4069 113.95 34.5222 113.95 34.6356C113.95 35.3255 114.028 36.6637 114.55 37.896C115.234 39.5139 116.516 40.4419 118.065 40.4419C118.301 40.4419 118.542 40.4211 118.785 40.3777C120.263 40.1168 121.969 38.8959 124.178 36.4898C124.887 37.9395 126.108 38.7635 127.569 38.7635C127.804 38.7635 128.046 38.7428 128.289 38.6993C130.132 38.3742 132.332 36.5559 135.417 32.806C137.7 30.0333 139.918 26.8542 141.387 24.7505C141.764 24.21 142.09 23.7412 142.344 23.3878C142.857 22.6714 142.78 21.6886 142.161 21.0592L141.144 20.0235C140.802 19.6776 140.339 19.4848 139.858 19.4848C139.82 19.4848 139.783 19.4848 139.743 19.4886C139.221 19.5226 138.739 19.7796 138.422 20.1973C138.15 20.5527 137.764 21.0989 137.276 21.7888C136.629 22.7017 135.813 23.8546 134.967 24.983C135.133 24.571 135.312 24.1249 135.51 23.6467C136.814 20.4638 138.33 16.954 139.334 14.6311C139.513 14.2153 139.675 13.841 139.817 13.514C141.008 13.3383 142.199 13.1379 143.379 12.9262C143.645 12.8884 143.909 12.8506 144.173 12.8147C144.316 12.7958 144.453 12.758 144.585 12.707C145.17 12.5992 145.752 12.4896 146.329 12.3819C148.74 11.9302 151.233 11.4633 153.676 11.1363C154.087 11.0815 154.468 10.8849 154.752 10.5825C155.571 9.71121 157.57 7.46958 158.475 5.47933C158.754 4.86505 158.669 4.14493 158.255 3.61193" fill="white"/>
<path d="M37.954 38.7031L33.0891 41.2528C35.5225 36.3348 37.954 31.2032 40.0481 26.187C40.4439 25.2193 40.7832 24.2081 40.7832 23.2574C40.7832 20.7285 38.8813 19.7513 36.5931 19.7513C36.0615 19.7513 35.5112 19.8042 34.957 19.9006C24.2641 21.7869 9.32639 33.9306 9.32639 44.7059C9.32639 47.5581 10.5704 50.93 14.1913 49.9207L14.7002 49.777L20.3021 44.6681L20.189 44.3714C17.077 44.8156 15.4372 43.6248 15.4372 40.7198C15.4372 34.8038 23.3574 25.3251 29.751 24.1967C30.8253 24.0077 32.1843 24.1382 32.1843 25.3516C32.1843 25.6691 32.1278 25.9432 32.0147 26.2267C30.4879 30.141 29.129 34.0781 27.376 37.9792C26.4147 40.2095 25.3385 42.4057 24.3206 44.5925C22.907 45.7398 21.4349 46.8455 19.9647 47.9493C13.2884 52.8767 3.8395 63.3648 3.8395 71.1821C3.8395 73.7696 5.36814 75.0322 8.19546 74.5332C9.32639 74.3329 10.4027 73.9322 11.477 73.4256C14.9848 71.804 20.8694 63.8978 22.5658 60.5882C25.0557 55.8706 27.8849 51.2532 30.2599 46.5015L35.1813 44.5245C36.2557 42.8556 37.445 40.4835 37.954 38.7031ZM17.4182 59.8643C16.4569 61.5125 11.5901 68.9216 9.78065 69.241C9.65059 69.2637 9.52619 69.275 9.40932 69.275C8.46311 69.275 7.96927 68.553 7.96927 67.659C7.96927 66.6025 8.42165 65.4665 8.87402 64.4364C10.6288 60.4295 14.1932 55.4699 17.814 52.6121C19.1711 51.5272 20.9825 49.9925 22.5092 49.3007C20.9259 52.8541 19.3973 56.4528 17.4182 59.8643Z" fill="#D22027"/>
<path d="M69.3542 29.9936L65.6202 38.5216C65.0548 39.8371 64.5459 41.4059 63.8089 42.6439C63.2434 43.5889 61.6582 45.3467 60.4707 45.5565C59.5095 45.7266 59.1702 44.8893 59.1702 44.1484C59.1702 41.3492 63.9238 33.116 65.5071 30.3546C63.4696 30.8725 61.3208 31.6739 59.3964 32.6473C57.4304 35.6846 54.5767 41.2906 53.5551 45.4771C52.6749 46.5866 51.8945 47.3861 51.4195 47.4692C50.8541 47.5694 50.741 46.9022 50.741 46.5336C50.741 43.6286 54.9273 34.5449 56.6821 31.5945L51.0237 33.1217L50.3452 34.1385C49.4404 33.8758 48.4207 33.8437 47.4029 34.0232C40.3873 35.2612 33.0325 46.7529 33.0325 52.7747C33.0325 55.3093 34.2766 56.3053 36.9927 55.8253C40.1046 55.2752 42.8773 52.7803 44.9129 50.414C44.9695 51.565 45.3088 53.7764 47.007 53.4778C48.7996 53.1621 51.0445 50.9848 53.1781 48.3651C53.2422 50.0492 54.1074 51.8013 56.2298 51.4271C58.5501 51.0169 60.7554 48.3576 62.0013 46.6055L62.1709 46.7869C61.04 49.1533 59.9072 51.7824 58.3804 54.0051C57.5888 55.1486 56.4559 55.9821 55.0988 56.2222C53.9114 56.432 52.7785 56.1031 52.1565 55.262L51.9869 55.451L53.3459 59.9116C54.1941 60.713 55.5531 60.9474 56.8537 60.7187C58.4935 60.4295 59.8525 59.5033 60.8703 58.1614C63.643 54.5551 65.4525 50.1172 67.3769 46.1859C70.3758 40.0583 72.6395 33.6906 75.8646 27.6291C73.7139 28.009 71.3955 29.1053 69.358 29.9917L69.3542 29.9936ZM45.026 47.9663C44.0647 49.0871 42.3665 50.7599 40.8963 51.0188C40.7907 51.0377 40.6927 51.0471 40.6003 51.0471C39.7484 51.0471 39.426 50.2987 39.426 49.537C39.426 46.3144 44.2909 36.4255 48.1964 35.7356C48.6488 35.6563 49.0446 35.6922 49.4404 35.781C47.5725 39.0149 45.4803 44.5604 45.0279 47.9682L45.026 47.9663Z" fill="#D22027"/>
<path d="M100.715 44.8855C97.8291 45.3939 96.1327 45.0084 93.4731 44.6322C91.0963 44.3128 89.2303 43.0049 86.9665 42.4001C88.4952 39.6481 89.8523 36.8735 91.379 34.1215C93.5862 30.141 95.3957 26.0717 97.3767 22.025C98.2249 21.7699 99.1297 21.4524 99.9797 21.0895C105.186 19.0614 113.954 12.0209 114.859 6.52643C114.859 6.36766 114.916 6.19945 114.916 6.04068C114.916 3.88599 112.904 3.21313 110.869 3.21313C110.26 3.21313 109.649 3.27361 109.087 3.37189C100.998 4.7989 95.5653 12.4669 92.1141 19.0954C91.1528 19.0538 90.2462 18.9499 89.3415 18.7401C87.6451 18.2997 86.3426 15.8369 86.3426 14.1453C86.3426 13.8807 86.3426 13.6161 86.4557 13.3326L86.173 13.2759L81.7605 19.5472V19.8118C81.7605 22.0836 84.1939 23.7658 86.3992 23.9586C87.5301 24.0229 88.6629 24.0342 89.7938 23.9397C88.4367 27.0319 86.9646 30.0371 85.4379 33.0536C84.0808 35.7753 82.4956 38.4857 81.195 41.1961C79.7814 41.0241 78.3093 41.1242 76.8391 41.3832C72.9355 42.0712 68.2383 44.0633 68.2383 48.4993C68.2383 51.7748 71.5199 52.4099 74.5753 51.8712C77.4045 51.3722 81.0819 50.036 83.176 47.7131C87.9278 48.7753 91.8879 50.7183 97.3202 49.76C98.0553 49.6296 98.8469 49.4387 99.5839 49.2024L106.599 43.4755L106.486 43.2846C104.564 43.9405 102.639 44.5472 100.715 44.8855ZM108.352 7.46391C109.766 7.21442 110.333 8.06495 110.333 9.28027C110.333 12.6068 105.921 15.922 102.865 17.0409C101.735 17.4511 100.545 17.8196 99.4143 18.1258C100.941 15.2151 104.732 8.10275 108.352 7.46391ZM73.7837 50.0076C73.4218 50.0719 72.894 50.1569 72.3945 50.155C71.6462 50.155 70.9545 49.966 70.9545 49.2383C70.9545 47.7074 73.5575 46.4543 74.858 46.2256C76.0455 46.0158 77.2914 46.2709 78.4224 46.441C77.5176 47.921 75.5366 49.6976 73.7837 50.0076Z" fill="#D22027"/>
<path d="M156.837 4.77055C153.612 5.3697 150.404 6.0369 147.194 6.73434C147.243 6.63794 147.29 6.54155 147.332 6.44705C144.983 6.88365 142.644 7.35806 140.305 7.85137C140.951 6.52265 141.737 5.23551 142.295 3.90301C140.201 4.27346 138.222 4.99169 136.185 5.72126C135.691 6.82128 135.155 7.96667 134.613 9.08559C133.272 9.38233 131.928 9.68286 130.585 9.98338C131.263 8.49022 132.168 7.06321 132.792 5.5795C130.698 5.94807 128.719 6.66819 126.681 7.39775C126.115 8.66033 125.493 9.98338 124.87 11.2554C121.871 12.208 118.928 13.4668 115.988 14.5668C115.592 15.0582 115.196 15.6574 115.14 16.249C117.29 15.7103 119.383 15.1301 121.533 14.7501L123.456 14.4099C122.169 17.2318 119.662 22.3936 117.86 27.0092C117.803 27.0224 117.745 27.0375 117.686 27.047C117.064 27.1566 116.442 26.9506 115.988 26.6066C116.553 25.1342 116.78 23.1402 116.78 21.6603C116.78 19.8155 116.418 18.0786 114.392 18.0786C114.154 18.0786 113.894 18.1031 113.611 18.1523C112.367 18.3715 111.121 19.12 110.33 20.1577C104.162 22.6185 98.3908 31.3488 98.3908 37.2118C98.3908 39.7993 99.239 42.4492 102.521 41.8708C108.349 40.8426 112.648 33.5337 114.912 28.8029C115.645 28.9181 116.378 28.9862 117.157 28.8766C116.322 31.2184 115.76 33.2956 115.76 34.6753C115.76 36.2592 116.269 39.0225 118.476 38.6331C120.203 38.3288 122.821 35.5372 125.297 32.4129C125.279 32.6189 125.265 32.8155 125.265 32.9988C125.265 34.5827 125.774 37.346 127.982 36.9566C131.489 36.3386 138.674 25.4574 140.882 22.3747L139.864 21.3389C138.563 23.0476 133.696 30.4567 131.887 30.7742C131.435 30.8536 131.322 30.5039 131.322 30.1354C131.322 28.4003 137.378 14.7067 138.548 11.9396C138.901 11.8753 139.253 11.813 139.606 11.7506C140.704 11.5881 141.801 11.4066 142.898 11.2119C143.245 11.1609 143.592 11.1061 143.939 11.0588C143.952 11.0456 143.965 11.0305 143.977 11.0172C147.128 10.4408 150.274 9.80571 153.442 9.38044C154.63 8.11409 156.159 6.25993 156.837 4.76677V4.77055ZM107.615 36.6429C107.106 37.0493 106.541 37.467 105.919 37.5766C105.821 37.5936 105.727 37.603 105.638 37.603C104.251 37.603 104.051 35.5693 104.051 34.526C104.051 31.4622 107.106 26.4346 109.653 24.2421L109.766 24.2742C109.37 26.4044 110.954 28.5534 113.217 28.5779C111.86 31.6701 110.445 34.3483 107.615 36.6448V36.6429ZM126.117 28.8312C124.657 30.7005 123.205 32.3071 122.383 32.4526C121.931 32.532 121.818 32.1823 121.818 31.8137C121.818 30.0711 127.929 16.2641 129.06 13.5821C130.324 13.412 131.587 13.2097 132.846 12.9905C131.169 16.644 127.718 23.7356 126.119 28.8331L126.117 28.8312Z" fill="#D22027"/>
<path d="M9.17371 70.4318C10.9832 70.1123 15.85 62.7051 16.8112 61.0551C17.4596 59.9381 18.0572 58.8021 18.6264 57.6549C18.24 58.3976 17.8385 59.1348 17.4163 59.8625C16.455 61.5106 11.5882 68.9197 9.77876 69.2391C8.59129 69.4489 7.96739 68.6608 7.96739 67.6571C7.96739 66.6006 8.41976 65.4646 8.87213 64.4345C8.9758 64.1983 9.08701 63.9564 9.20199 63.7144C8.8514 64.3684 8.53662 65.0091 8.2652 65.6272C7.81283 66.6573 7.36046 67.7932 7.36046 68.8498C7.36046 69.8534 7.98435 70.6416 9.17371 70.4318Z" fill="#F26822"/>
<path d="M19.2786 45.6056L20.3021 44.6719L20.189 44.3752C17.077 44.8193 15.4372 43.6286 15.4372 40.7236C15.4372 39.323 15.882 37.7221 16.6435 36.0796C15.5163 38.1304 14.8302 40.1773 14.8302 41.9143C14.8302 44.723 16.3645 45.9269 19.2767 45.6037" fill="#F26822"/>
<path d="M19.3577 49.1457C20.8279 48.0419 22.3 46.9362 23.7137 45.789C23.889 45.4109 24.068 45.0329 24.2452 44.6549C22.8523 45.7814 21.4085 46.8682 19.9628 47.9531C15.0413 51.5858 8.61579 58.2389 5.57548 64.616C8.80239 58.615 14.7417 52.5516 19.3577 49.1457Z" fill="#F26822"/>
<path d="M34.352 21.0951C37.2943 20.5754 40.18 21.3333 40.18 24.45C40.18 25.4007 39.8407 26.4119 39.4449 27.3796C37.3508 32.3959 34.9193 37.5274 32.4859 42.4454L37.3508 39.8957C37.1039 40.7614 36.6949 41.7688 36.2161 42.7648C36.9437 41.4096 37.6071 39.9184 37.9558 38.7031L33.091 41.2528C35.5243 36.3348 37.9558 31.2032 40.0499 26.187C40.4458 25.2193 40.7851 24.2081 40.7851 23.2574C40.7851 20.1406 37.8993 19.3827 34.957 19.9025C26.3525 21.4202 15.0055 29.5797 10.8965 38.3213C15.4277 30.0408 26.1395 22.5448 34.352 21.0951Z" fill="#F26822"/>
<path d="M48.8335 36.9718C48.8222 36.9699 48.809 36.9661 48.7977 36.9642C48.6808 37.1929 48.564 37.4273 48.449 37.6673C48.579 37.4254 48.7053 37.1929 48.8335 36.9718Z" fill="#F26822"/>
<path d="M40.2912 52.2114C41.7614 51.9525 43.4597 50.2798 44.421 49.159C44.4474 48.9567 44.4813 48.7469 44.519 48.5315C43.5332 49.5804 42.1346 50.8014 40.8963 51.0188C39.8219 51.2078 39.4261 50.3799 39.4261 49.5351C39.4261 48.2876 40.1555 46.0441 41.2751 43.7193C39.82 46.441 38.821 49.2686 38.821 50.7277C38.821 51.5726 39.2168 52.4004 40.2912 52.2114Z" fill="#F26822"/>
<path d="M46.7978 35.2178C47.8157 35.0382 48.8354 35.0703 49.7401 35.3331L50.4187 34.3162L56.0074 32.8079C56.2562 32.3392 56.4842 31.929 56.6821 31.5964L51.0237 33.1236L50.3452 34.1404C49.4404 33.8777 48.4207 33.8456 47.4029 34.0251C42.5305 34.8851 37.4959 40.6895 34.8741 46.1745C37.6185 41.0694 42.2779 36.0154 46.7978 35.2178Z" fill="#F26822"/>
<path d="M50.8145 48.6638C51.2914 48.5806 52.0698 47.7792 52.9501 46.6697C53.0029 46.4505 53.0632 46.2275 53.1254 46.0025C52.4242 46.8323 51.8154 47.4012 51.4196 47.4711C50.8541 47.5713 50.741 46.9041 50.741 46.5355C50.741 44.2731 53.2818 38.2608 55.2327 34.3181C53.2517 38.1171 50.1341 45.2219 50.1341 47.7263C50.1341 48.0967 50.2472 48.762 50.8126 48.6619" fill="#F26822"/>
<path d="M64.1142 52.9278C65.2866 50.6767 66.3139 48.3538 67.3732 46.1878C70.0591 40.699 72.157 35.0193 74.8825 29.5381C71.8535 35.3841 69.6501 41.4928 66.7681 47.3804C65.8935 49.1665 65.0416 51.0585 64.1142 52.9278Z" fill="#F26822"/>
<path d="M54.4919 57.4167C55.849 57.1767 56.9818 56.3431 57.7735 55.1996C58.6047 53.9881 59.3191 52.6575 59.9807 51.3136C59.4906 52.2455 58.9628 53.1565 58.3785 54.007C57.5869 55.1505 56.4541 55.984 55.097 56.2241C53.9095 56.4339 52.7767 56.105 52.1547 55.2639L51.985 55.4529L52.5241 57.222C53.0971 57.4753 53.7832 57.5414 54.4919 57.4167Z" fill="#F26822"/>
<path d="M69.3542 29.9936L68.8509 31.1409C70.8583 30.2639 73.1277 29.2017 75.2388 28.8255C75.4424 28.4248 75.6497 28.0279 75.8608 27.6291C73.7102 28.009 71.3917 29.1053 69.3542 29.9917" fill="#F26822"/>
<path d="M59.8657 46.7491C61.0532 46.5393 62.6384 44.7815 63.2038 43.8365C63.4319 43.4509 63.6392 43.0351 63.8315 42.6042C63.824 42.6174 63.8164 42.6306 63.8089 42.6439C63.2434 43.5889 61.6582 45.3467 60.4707 45.5565C59.5095 45.7266 59.1702 44.8874 59.1702 44.1484C59.1702 42.8064 60.2634 40.2132 61.5753 37.5747C60.0108 40.5969 58.5651 43.7968 58.5651 45.341C58.5651 46.08 58.9044 46.9192 59.8657 46.7491Z" fill="#F26822"/>
<path d="M64.8116 31.5718C65.0812 31.1012 65.3168 30.6873 65.5072 30.3565C63.4696 30.8744 61.3208 31.6758 59.3964 32.6492C58.5501 33.9552 57.5416 35.7356 56.5841 37.6749C57.3513 36.2044 58.1222 34.8738 58.7913 33.8418C60.6856 32.8835 62.8005 32.0916 64.8116 31.5718Z" fill="#F26822"/>
<path d="M73.1767 51.1568C74.9297 50.8468 76.9107 49.072 77.8154 47.5921C77.7268 47.5789 77.6382 47.5656 77.5478 47.5505C76.528 48.6846 75.0899 49.7335 73.7799 49.9641C72.8751 50.1229 70.9507 50.4102 70.9507 49.1949C70.9507 49.1609 70.9545 49.1249 70.9563 49.0909C70.5869 49.4841 70.3456 49.9226 70.3456 50.3875C70.3456 51.6028 72.2682 51.3155 73.1748 51.1568" fill="#F26822"/>
<path d="M106.484 43.243C104.562 43.8989 102.637 44.5037 100.713 44.842C97.8272 45.3505 96.1308 44.9649 93.4712 44.5888C91.1095 44.2712 89.2491 42.9765 87.0042 42.3679C86.7912 42.7629 86.5782 43.1561 86.3596 43.5492C88.6233 44.154 90.4894 45.462 92.8662 45.7814C95.5258 46.1575 97.2222 46.545 100.108 46.0347C101.744 45.7455 103.38 45.2654 105.016 44.7248L106.596 43.4339L106.484 43.243Z" fill="#F26822"/>
<path d="M92.7418 31.5189C94.1649 28.7518 95.456 25.9545 96.8018 23.1629C96.7905 23.1666 96.7811 23.1704 96.7698 23.1723C95.4089 25.9545 94.1291 28.7499 92.7418 31.5189Z" fill="#F26822"/>
<path d="M85.8507 14.4836C85.7376 14.7672 85.7376 15.0318 85.7376 15.2964C85.7376 16.9861 87.0381 19.4508 88.7364 19.8911C89.6412 20.1009 90.5459 20.2049 91.5091 20.2465C94.9603 13.6161 100.393 5.94996 108.482 4.52295C110.916 4.0939 114.31 4.39254 114.31 7.19174C114.31 7.3505 114.254 7.51872 114.254 7.67748C114.154 8.28609 113.956 8.91548 113.677 9.55244C114.28 8.50534 114.697 7.46958 114.859 6.48485C114.859 6.32608 114.916 6.15787 114.916 5.9991C114.916 3.1999 111.521 2.90127 109.087 3.33031C100.998 4.75732 95.5653 12.4235 92.1141 19.0538C91.1528 19.0123 90.2462 18.9083 89.3415 18.6985C87.6432 18.2581 86.3426 15.7935 86.3426 14.1037C86.3426 13.8391 86.3426 13.5745 86.4557 13.291L86.173 13.2362L81.7605 19.5075V19.7721C81.7605 19.7948 81.7605 19.8155 81.7624 19.8363L85.5679 14.4288L85.8507 14.4836Z" fill="#F26822"/>
<path d="M84.9327 34.0062C83.8169 36.1647 82.5993 38.3156 81.5305 40.4665C82.6106 38.3818 83.7867 36.297 84.8309 34.2047C84.8649 34.1385 84.8988 34.0705 84.9327 34.0043" fill="#F26822"/>
<path d="M109.431 11.9642C107.981 14.2379 105.069 16.1904 102.864 16.9993C101.742 17.4057 100.568 17.7705 99.4463 18.0748C99.2032 18.5227 98.9902 18.9291 98.8073 19.2769C99.9383 18.9726 101.128 18.604 102.259 18.192C104.841 17.245 108.394 14.7275 109.431 11.9642Z" fill="#F26822"/>
<path d="M76.2321 42.5361C77.7023 42.2772 79.1744 42.1751 80.5881 42.349C80.7785 41.9502 80.9764 41.5533 81.178 41.1564C79.7682 40.9863 78.3017 41.0865 76.8372 41.3454C73.5405 41.9275 69.6803 43.4358 68.5588 46.5639C70.1195 44.2353 73.386 43.0408 76.2321 42.538" fill="#F26822"/>
<path d="M109.726 21.3087C110.518 20.2711 111.764 19.5226 113.008 19.3033C115.724 18.8233 116.177 20.7511 116.177 22.8113C116.177 24.2894 115.95 26.2853 115.385 27.7576C115.837 28.0997 116.459 28.3077 117.083 28.198C117.142 28.1886 117.198 28.1735 117.257 28.1602C117.407 27.7765 117.562 27.3891 117.72 26.9997C117.711 26.9997 117.699 27.0054 117.69 27.0073C117.068 27.1169 116.446 26.909 115.994 26.5669C116.559 25.0945 116.785 23.1005 116.785 21.6206C116.785 19.5604 116.333 17.6344 113.617 18.1126C112.373 18.3318 111.127 19.0803 110.335 20.118C106.179 21.7774 102.202 26.2834 100.051 30.8404C102.294 26.7086 105.936 22.8245 109.73 21.3106" fill="#F26822"/>
<path d="M114.041 30.5039C114.137 30.3187 114.233 30.1354 114.324 29.9558C114.318 29.9558 114.312 29.9558 114.309 29.9539C114.222 30.1335 114.133 30.3187 114.041 30.5039Z" fill="#F26822"/>
<path d="M105.312 38.7257C105.934 38.6161 106.5 38.1984 107.01 37.792C109.342 35.9001 110.712 33.7473 111.883 31.3185C110.835 33.2672 109.559 35.0231 107.615 36.5994C107.106 37.0058 106.541 37.4235 105.917 37.5331C104.277 37.8223 104.049 35.592 104.049 34.4825C104.049 33.3296 104.481 31.8988 105.158 30.4472C104.147 32.2881 103.444 34.2066 103.444 35.6752C103.444 36.7846 103.67 39.0149 105.312 38.7257Z" fill="#F26822"/>
<path d="M140.09 8.26341C142.465 7.7323 144.83 7.20308 147.194 6.69087C147.243 6.59447 147.29 6.49808 147.332 6.40357C144.985 6.84018 142.648 7.3127 140.312 7.80601C140.288 7.85326 140.263 7.90051 140.239 7.94588C140.188 8.05172 140.139 8.15567 140.092 8.26152" fill="#F26822"/>
<path d="M134.339 9.54677C134.418 9.38233 134.496 9.21601 134.575 9.04968C133.248 9.34453 131.917 9.64127 130.585 9.9399C130.634 9.83406 130.683 9.72822 130.732 9.62426C130.473 10.1138 130.219 10.6052 129.993 11.1042C131.433 10.5485 132.878 10.0117 134.339 9.54677Z" fill="#F26822"/>
<path d="M122.382 32.4091C121.929 32.4885 121.816 32.1388 121.816 31.7703C121.816 30.2091 126.717 18.9726 128.553 14.7161C128.519 14.7199 128.485 14.7256 128.453 14.7294C127.322 17.4114 121.211 31.2184 121.211 32.961C121.211 33.3315 121.324 33.6811 121.776 33.5999C122.598 33.4543 124.048 31.8515 125.509 29.9823C125.584 29.7441 125.661 29.5041 125.744 29.2584C124.413 30.9197 123.134 32.2749 122.382 32.4091Z" fill="#F26822"/>
<path d="M131.862 7.4469C132.198 6.81372 132.522 6.18055 132.792 5.53603C130.698 5.90459 128.719 6.62471 126.681 7.35428C126.509 7.73797 126.33 8.12732 126.149 8.52046C128.161 7.80034 130.117 7.09345 132.187 6.72867C132.085 6.96871 131.977 7.20875 131.862 7.4469Z" fill="#F26822"/>
<path d="M124.266 12.4046C124.457 12.0152 124.647 11.6202 124.836 11.2233C121.85 12.174 118.919 13.4271 115.988 14.5233C115.641 14.9543 115.294 15.4684 115.176 15.9844C115.243 15.8918 115.313 15.801 115.383 15.7141C118.325 14.6141 121.268 13.3553 124.266 12.4027" fill="#F26822"/>
<path d="M130.715 31.2845C130.715 31.655 130.828 32.0046 131.28 31.9234C133.091 31.6039 137.956 24.1967 139.257 22.4881L140.139 23.384C140.426 22.9739 140.674 22.6185 140.88 22.3293L139.862 21.2936C138.561 23.0022 133.695 30.4094 131.885 30.7288C131.433 30.8082 131.32 30.4586 131.32 30.09C131.32 28.5326 136.196 17.349 138.043 13.068C138.009 13.0736 137.975 13.0812 137.941 13.0869C136.773 15.8521 130.715 29.5494 130.715 31.2845Z" fill="#F26822"/>
<path d="M141.368 5.7704C141.703 5.13722 142.028 4.50405 142.297 3.85953C140.203 4.22999 138.224 4.94822 136.186 5.67779C136.015 6.06147 135.836 6.45083 135.655 6.84396C137.666 6.12384 139.623 5.41696 141.692 5.05217C141.59 5.29221 141.483 5.53225 141.368 5.7704Z" fill="#F26822"/>
<path d="M140.237 7.94588C140.052 8.29554 139.871 8.6452 139.7 8.99865C142.037 8.50534 144.378 8.03093 146.727 7.59432C146.683 7.68883 146.638 7.78333 146.589 7.88161C149.776 7.18985 152.962 6.52643 156.166 5.93106C156.432 5.51713 156.662 5.10887 156.837 4.72708C153.612 5.32623 150.404 5.99343 147.194 6.69087C144.83 7.20308 142.465 7.7323 140.09 8.26341C140.139 8.15756 140.188 8.04983 140.237 7.94588Z" fill="#F26822"/>
<path d="M129.979 11.1325C131.325 10.832 132.667 10.5315 134.009 10.2348C134.121 10.0061 134.23 9.77736 134.339 9.54677C132.878 10.0117 131.433 10.5485 129.993 11.1042C129.989 11.1136 129.983 11.1231 129.979 11.1325Z" fill="#F26822"/>
<path d="M143.332 12.208C143.345 12.1948 143.357 12.1796 143.37 12.1664C143.081 12.2193 142.791 12.2723 142.503 12.3233C142.78 12.2836 143.055 12.2458 143.332 12.208Z" fill="#F26822"/>
<path d="M139.7 8.99865C139.626 9.14985 139.555 9.30106 139.485 9.45416C141.86 8.92304 144.225 8.39382 146.589 7.88161C146.638 7.78522 146.685 7.68883 146.727 7.59432C144.376 8.03093 142.037 8.50534 139.7 8.99865Z" fill="#F26822"/>
<path d="M137.956 13.051C137.951 13.0623 137.945 13.0755 137.941 13.0888C137.975 13.0831 138.009 13.0755 138.043 13.0699C138.292 13.0245 138.539 12.9791 138.788 12.9357C138.51 12.9754 138.233 13.0132 137.956 13.051Z" fill="#F26822"/>
<path d="M28.4937 80.487C27.4966 78.7708 27.065 76.584 25.804 75.07L24.9068 74.9188L21.1201 83.3391C20.0909 84.1405 18.3305 85.1025 17.1336 85.5921L25.8021 64.6217C27.3967 63.8448 29.1893 63.1871 30.8838 62.8261L26.1018 72.4144C26.5335 72.4315 26.999 72.3804 27.4307 72.3048C28.8255 72.0591 30.1543 71.2974 31.3833 70.4903C33.7752 68.9216 35.9334 66.5855 35.9334 63.9205C35.9334 60.8812 33.2436 59.9305 30.2881 60.4522C29.259 60.6336 28.2619 60.9965 27.2987 61.4766C25.4063 62.4311 24.8069 62.9697 23.5459 64.5574C22.8146 65.4609 22.251 66.6157 22.251 67.6704C22.251 67.8575 22.251 68.0427 22.3509 68.1807L17.7348 72.3143C17.535 72.0081 17.4691 71.6168 17.4691 71.2445C17.4691 65.2605 29.6247 58.494 35.006 57.5452C37.8616 57.0406 40.6852 57.876 40.6852 60.8831C40.6852 65.2548 33.8091 70.53 30.0243 72.8114C31.485 75.2817 32.4822 78.0204 33.9429 80.4907C34.5744 81.5889 35.3377 82.91 36.9983 82.6171C38.2612 82.394 39.0585 81.6342 40.0537 80.8064L40.4854 81.3507C38.6909 82.9384 37.364 84.1348 35.006 84.5506C31.3531 85.1951 29.9244 82.997 28.4956 80.4907" fill="white"/>
<path d="M40.1498 76.601C40.5155 76.5367 40.8472 76.291 41.1469 76.0528C42.8075 74.7052 43.6388 73.1327 44.4342 71.3182C43.1053 71.305 42.1761 70.0424 42.4079 68.7931L42.342 68.7742C40.8472 70.0613 39.0547 73.0136 39.0547 74.8111C39.0547 75.4631 39.1867 76.7711 40.1498 76.601ZM35.7336 76.3874C35.7336 72.9456 39.1207 67.8216 42.7416 66.3757C43.2071 65.767 43.9366 65.3267 44.6679 65.1981C46.2625 64.9165 46.5283 66.0487 46.5283 67.2583C46.5283 68.1259 46.3963 69.2977 46.0627 70.1615C46.3285 70.3618 46.6941 70.4847 47.0598 70.4204C47.7911 70.2919 48.4546 69.6152 48.9202 69.069C49.12 69.2505 49.3179 69.4319 49.5516 69.5774C48.8882 70.5017 47.9909 71.2785 46.8619 71.4789C46.3643 71.5677 45.8987 71.5242 45.4332 71.4524C44.1043 74.2289 41.5805 78.5194 38.1594 79.1242C36.2331 79.4644 35.7355 77.9089 35.7355 76.3893" fill="white"/>
<path d="M51.1444 74.6599C51.51 74.5956 51.8418 74.3499 52.1415 74.1117C53.802 72.7641 54.6333 71.1916 55.4287 69.3771C54.0998 69.3639 53.1706 68.1013 53.4024 66.852L53.3365 66.8331C51.8418 68.1202 50.0492 71.0725 50.0492 72.87C50.0492 73.522 50.1831 74.83 51.1444 74.6599ZM46.7262 74.4482C46.7262 71.0063 50.1133 65.8823 53.7342 64.4364C54.1997 63.8278 54.9292 63.3874 55.6605 63.2589C57.2551 62.9773 57.5209 64.1095 57.5209 65.3191C57.5209 66.1866 57.389 67.3585 57.0553 68.2223C57.3211 68.4226 57.6868 68.5455 58.0524 68.4812C58.7838 68.3527 59.4473 67.676 59.9128 67.1298C60.1126 67.3112 60.3105 67.4946 60.5443 67.6382C59.8808 68.5625 58.9836 69.3393 57.8545 69.5396C57.3569 69.6285 56.8914 69.585 56.4258 69.5132C55.097 72.2897 52.5731 76.5802 49.152 77.185C47.2257 77.5252 46.7281 75.9697 46.7281 74.4501" fill="white"/>
<path d="M52.6051 80.4794L51.6759 77.8219L51.7419 77.718C52.2074 78.1622 52.9708 78.3379 53.7021 78.2094C54.2996 78.1036 54.8651 77.7558 55.2968 77.3078C56.4918 76.0736 58.2862 70.9515 59.0175 69.1786C59.3172 68.4755 59.6489 67.7951 59.9468 67.092C59.4152 67.2791 58.8498 67.4398 58.3182 67.6269C58.3842 67.1808 58.5501 66.7178 58.7159 66.2849C59.3794 65.9201 60.0787 65.6102 60.7422 65.2756C62.137 62.0833 63.4998 58.804 65.9558 56.0464C67.2846 54.54 69.2109 52.7747 71.2372 52.4175C73.0297 52.1018 73.761 52.8711 73.761 54.4833C73.761 55.4756 73.4293 56.5567 72.9637 57.5377C72.0006 58.0801 71.0374 58.6226 70.0082 58.959C70.3739 58.15 70.7716 57.1181 70.7716 56.2827C70.7716 55.8479 70.6397 55.2828 70.0403 55.3886C68.1479 55.7232 65.3243 62.0512 64.593 63.6067C66.885 62.6749 69.3429 61.9926 71.7009 61.3594C70.8037 63.1928 67.8142 68.2771 67.8142 70.014C67.8142 70.1993 67.8482 70.5357 68.146 70.4828C69.1431 70.307 71.9987 65.803 72.5641 64.9279L73.2615 65.3002C72.2324 67.0939 68.014 73.575 65.756 73.9738C64.593 74.1779 64.2612 72.8416 64.2612 71.9741C64.2612 69.9592 65.69 67.3188 66.6852 65.3758C65.6221 65.5951 64.527 65.8502 63.4639 66.0997C62.0032 69.396 59.0797 76.6407 57.0535 79.2924C56.422 80.0863 55.5267 80.8328 54.5296 81.0086C53.7662 81.1428 53.1009 80.8877 52.6033 80.4813" fill="white"/>
<path d="M74.892 71.2143C74.892 69.292 76.8843 66.7083 76.8843 65.3739C76.8843 65.2492 76.8504 65.0999 76.6845 65.1301C76.4526 65.1717 76.2189 65.3985 76.0531 65.5213C74.0607 67.0825 72.1005 70.2182 71.0053 72.3351C70.1081 72.8662 69.1129 73.2896 68.1158 73.4956C69.8763 69.3091 71.7028 65.1414 73.4972 60.9814C74.7921 60.5051 76.1209 60.0836 77.4498 59.819C76.6524 61.3859 75.8891 62.9471 75.0578 64.5196L75.1577 64.5631C76.4206 63.1928 79.8417 59.7056 81.6342 59.3899C82.0319 59.32 82.2317 59.4712 82.2317 59.8436C82.2317 61.2082 79.0764 66.0751 79.0764 68.2771C79.0764 68.3697 79.1103 68.519 79.2423 68.4963C80.0396 68.3565 83.4606 63.6596 84.0921 62.7732L84.5897 63.429C83.3607 65.321 78.2791 72.0156 76.087 72.4031C75.2237 72.5562 74.892 71.9325 74.892 71.218" fill="white"/>
<path d="M85.6848 68.2846C86.3162 68.1731 87.5452 66.9956 87.8769 66.472C88.3086 65.837 89.0719 63.533 89.4376 62.6919C89.9032 61.6183 90.3009 60.524 90.7664 59.4504C90.5666 59.3918 90.3348 59.4334 90.135 59.4693C87.4113 59.9494 84.9195 65.0413 84.9195 67.2413C84.9195 67.7063 85.0534 68.3961 85.6848 68.2846ZM82.3297 75.6049L81.3986 72.9474L81.4645 72.8435C81.9301 73.2877 82.7274 73.4578 83.4569 73.3292C85.3493 72.9947 86.6461 70.1615 87.4095 68.6626L87.3096 68.6173C86.4124 69.706 85.1174 71.1122 83.6567 71.3711C82.096 71.6471 81.1988 71.1235 81.1988 69.6663C81.1988 66.1942 85.4171 59.1234 89.5017 58.4033C90.0992 58.2975 90.6967 58.3164 91.2282 58.4392L91.5939 57.7853L95.1469 56.6002C93.3205 60.2707 92.0255 64.1586 90.397 67.8877C89.4338 70.1048 87.0758 75.637 84.2184 76.1398C83.455 76.274 82.8235 76.0131 82.3259 75.6049" fill="white"/>
<path d="M104.65 69.5264L103.887 67.1506L103.953 67.0466C104.253 67.3037 104.684 67.3509 105.116 67.2753C106.079 67.1052 106.976 66.4815 107.674 65.7708C110.132 63.2287 116.011 50.2836 116.011 47.3086C116.011 46.4089 115.213 46.1462 114.35 46.2993C110.531 46.974 106.313 52.7407 106.313 56.1825C106.313 56.6172 106.379 57.0708 106.545 57.4432C106.976 58.3277 108.837 58.4336 109.834 58.0726L109.9 58.2464L106.513 61.5427L106.213 61.5957C103.655 62.0474 102.758 60.5315 102.758 58.4222C102.758 51.8485 111.195 44.7778 117.737 43.6229C119.298 43.347 120.561 43.621 120.561 45.2635C120.561 46.0687 120.295 46.8928 119.995 47.6885C118.335 52.1056 116.508 56.3356 114.282 60.6336C113.087 62.9527 111.327 66.4569 109.466 68.3659C108.703 69.1522 107.74 69.8496 106.677 70.0367C105.879 70.1766 105.182 69.9592 104.65 69.5264Z" fill="white"/>
<path d="M121.788 62.9376C121.788 61.0154 123.78 58.4317 123.78 57.0973C123.78 56.9725 123.746 56.8232 123.58 56.8535C123.348 56.895 123.115 57.1218 122.949 57.2447C120.957 58.8059 118.996 61.9415 117.901 64.0584C117.004 64.5895 116.009 65.0129 115.012 65.2189C116.772 61.0324 118.599 56.8648 120.393 52.7047C121.688 52.2284 123.017 51.807 124.346 51.5423C123.548 53.1092 122.785 54.6704 121.954 56.243L122.054 56.2864C123.316 54.9161 126.736 51.4289 128.53 51.1133C128.928 51.0434 129.128 51.1946 129.128 51.565C129.128 52.9297 125.972 57.7966 125.972 59.9985C125.972 60.0912 126.006 60.2405 126.138 60.2178C126.935 60.0779 130.356 55.3811 130.988 54.4946L131.486 55.1505C130.257 57.0425 125.175 63.7371 122.983 64.1246C122.12 64.2777 121.788 63.6521 121.788 62.9376Z" fill="white"/>
<path d="M128.696 59.9815C128.696 59.3616 128.762 58.7303 128.928 58.1104C129.725 54.8991 133.744 49.4784 137.43 48.8263C138.925 48.5617 139.988 49.0267 139.988 50.5141C139.988 50.8241 139.922 51.1454 139.854 51.4667C139.025 51.9241 137.462 52.7255 136.599 52.9712C136.733 52.6688 136.865 52.304 136.865 51.9941C136.865 51.6841 136.699 51.4649 136.333 51.5291C134.573 51.8391 132.181 57.1294 132.181 58.5564C132.181 59.5487 132.812 60.1819 133.908 59.9872C136.431 59.5411 140.018 54.8462 141.347 52.7217L141.945 53.268C140.284 56.0729 135.236 62.1721 131.815 62.7769C129.823 63.1285 128.694 61.7147 128.694 59.9796" fill="white"/>
<path d="M139.589 60.9115C139.589 59.5468 141.615 57.515 143.044 57.2636C143.707 57.1464 144.207 57.3676 144.207 58.0196C144.207 59.4145 142.18 61.4161 140.72 61.6732C140.056 61.7903 139.589 61.5616 139.589 60.9115Z" fill="white"/>
</g>
<defs>
<clipPath id="clip0_172_319">
<rect width="160" height="88" fill="white"/>
</clipPath>
</defs>
</svg>
