<svg width="96" height="22" viewBox="0 0 96 22" fill="none" xmlns="http://www.w3.org/2000/svg">
<path d="M7.24803 4.14044C7.55101 3.50885 8.45083 3.50893 8.75389 4.14044L10.4258 7.62482L14.2744 8.12872C14.9667 8.2195 15.2542 9.07602 14.7392 9.56232L11.9258 12.2195L12.6318 16.0125C12.7617 16.7102 12.0242 17.2287 11.414 16.8992L8.00096 15.0565L4.58788 16.8992C3.97772 17.2284 3.24025 16.7101 3.3701 16.0125L4.07616 12.2195L1.26268 9.56232C0.748012 9.07604 1.03549 8.21964 1.72752 8.12872L5.57713 7.62482L7.24803 4.14044Z" fill="#FFB44C"/>
<path d="M27.248 4.14044C27.551 3.50885 28.4508 3.50893 28.7539 4.14044L30.4258 7.62482L34.2744 8.12872C34.9667 8.2195 35.2542 9.07602 34.7392 9.56232L31.9258 12.2195L32.6318 16.0125C32.7617 16.7102 32.0242 17.2287 31.414 16.8992L28.001 15.0565L24.5879 16.8992C23.9777 17.2284 23.2402 16.7101 23.3701 16.0125L24.0762 12.2195L21.2627 9.56232C20.748 9.07604 21.0355 8.21964 21.7275 8.12872L25.5771 7.62482L27.248 4.14044Z" fill="#FFB44C"/>
<path d="M47.248 4.14044C47.551 3.50885 48.4508 3.50893 48.7539 4.14044L50.4258 7.62482L54.2744 8.12872C54.9667 8.2195 55.2542 9.07602 54.7392 9.56232L51.9258 12.2195L52.6318 16.0125C52.7617 16.7102 52.0242 17.2287 51.414 16.8992L48.001 15.0565L44.5879 16.8992C43.9777 17.2284 43.2402 16.7101 43.3701 16.0125L44.0762 12.2195L41.2627 9.56232C40.748 9.07604 41.0355 8.21964 41.7275 8.12872L45.5771 7.62482L47.248 4.14044Z" fill="#FFB44C"/>
<path d="M67.248 4.14044C67.551 3.50885 68.4508 3.50893 68.7539 4.14044L70.4258 7.62482L74.2744 8.12872C74.9667 8.2195 75.2542 9.07602 74.7392 9.56232L71.9258 12.2195L72.6318 16.0125C72.7617 16.7102 72.0242 17.2287 71.414 16.8992L68.001 15.0565L64.5879 16.8992C63.9777 17.2284 63.2402 16.7101 63.3701 16.0125L64.0762 12.2195L61.2627 9.56232C60.748 9.07604 61.0355 8.21964 61.7275 8.12872L65.5771 7.62482L67.248 4.14044Z" fill="#FFB44C"/>
<path d="M87.248 4.14044C87.551 3.50885 88.4508 3.50893 88.7539 4.14044L90.4258 7.62482L94.2744 8.12872C94.9667 8.2195 95.2542 9.07602 94.7392 9.56232L91.9258 12.2195L92.6318 16.0125C92.7617 16.7102 92.0242 17.2287 91.414 16.8992L88.001 15.0565L84.5879 16.8992C83.9777 17.2284 83.2402 16.7101 83.3701 16.0125L84.0762 12.2195L81.2627 9.56232C80.748 9.07604 81.0355 8.21964 81.7275 8.12872L85.5771 7.62482L87.248 4.14044Z" fill="#FFB44C"/>
</svg>
